<svg width="632" height="239" viewBox="0 0 632 239" fill="none" xmlns="http://www.w3.org/2000/svg">
<path d="M320.059 42.8725C319.277 42.7421 318.364 43.4593 318.364 43.4593C318.43 41.7641 315.561 42.0249 314.713 43.0029C314.713 43.0029 316.278 43.1333 316.669 43.4593C317.386 43.9809 316.343 43.8505 316.343 43.8505C314.452 42.4813 312.496 44.698 312.562 46.0672C312.686 45.9604 312.832 45.8818 312.989 45.8367C313.147 45.7917 313.313 45.7814 313.474 45.8064C313.996 45.9368 313.279 46.3932 313.279 46.3932C311.779 47.1756 311.453 50.5659 311.975 51.4786L313.083 50.8267C313.083 50.8267 313.344 49.5879 313.8 49.6531C313.996 49.7183 313.54 50.5659 313.54 50.5659L314.257 50.1747C314.257 50.1747 314.583 48.9359 314.909 48.8055C315.235 48.6751 314.648 50.0443 314.648 50.0443L315.496 49.5227C315.496 49.5227 315.822 47.9579 316.343 47.306C317.386 46.0672 316.082 49.2619 316.082 49.2619L317.647 48.4795C317.711 47.8733 317.865 47.2799 318.104 46.7192C318.43 46.1324 318.69 46.328 318.625 46.7844C318.564 47.138 318.477 47.4867 318.364 47.8275L320.581 46.4584C320.581 46.4584 319.799 45.1544 320.059 44.8936C320.385 44.6328 320.972 45.9368 320.972 45.9368C320.972 45.9368 321.168 45.2196 321.298 44.5677C321.332 44.3746 321.327 44.1767 321.282 43.9857C321.238 43.7948 321.155 43.6149 321.039 43.4566C320.924 43.2983 320.777 43.165 320.609 43.0647C320.441 42.9643 320.254 42.8989 320.059 42.8725V42.8725Z" fill="#2D856F"/>
<path d="M331.143 54.1517C331.339 53.3694 331.208 50.3051 329.187 49.5227C328.731 49.3923 327.688 48.8055 327.948 48.2839C328.144 47.8927 329.774 49.0011 329.774 49.0011C329.318 47.632 327.818 45.2848 325.536 45.35C324.819 45.35 323.776 45.5456 323.645 46.328C323.114 46.165 322.547 46.165 322.015 46.328C320.32 46.9148 321.298 49.5879 322.146 49.9791C322.077 49.3729 322.19 48.76 322.472 48.2187C322.733 47.6971 323.189 48.0231 322.928 48.8707C322.733 49.3923 322.733 49.1967 322.667 50.1747C322.602 50.957 322.733 51.609 323.515 52.4566C323.841 52.7826 326.123 55.3253 326.123 55.3253C325.85 54.5516 325.783 53.7205 325.927 52.913C326.058 52.1958 327.101 53.3694 327.101 54.5429C326.971 55.1949 326.384 55.1297 326.84 55.9773C327.883 57.1509 330.1 59.1068 330.1 59.1068L330.687 57.542C330.687 57.542 329.578 56.6293 329.839 55.9121C330.035 55.2601 330.361 55.9773 330.361 55.9773L330.882 57.0205L331.078 55.9773C330.882 55.4557 328.666 53.239 329.187 52.4566C329.448 52.1306 331.143 54.1517 331.143 54.1517ZM324.297 50.2399C323.971 50.5007 323.645 50.0443 323.645 49.8487C323.609 49.4472 323.676 49.0431 323.841 48.6751C324.297 48.0883 324.754 48.3491 324.819 48.8707C324.868 49.1248 324.844 49.3875 324.752 49.6293C324.66 49.871 324.503 50.0825 324.297 50.2399Z" fill="#2D856F"/>
<path d="M331.339 45.6108C330.556 44.7632 329.709 45.0892 329.318 44.8936C328.47 44.4372 329.252 44.1764 329.97 44.372C330.312 44.4299 330.63 44.5888 330.882 44.8284C330.865 44.558 330.798 44.2929 330.687 44.046C330.1 43.1985 329.318 42.0249 328.274 41.7641C327.688 41.6337 326.514 42.0249 326.384 41.8945C325.927 41.3077 327.818 41.2425 327.818 41.2425C327.818 41.2425 325.927 40.3297 324.688 41.2425C324.623 41.3077 324.363 41.5685 324.297 41.5685C322.667 39.5474 320.19 40.5253 319.473 41.1773C319.473 41.1773 321.103 41.0469 322.081 41.8945C323.906 43.4592 323.776 43.8504 325.862 45.024C328.666 46.328 328.992 45.8716 330.361 46.328C331.795 46.7843 331.795 47.5015 331.795 47.5015C331.882 47.1732 331.885 46.8285 331.806 46.4985C331.726 46.1684 331.566 45.8634 331.339 45.6108V45.6108Z" fill="#2D856F"/>
<path d="M318.821 55.7816L318.364 55.7164C318.756 53.1085 320.386 50.0442 321.755 47.5667C322.733 45.7412 323.58 44.1764 323.58 43.394C323.577 43.2432 323.524 43.0977 323.43 42.9798C323.335 42.862 323.205 42.7785 323.059 42.7421C321.755 42.2205 318.69 43.0028 316.8 44.8936L316.474 44.5676C318.495 42.5465 321.755 41.6989 323.254 42.2857C323.49 42.3639 323.698 42.5115 323.849 42.7092C324 42.9069 324.088 43.1455 324.102 43.394C324.102 44.3068 323.254 45.8716 322.211 47.8275C320.777 50.1746 319.147 53.1737 318.821 55.7816Z" fill="#2D856F"/>
<path d="M324.493 62.2867H277.067V64.6115H324.493V62.2867Z" fill="#85A0A6"/>
<path d="M324.493 52.9876H275.208V63.2167H324.493V52.9876Z" fill="#9BB6BD"/>
<path d="M287.613 60.4269H303.254C303.429 60.4269 303.57 60.2854 303.57 60.1107V56.0935C303.57 55.9189 303.429 55.7773 303.254 55.7773H287.613C287.438 55.7773 287.297 55.9189 287.297 56.0935V60.1107C287.297 60.2854 287.438 60.4269 287.613 60.4269Z" fill="#5B696B"/>
<path d="M301.603 57.1722H302.533V56.2423H301.603V57.1722Z" fill="#A0B4B7"/>
<path d="M300.315 57.1722H301.245V56.2423H300.315V57.1722Z" fill="#A0B4B7"/>
<path d="M298.92 57.1722H299.85V56.2423H298.92V57.1722Z" fill="#A0B4B7"/>
<path d="M297.526 57.1722H298.456V56.2423H297.526V57.1722Z" fill="#A0B4B7"/>
<path d="M296.131 57.1722H297.061V56.2423H296.131V57.1722Z" fill="#A0B4B7"/>
<path d="M294.736 57.1722H295.666V56.2423H294.736V57.1722Z" fill="#A0B4B7"/>
<path d="M293.341 57.1722H294.271V56.2423H293.341V57.1722Z" fill="#A0B4B7"/>
<path d="M291.946 57.1722H292.876V56.2423H291.946V57.1722Z" fill="#A0B4B7"/>
<path d="M301.603 59.9619H302.533V59.032H301.603V59.9619Z" fill="#A0B4B7"/>
<path d="M300.315 59.9619H301.245V59.032H300.315V59.9619Z" fill="#A0B4B7"/>
<path d="M298.92 59.9619H299.85V59.032H298.92V59.9619Z" fill="#A0B4B7"/>
<path d="M297.526 59.9619H298.456V59.032H297.526V59.9619Z" fill="#A0B4B7"/>
<path d="M296.131 59.9619H297.061V59.032H296.131V59.9619Z" fill="#A0B4B7"/>
<path d="M294.736 59.9619H295.666V59.032H294.736V59.9619Z" fill="#A0B4B7"/>
<path d="M293.341 59.9619H294.271V59.032H293.341V59.9619Z" fill="#A0B4B7"/>
<path d="M291.946 59.9619H292.876V59.032H291.946V59.9619Z" fill="#A0B4B7"/>
<path d="M300.673 58.5671H301.603V57.6372H300.673V58.5671Z" fill="#A0B4B7"/>
<path d="M299.386 58.5671H300.315V57.6372H299.386V58.5671Z" fill="#A0B4B7"/>
<path d="M297.99 58.5671H298.92V57.6372H297.99V58.5671Z" fill="#A0B4B7"/>
<path d="M296.596 58.5671H297.526V57.6372H296.596V58.5671Z" fill="#A0B4B7"/>
<path d="M295.201 58.5671H296.131V57.6372H295.201V58.5671Z" fill="#A0B4B7"/>
<path d="M293.806 58.5671H294.736V57.6372H293.806V58.5671Z" fill="#A0B4B7"/>
<path d="M292.411 58.5671H293.341V57.6372H292.411V58.5671Z" fill="#A0B4B7"/>
<path d="M314.264 49.6213C313.45 49.3609 312.869 48.868 312.869 48.0404V46.4781H308.22V48.0404C308.22 48.868 307.638 49.3609 306.825 49.6213V50.1978H314.264V49.6213Z" fill="#7D8F92"/>
<path d="M314.264 49.7328H306.825V50.6628H314.264V49.7328Z" fill="#A0B4B7"/>
<path d="M321.238 30.2046H298.92C298.407 30.2046 297.99 30.6209 297.99 31.1345V46.0132C297.99 46.5268 298.407 46.9431 298.92 46.9431H321.238C321.752 46.9431 322.168 46.5268 322.168 46.0132V31.1345C322.168 30.6209 321.752 30.2046 321.238 30.2046Z" fill="#5B696B"/>
<path d="M310.08 38.5739H321.239V31.1345H310.08V38.5739Z" fill="#C6C5C9"/>
<path d="M315.101 36.0166H317.147C317.492 36.0073 317.835 36.0661 318.158 36.1896C318.48 36.3131 318.775 36.4989 319.025 36.7364C319.276 36.9739 319.477 37.2584 319.617 37.5737C319.758 37.889 319.835 38.2288 319.844 38.5738H312.404C312.424 37.8774 312.719 37.2172 313.224 36.7378C313.73 36.2584 314.405 35.9991 315.101 36.0166V36.0166Z" fill="#005640"/>
<path d="M313.841 33.8034C313.841 33.7569 313.841 33.6127 313.841 33.5848C313.838 33.2749 313.919 32.97 314.076 32.7024C314.232 32.4348 314.458 32.2144 314.729 32.0644C314.902 31.99 315.081 31.9309 315.264 31.8877C315.486 31.8514 315.712 31.8594 315.931 31.9115C316.15 31.9635 316.356 32.0585 316.538 32.1908C316.719 32.3232 316.873 32.4903 316.989 32.6826C317.106 32.8748 317.183 33.0882 317.217 33.3105C317.259 33.812 317.162 34.3154 316.938 34.7658C316.844 35.1191 316.862 35.4925 316.989 35.8352C317.046 35.9857 317.067 36.1474 317.05 36.3074C317.033 36.4675 316.979 36.6214 316.893 36.7569C316.806 36.8924 316.689 37.0058 316.55 37.0879C316.412 37.1701 316.256 37.2188 316.096 37.2301H316.059C315.801 37.2236 315.555 37.1208 315.369 36.9418C315.183 36.7627 315.071 36.5206 315.054 36.263C315.062 36.1315 315.028 36.001 314.958 35.8894C314.888 35.7779 314.785 35.6907 314.664 35.64C314.097 35.4772 314.092 35.44 314.022 34.8914C313.994 34.5845 313.757 34.6635 313.729 34.4822C313.701 34.3009 313.85 34.1521 313.841 33.8034Z" fill="#D69264"/>
<path d="M314.32 32.0644C315.013 31.4553 314.943 31.5995 315.924 31.632C317.054 31.6738 316.91 32.3713 317.272 32.8362C317.439 33.063 317.527 33.3383 317.522 33.6198C317.517 33.9012 317.419 34.1732 317.244 34.3939C317.023 34.6679 316.887 35.001 316.854 35.3517C316.588 35.2708 316.34 35.1398 316.124 34.9658C315.997 34.8353 315.905 34.6756 315.854 34.5008C315.899 34.4572 315.934 34.4051 315.958 34.3476C315.982 34.2901 315.994 34.2283 315.994 34.166C315.994 34.0427 315.945 33.9244 315.858 33.8373C315.77 33.7501 315.652 33.7011 315.529 33.7011C315.455 33.7032 315.383 33.7229 315.318 33.7584C315.253 33.794 315.198 33.8445 315.157 33.9056C315.077 33.8235 315.015 33.7252 314.975 33.6174C314.622 32.6596 314.018 33.0036 314.018 33.0036C314.018 33.0036 313.608 33.1152 313.502 32.7526C313.376 32.3108 313.799 32.5294 314.32 32.0644Z" fill="#735149"/>
<path d="M310.079 46.0132H314.655H321.238V38.5739H310.079V46.0132Z" fill="#C7BBA7"/>
<path d="M316.821 45.3158C313.102 45.3158 310.079 42.4191 310.079 38.8435V38.5739H316.821V45.3158Z" fill="#EDE1CC"/>
<path d="M319.542 46.0132H312.102C312.102 45.3966 312.347 44.8053 312.783 44.3693C313.219 43.9333 313.81 43.6884 314.427 43.6884H317.217C317.833 43.6884 318.425 43.9333 318.861 44.3693C319.297 44.8053 319.542 45.3966 319.542 46.0132V46.0132Z" fill="#E2D7EE"/>
<path d="M320.569 42.5446C320.601 42.6979 320.601 42.8562 320.569 43.0096C320.504 43.3629 320.257 44.4044 320.248 44.5114C320.248 44.8089 320.197 45.3948 320.155 46.0364H318.942C319.151 45.3297 319.342 44.6695 319.407 44.4974C319.546 43.8744 319.253 43.7349 319.16 43.349L318.965 42.5353C318.965 42.4098 319.156 42.4377 319.202 42.5353C319.314 42.7399 319.43 42.9212 319.43 42.9212C319.43 42.9212 319.597 42.247 319.653 41.903C319.709 41.5589 319.955 41.7449 319.955 41.7449C320.262 41.3078 320.462 42.0331 320.462 42.0331L320.569 42.5446Z" fill="#735149"/>
<path d="M313.799 41.0567C313.799 41.0103 313.799 40.8661 313.799 40.8382C313.849 40.5342 313.98 40.2494 314.179 40.0143C314.378 39.7792 314.637 39.6027 314.929 39.5038C315.111 39.4588 315.296 39.4277 315.482 39.4108C315.707 39.4096 315.93 39.4528 316.137 39.5381C316.345 39.6234 316.534 39.7489 316.693 39.9076C316.852 40.0662 316.978 40.2548 317.064 40.4624C317.15 40.67 317.194 40.8925 317.193 41.1172C317.158 41.6025 316.943 42.0572 316.589 42.3912C315.994 43.2978 316.71 43.6373 316.71 43.6373C316.587 43.8386 316.416 44.0064 316.212 44.1254C316.008 44.2444 315.778 44.3111 315.542 44.3194C315.306 44.3277 315.072 44.2774 314.86 44.1729C314.649 44.0685 314.466 43.9132 314.329 43.721C314.329 43.721 314.887 43.2978 314.329 43.0328C313.771 42.7678 313.799 42.7585 313.799 42.1912C313.799 41.8844 313.576 41.9262 313.576 41.7263C313.576 41.5264 313.734 41.4055 313.799 41.0567Z" fill="#735149"/>
<path d="M314.729 39.1644C314.143 39.0714 313.609 39.3922 313.576 39.8246C313.54 40.0166 313.561 40.2148 313.635 40.3955C313.709 40.5761 313.834 40.7315 313.994 40.8429C314.113 40.9469 314.252 41.0238 314.403 41.068C314.554 41.1121 314.713 41.1226 314.869 41.0986C314.71 40.8661 314.524 40.7173 314.785 40.4523C315.203 40.9451 315.148 40.8708 315.399 41.1916C315.453 41.2561 315.493 41.3314 315.517 41.4127C315.54 41.4939 315.545 41.5791 315.533 41.6627C315.521 41.7462 315.491 41.8262 315.445 41.8973C315.399 41.9684 315.339 42.029 315.268 42.075C315.58 42.2005 315.771 42.2145 315.966 42.0285C315.087 43.0607 316.305 42.7957 315.599 43.9953C315.521 44.1212 315.474 44.2639 315.463 44.4114C315.452 44.5589 315.475 44.707 315.533 44.8434C315.59 44.9798 315.679 45.1005 315.792 45.1956C315.906 45.2907 316.04 45.3574 316.184 45.3902C316.48 45.4582 316.789 45.4386 317.074 45.3337C317.359 45.2289 317.607 45.0433 317.789 44.7997C318.198 44.2882 318.202 43.8418 317.872 43.1072C318.542 42.3307 317.616 42.1215 317.64 41.7821C317.778 41.6586 317.878 41.4975 317.927 41.3183C317.975 41.1392 317.971 40.9498 317.914 40.7731C317.812 40.4337 317.528 40.4848 317.282 39.9594C317.255 39.677 317.118 39.4161 316.902 39.2322C316.686 39.0482 316.407 38.9555 316.124 38.9737C315.631 38.9412 315.389 39.2759 314.729 39.1644Z" fill="#21191A"/>
<path d="M310.079 31.1345H298.92V38.5739H310.079V31.1345Z" fill="#82BEFA"/>
<path d="M298.92 31.1345H299.037C300.979 31.1345 302.842 31.9061 304.215 33.2794C305.588 34.6528 306.36 36.5154 306.36 38.4576V38.5739H298.92V31.1345Z" fill="#416991"/>
<path d="M304.407 36.4815H306.453C307.941 36.4815 309.15 37.2813 309.15 38.2716V38.5739H301.71V38.2716C301.71 37.2813 302.919 36.4815 304.407 36.4815Z" fill="#BFF9FF"/>
<path d="M303.43 33.6871C303.427 33.6159 303.427 33.5445 303.43 33.4733C303.478 33.1669 303.609 32.8794 303.808 32.6417C304.007 32.4041 304.267 32.2254 304.56 32.1249C304.742 32.0799 304.927 32.0488 305.114 32.0319C305.338 32.0307 305.561 32.0739 305.769 32.1592C305.977 32.2444 306.166 32.37 306.325 32.5287C306.484 32.6873 306.61 32.8759 306.696 33.0835C306.781 33.2911 306.825 33.5136 306.825 33.7383C306.788 34.2396 306.616 34.7215 306.327 35.1332C306.195 35.4079 306.137 35.7122 306.158 36.0163C306.179 36.3204 306.279 36.6137 306.448 36.8675V36.8675C306.16 37.6997 304.393 37.5835 304.198 36.8675C304.198 36.8675 304.509 35.9375 303.942 35.6725C303.375 35.4075 303.407 35.3889 303.421 34.8356C303.421 34.5241 303.198 34.5659 303.198 34.3706C303.198 34.1753 303.389 34.0359 303.43 33.6871Z" fill="#FFE8C7"/>
<path fill-rule="evenodd" clip-rule="evenodd" d="M304.574 33.3012V35.2354C304.569 35.4879 304.623 35.738 304.733 35.9654C304.842 36.1929 305.004 36.3912 305.205 36.5444C305.406 36.6975 305.64 36.8011 305.888 36.8468C306.136 36.8924 306.392 36.8788 306.634 36.807C306.926 36.713 307.173 36.5142 307.327 36.249C307.587 35.7841 308.02 32.3015 305.644 31.8924C304.5 31.6971 303.505 32.1807 303.319 32.9943C303.312 33.0353 303.314 33.0772 303.325 33.1172C303.337 33.1572 303.356 33.1942 303.383 33.2257C303.41 33.2572 303.444 33.2823 303.482 33.2994C303.52 33.3165 303.561 33.325 303.602 33.3245L304.574 33.3012Z" fill="#004750"/>
<path d="M300.232 35.1053C300.199 35.2586 300.199 35.4169 300.232 35.5702C300.297 35.9189 300.543 36.9651 300.552 37.072C300.552 37.3696 300.604 37.9555 300.645 38.5971H301.85C301.64 37.8904 301.45 37.2301 301.385 37.0581C301.245 36.4351 301.538 36.2956 301.631 35.9096L301.826 35.096C301.826 34.9704 301.636 34.9983 301.589 35.096C301.478 35.3006 301.361 35.4819 301.361 35.4819C301.361 35.4819 301.194 34.8077 301.138 34.4636C301.082 34.1196 300.836 34.3055 300.836 34.3055C300.529 33.8685 300.329 34.5938 300.329 34.5938L300.232 35.1053Z" fill="#FFE8C7"/>
<path d="M310.079 38.5739H298.92V46.0132H310.079V38.5739Z" fill="#B38D9A"/>
<path d="M304.096 43.6884H302.11C299.502 43.6884 299.502 46.0132 299.502 46.0132H306.709C306.709 46.0132 306.778 43.6884 304.096 43.6884Z" fill="#3A3440"/>
<path d="M305.895 41.3311C305.942 40.8917 305.819 40.4509 305.551 40.0996C305.282 39.7484 304.89 39.5134 304.453 39.4433C304.23 39.4079 304.001 39.4176 303.781 39.472C303.561 39.5263 303.354 39.6242 303.172 39.7599C302.991 39.8955 302.838 40.0662 302.723 40.2618C302.609 40.4574 302.535 40.6739 302.505 40.8986C302.419 41.2374 302.419 41.5921 302.505 41.9309C302.622 42.2103 302.679 42.5113 302.671 42.8141C302.664 43.1169 302.593 43.4148 302.463 43.6884C302.268 44.423 303.249 44.8322 303.737 44.7113C304.226 44.5904 304.5 44.3812 304.5 44.0929C304.5 43.628 304.226 43.163 305.053 43.2095C305.648 43.2095 305.625 43.0003 305.695 42.4563C305.695 42.1447 305.955 42.2191 305.978 42.0424C306.002 41.8658 305.895 41.6798 305.895 41.3311Z" fill="#F5DDD5"/>
<path d="M305.765 39.5735C304.881 39.4898 304.579 38.6994 303.663 39.2713C302.798 39.3224 302.924 39.3596 302.575 40.0896C302.333 40.2942 302.059 40.4569 302.194 40.8289C302.436 41.2474 302.026 41.5357 302.24 41.9076C302.096 43.07 303.421 43.1537 303.668 42.0704C303.603 42.0382 303.546 41.9926 303.5 41.9366C303.455 41.8806 303.422 41.8155 303.403 41.7456C303.385 41.6757 303.381 41.6028 303.394 41.5315C303.406 41.4603 303.433 41.3925 303.473 41.3326C303.514 41.2728 303.567 41.2222 303.628 41.1845C303.69 41.1467 303.759 41.1225 303.83 41.1135C303.902 41.1046 303.975 41.1111 304.044 41.1325C304.113 41.154 304.176 41.19 304.23 41.2381C304.435 41.3822 304.918 41.4613 305.049 41.0846C305.14 41.0824 305.229 41.051 305.302 40.995C305.375 40.939 305.428 40.8613 305.453 40.7731C306.248 40.8057 306.592 39.8897 305.765 39.5735Z" fill="#D6A65E"/>
<path d="M308.875 46.0132C308.875 46.0132 308.978 45.7714 308.689 45.3948C308.196 44.7485 308.099 44.7113 308.28 44.3301C308.376 44.1477 308.43 43.9464 308.439 43.7406C308.448 43.5348 308.411 43.3296 308.331 43.1398C308.217 43.2154 308.113 43.3044 308.02 43.4048C307.754 43.3151 307.468 43.3054 307.197 43.3769C307.111 43.252 306.992 43.1537 306.853 43.0933C306.732 43.441 306.701 43.8139 306.764 44.1766C306.871 44.6927 306.936 44.9298 306.829 45.1809C306.702 45.4423 306.622 45.724 306.592 46.0132H308.875Z" fill="#E0E0E0"/>
<path d="M309.322 44.4137C309.426 44.1838 309.493 43.9391 309.522 43.6884C309.528 43.5659 309.511 43.4433 309.47 43.3276C309.43 43.2119 309.367 43.1054 309.284 43.0142C309.159 42.8794 309.345 42.6748 309.475 42.805C309.647 42.9998 309.766 43.2358 309.819 43.4899C309.873 43.7441 309.86 44.0079 309.782 44.2557C309.698 44.5486 309.461 44.7206 309.559 45.2321C309.675 45.8319 309.526 45.9946 309.526 45.9946H308.954C308.954 45.9946 309.224 45.9434 309.136 45.2786C309.129 44.9797 309.193 44.6834 309.322 44.4137V44.4137Z" fill="#E0E0E0"/>
<path d="M316.124 54.3824H310.544V61.8218H316.124V54.3824Z" fill="#FFE9C7"/>
<path d="M313.683 60.4269L318.332 56.2423L313.683 60.4269Z" stroke="#CE6851" stroke-linecap="round" stroke-linejoin="round"/>
<path d="M300.589 54.2755C300.52 54.2746 300.453 54.2531 300.396 54.2138C300.339 54.1746 300.295 54.1193 300.27 54.055C300.245 53.9908 300.239 53.9204 300.254 53.8529C300.268 53.7853 300.303 53.7237 300.352 53.6757L302.677 51.4532C303.362 50.8978 304.228 50.6162 305.109 50.6628H315.659C316.516 50.6263 317.359 50.8967 318.035 51.4253L320.513 53.6711C320.578 53.7365 320.615 53.8251 320.615 53.9175C320.615 54.0099 320.578 54.0985 320.513 54.1639C320.447 54.2281 320.359 54.264 320.267 54.264C320.174 54.264 320.086 54.2281 320.02 54.1639L317.56 52.0577C317.17 51.6996 316.435 51.5927 315.654 51.5927H305.109C304.309 51.5927 303.57 51.7043 303.179 52.0577L300.855 54.1639C300.82 54.1994 300.779 54.2276 300.733 54.2467C300.688 54.2659 300.639 54.2757 300.589 54.2755V54.2755Z" fill="#B9AF9F"/>
<path d="M93.0558 81.46H68.7558V61.3H116.456V167.14H141.836V187.3H67.6758V167.14H93.0558V81.46ZM220.719 155.62V187.3H198.039V155.62H145.659V133.12L191.919 61.3H220.719V136.72H240.519V155.62H220.719ZM198.039 85.24H197.319L164.919 136.72H198.039V85.24ZM311.508 81.46H254.448V61.3H333.108V85.24L303.768 112.78C323.388 114.76 335.628 129.34 335.628 148.78C335.628 172.54 317.988 189.46 292.068 189.46C264.528 189.46 249.588 173.26 249.588 151.66V146.08H272.988V150.04C272.988 159.94 278.028 169.84 291.888 169.84C304.848 169.84 311.328 160.84 311.328 149.14C311.328 135.28 302.328 127.72 287.748 127.72C285.408 127.72 282.708 127.9 280.188 128.26V110.8L311.508 81.46ZM457.997 90.82L429.377 153.28H407.777L379.337 90.82V187.3H356.477V61.3H390.677L418.757 126.28L448.637 61.3H481.397V187.3H457.997V90.82ZM531.761 84.16H553.001V113.14H581.801V133.12H553.001V162.28H531.761V133.12H502.961V113.14H531.761V84.16Z" fill="#004182"/>
<path d="M596.848 143.678H610.216C611.788 143.678 612.131 145.422 610.961 145.846C608.726 146.867 608.823 150.265 608.823 150.265V161.51C608.815 164.543 608.815 172.74 602.049 172.74H600.618V174.603C600.618 174.702 600.657 174.796 600.727 174.866C600.797 174.936 600.892 174.975 600.991 174.975H605.089C605.287 174.975 605.476 175.054 605.616 175.194C605.756 175.333 605.834 175.523 605.834 175.721C605.834 175.918 605.756 176.108 605.616 176.247C605.476 176.387 605.287 176.466 605.089 176.466H603.599C603.401 176.466 603.212 176.387 603.072 176.247C602.932 176.108 602.854 175.918 602.854 175.721H600.991C600.694 175.721 600.41 175.603 600.2 175.393C599.991 175.184 599.873 174.899 599.873 174.603V172.74H597.637V189.134H596.892V172.74H586.624C586.624 164.543 594.307 143.678 596.848 143.678Z" fill="#493D57"/>
<path d="M523.088 147.404H524.579V153.365H523.088V147.404Z" fill="#0A66C2"/>
<path d="M526.069 150.012H526.814V154.483H526.069V150.012Z" fill="#13707E"/>
<path d="M587.205 192.86V195.095L596.147 193.605L596.892 195.84C597.14 195.818 597.39 195.818 597.638 195.84L598.383 193.605L607.325 195.095V192.86L598.383 190.624V186.153H596.147V190.624L587.205 192.86Z" fill="#CFDEE0"/>
<path d="M599.128 196.958C599.128 196.464 598.932 195.99 598.582 195.641C598.233 195.291 597.759 195.095 597.265 195.095C596.771 195.095 596.297 195.291 595.948 195.641C595.598 195.99 595.402 196.464 595.402 196.958H599.128Z" fill="#493D57"/>
<path d="M588.695 196.958C588.695 196.464 588.499 195.99 588.15 195.641C587.8 195.291 587.326 195.095 586.832 195.095C586.338 195.095 585.864 195.291 585.515 195.641C585.166 195.99 584.969 196.464 584.969 196.958H588.695Z" fill="#493D57"/>
<path d="M607.697 198.821C606.668 198.821 605.834 197.987 605.834 196.958C605.834 195.929 606.668 195.095 607.697 195.095C608.726 195.095 609.56 195.929 609.56 196.958C609.56 197.987 608.726 198.821 607.697 198.821Z" fill="#493D57"/>
<path d="M553.022 154.856H576.093L573.112 136.971H550.511L553.022 154.856Z" fill="#94C9FD"/>
<path d="M551.502 154.856H574.602L571.622 136.971H548.521L551.502 154.856Z" fill="#2D89E7"/>
<path d="M561.562 151.13C559.71 151.13 558.208 149.628 558.208 147.776C558.208 145.924 559.71 144.423 561.562 144.423C563.414 144.423 564.915 145.924 564.915 147.776C564.915 149.628 563.414 151.13 561.562 151.13Z" fill="#56687A"/>
<path d="M561.122 159.863H558.886L560.444 147.404H562.679L561.122 159.863Z" fill="#38434F"/>
<path d="M554.483 159.327H564.915V160.817H554.483V159.327Z" fill="#56687A"/>
<path d="M564.85 159.327H579.753V160.817H564.85V159.327Z" fill="#7389A0"/>
<path d="M522.343 152.62H527.559V160.817H522.343V152.62Z" fill="#F4BA64"/>
<path d="M526.069 156.346H532.031V160.817H526.069V156.346Z" fill="#7389A0"/>
<path d="M530.54 153.365H537.992V160.817H530.54V153.365Z" fill="#9AE8F4"/>
<path d="M590.1 124.3C589.514 124.874 589.058 125.581 588.766 126.369C588.474 127.156 588.353 128.003 588.412 128.847V128.847C588.512 129.835 588.494 130.832 588.356 131.814C588.331 131.932 588.343 132.056 588.39 132.166C588.438 132.276 588.518 132.366 588.619 132.423C588.738 132.541 591.972 135.609 591.972 135.609V136.455L598.343 137.3C597.533 135.154 597.533 132.76 598.343 130.614L590.1 124.3Z" fill="#7F472D"/>
<path d="M589.398 124.874L589.408 124.864V124.874H589.398Z" fill="#1C2024"/>
<path d="M588.123 125.729C588.123 125.729 588.552 125.729 588.552 126.585H589.408H591.977C591.977 126.585 593.741 132.048 593.638 133.204C593.535 134.36 591.925 134.574 591.232 134.06C590.538 133.546 590.247 132.741 588.492 132.947L589.048 135.747C589.202 136.535 589.733 136.809 590.829 136.603L593.201 136.192C594.914 135.875 594.991 134.916 594.777 133.863C594.648 133.238 594.194 130.592 594.194 130.592C594.172 130.412 594.186 130.23 594.235 130.055C594.283 129.881 594.366 129.717 594.478 129.575C594.589 129.432 594.728 129.313 594.886 129.223C595.044 129.134 595.218 129.077 595.397 129.055C595.577 129.033 595.76 129.047 595.934 129.096C596.109 129.144 596.272 129.227 596.415 129.338C596.558 129.45 596.677 129.589 596.766 129.747C596.855 129.905 596.913 130.078 596.934 130.258C596.955 130.513 596.902 130.769 596.782 130.995C596.662 131.221 596.48 131.408 596.258 131.534C596.336 132.065 596.551 132.567 596.881 132.99C597.211 133.414 597.646 133.744 598.142 133.949C598.142 133.949 597.971 133.435 598.827 132.579H599.683C601.396 132.579 599.683 130.866 599.683 128.297C599.91 128.297 600.128 128.207 600.289 128.047C600.449 127.886 600.539 127.668 600.539 127.441L597.971 124.016C597.971 123.789 597.88 123.571 597.72 123.411C597.559 123.25 597.341 123.16 597.114 123.16H596.258C596.258 122.933 596.168 122.715 596.007 122.554C595.847 122.394 595.629 122.304 595.402 122.304C594.545 122.304 594.545 123.16 593.689 123.16C592.833 123.16 592.833 122.304 591.977 122.304C591.75 122.304 591.532 122.394 591.371 122.554C591.211 122.715 591.12 122.933 591.12 123.16H590.264C590.037 123.16 589.819 123.25 589.659 123.411C589.498 123.571 589.408 123.789 589.408 124.016C589.408 124.243 589.318 124.461 589.157 124.622C588.996 124.782 588.779 124.872 588.552 124.872H588.123C588.01 124.872 587.901 124.917 587.821 124.998C587.74 125.078 587.695 125.187 587.695 125.301C587.695 125.414 587.74 125.523 587.821 125.603C587.901 125.684 588.01 125.729 588.123 125.729Z" fill="#1C2024"/>
<path d="M590.648 198.143C590.648 198.821 591.438 198.821 593.226 198.821C594.374 198.821 595.126 197.212 595.842 196.735C596.557 196.258 597.474 195.937 598.181 195.505L598.271 195.453C598.626 195.215 598.872 194.846 598.955 194.427C599.039 194.008 598.954 193.573 598.718 193.217C598.617 193.088 598.505 192.968 598.383 192.86C596.624 191.131 594.701 187.301 594.515 187.36L591.646 189.275C592.63 190.14 593.349 191.267 593.718 192.524C594.113 194.328 593.643 197.249 591.482 197.688C591.095 197.741 590.648 197.778 590.648 198.143Z" fill="#F4BA64"/>
<path d="M569.559 197.785C569.559 198.389 570.99 198.821 572.13 198.821H578.203C578.632 198.821 579.043 198.651 579.347 198.347C579.65 198.044 579.82 197.633 579.82 197.204C579.808 197.036 579.78 196.869 579.738 196.705C578.993 194.216 580.819 189.998 580.819 189.998H576.534C576.504 191.292 576.337 192.578 576.035 193.836C575.603 195.483 572.518 196.921 570.357 197.182C569.999 197.204 569.544 197.174 569.559 197.785Z" fill="#F4BA64"/>
<path d="M576.027 139.207L577.942 140.697C577.942 140.697 577.734 139.713 577.637 139.341C577.54 138.968 577.518 138.462 577.89 138.462C578.263 138.462 578.494 138.864 578.561 139.207C578.77 139.885 578.92 140.581 579.008 141.286V143.134C579.132 143.821 579.296 144.5 579.5 145.168L576.959 146.815L576.4 144.423C576.06 143.915 575.665 143.445 575.222 143.022C574.854 142.568 574.617 142.022 574.537 141.442V139.952C574.537 139.952 574.947 137.716 574.991 137.478C575.007 137.351 575.068 137.235 575.163 137.15C575.259 137.065 575.382 137.018 575.509 137.018C575.637 137.018 575.76 137.065 575.855 137.15C575.951 137.235 576.012 137.351 576.027 137.478V139.207Z" fill="#7F472D"/>
<path d="M579.12 167.784L572.301 191.369L579.753 193.605L583.479 180.192L579.12 167.784Z" fill="#BE7460"/>
<path d="M601.363 160.072L585.23 162.702C579.343 163.723 578.337 168.015 579.343 171.123C580.349 174.23 588.695 193.605 588.695 193.605L596.147 189.879L587.205 170.504H596.892C600.238 170.318 602.108 168.269 603.427 165.825L601.363 160.072Z" fill="#DD9784"/>
<path d="M595.843 132.3C594.462 132.3 593.343 131.405 593.343 130.3C593.343 129.195 594.462 128.3 595.843 128.3C597.224 128.3 598.343 129.195 598.343 130.3C598.343 131.405 597.224 132.3 595.843 132.3Z" fill="#7389A0"/>
<path d="M589.408 135.148H595.402C595.681 135.172 595.961 135.12 596.212 134.998C596.464 134.876 596.678 134.688 596.832 134.454C596.931 134.303 596.997 134.132 597.027 133.954C597.056 133.776 597.048 133.593 597.003 133.418L596.25 130.335L595.393 130.541L596.155 133.623C596.155 133.752 596.241 134.291 595.385 134.291H589.391L589.408 135.148Z" fill="#D0DDEA"/>
<path d="M595.83 130.866H595.933C596.043 130.838 596.138 130.767 596.198 130.67C596.257 130.572 596.276 130.455 596.25 130.344L594.349 122.638C594.321 122.524 594.25 122.426 594.151 122.365C594.051 122.304 593.931 122.285 593.818 122.312C593.704 122.339 593.606 122.411 593.545 122.51C593.484 122.61 593.465 122.729 593.492 122.843L595.385 130.549C595.41 130.646 595.469 130.73 595.55 130.788C595.632 130.846 595.73 130.874 595.83 130.866Z" fill="#7389A0"/>
<path d="M595.83 131.722C595.121 131.722 594.545 131.147 594.545 130.438C594.545 129.729 595.121 129.154 595.83 129.154C596.539 129.154 597.114 129.729 597.114 130.438C597.114 131.147 596.539 131.722 595.83 131.722Z" fill="#38434F"/>
<path d="M586.343 161.093H598.498C598.498 161.093 602.356 162.643 603.722 166.3C604.225 165.484 604.549 164.57 604.672 163.619C605.01 161.445 605.234 159.254 605.343 157.057L601.646 140.174C600.343 139.8 598.616 137.402 598.243 136.3H592.324V138.624C590.867 138.915 589.136 140.565 587.843 141.3C587.843 141.3 586.351 154.546 586.343 161.093Z" fill="#B24020"/>
<path d="M581.042 144.535L584.224 152.62C584.224 152.62 585.208 147.694 585.588 145.913C585.894 144.423 585.789 141.971 589.314 140.287C588.206 147.079 587.564 153.938 587.391 160.817H583.479C583.479 160.817 579.008 159.327 576.773 145.913L581.042 144.535Z" fill="#A13A1D"/>
<path d="M577.033 156.174L579.872 154.274C580.08 154.127 580.329 154.047 580.584 154.047C580.839 154.047 581.088 154.127 581.296 154.274C582.157 155.08 583.17 155.706 584.276 156.115L585.715 156.346L586.303 159.669C585.264 159.078 584.189 158.553 583.084 158.097C582.555 158.008 581.519 158.656 580.804 157.948L580.29 157.404C579.656 157.115 578.954 157.006 578.263 157.091C577.369 157.091 576.236 156.711 577.033 156.174Z" fill="#7F472D"/>
<path d="M598.98 162.49L585.336 160.716V156.245L598.004 156.991V144.323C598.212 140.127 600.343 139.3 600.343 139.3C600.626 139.479 600.978 139.599 601.343 139.8C602.47 140.336 602.969 141.25 603.644 142.299C604.319 143.349 604.689 144.565 604.71 145.813V154.01C604.71 154.01 604.71 155.709 604.591 157.825C604.553 158.509 604.374 159.177 604.066 159.788C603.758 160.4 603.327 160.941 602.801 161.379C602.274 161.816 601.663 162.141 601.006 162.332C600.348 162.523 599.659 162.577 598.98 162.49Z" fill="#C94D2A"/>
<path d="M587.343 134.3H590.343V135.3H587.343V134.3Z" fill="#7389A0"/>
<path d="M607.325 160.817H599.128L602.109 171.249H600.618L596.997 160.996C596.942 160.721 596.946 160.437 597.006 160.163C597.067 159.889 597.183 159.631 597.348 159.404C597.513 159.177 597.724 158.987 597.966 158.846C598.208 158.704 598.477 158.614 598.755 158.581H607.325V160.817Z" fill="#493D57"/>
<path d="M527.278 161.562H528.768V197.331H527.278V161.562Z" fill="#1D94A6"/>
<path d="M535.795 196.586H520.258C519.75 196.586 519.263 196.787 518.904 197.146C518.545 197.506 518.343 197.993 518.343 198.501V198.821H537.71V198.501C537.71 197.993 537.508 197.506 537.149 197.146C536.79 196.787 536.303 196.586 535.795 196.586V196.586Z" fill="#67D3E4"/>
<path d="M592.421 161.562H593.911V197.331H592.421V161.562Z" fill="#1D94A6"/>
<path d="M519.335 160.3H585.335V162.3H519.335V160.3Z" fill="#B4C6D9"/>
<path d="M584.969 160.3H601.363V162.536H584.969V160.3Z" fill="#E7EEF5"/>
<path d="M600.939 196.586H585.394C585.143 196.586 584.894 196.635 584.661 196.731C584.429 196.828 584.218 196.969 584.04 197.146C583.862 197.324 583.721 197.535 583.625 197.768C583.529 198 583.479 198.249 583.479 198.501V198.821H602.854V198.501C602.854 197.993 602.652 197.506 602.293 197.146C601.934 196.787 601.447 196.586 600.939 196.586V196.586Z" fill="#67D3E4"/>
<path fill-rule="evenodd" clip-rule="evenodd" d="M266.808 75.7301C266.808 75.7301 266.495 78.0232 266.337 78.5289C266.296 78.7114 266.14 79.325 266.185 79.5066C266.229 79.6881 266.316 79.8568 266.437 79.9991C266.559 80.1414 266.711 80.2536 266.884 80.3267C267.056 80.3998 267.242 80.4319 267.429 80.4203H272.395L271.449 80.1419C270.97 80.0094 270.666 79.9809 270.278 79.6705C269.89 79.3601 270.07 78.6061 269.836 78.168L269.725 75.8479L266.808 75.7301Z" fill="#C78863"/>
<path d="M266.629 74.9953H270.241V75.5777C270.241 75.7824 270.16 75.9788 270.015 76.1236C269.87 76.2684 269.674 76.3497 269.469 76.3497H266.629V74.9953Z" fill="#6F6659"/>
<path fill-rule="evenodd" clip-rule="evenodd" d="M267.533 75.4468H270.052C270.467 75.4559 270.873 75.3283 271.209 75.0835C271.544 74.8387 271.789 74.4905 271.907 74.0924L272.44 66.8689L266.119 66.4445L265.668 73.2888C265.62 73.5577 265.633 73.834 265.705 74.0974C265.778 74.3608 265.908 74.6047 266.087 74.8115C266.265 75.0182 266.488 75.1825 266.738 75.2924C266.988 75.4023 267.259 75.455 267.533 75.4468V75.4468Z" fill="#6F6659"/>
<path d="M266.922 81.4576H272.791C273.27 81.4576 273.717 80.9655 273.514 80.5546C273.347 80.2025 272.669 80.1032 272.25 79.9C270.895 79.3176 270.647 79.1867 269.857 77.8684C268.552 79.1912 266.471 77.8684 266.471 77.8684L265.658 79.9632C265.639 80.1451 265.657 80.329 265.71 80.5038C265.764 80.6787 265.853 80.8408 265.971 80.9804C266.089 81.1201 266.234 81.2343 266.398 81.3164C266.561 81.3984 266.74 81.4464 266.922 81.4576V81.4576Z" fill="#895042"/>
<path d="M275.411 54.0246L267.004 50.0698C267.004 50.1014 265.65 53.9704 265.65 53.9704L274.706 55.9434L276.472 56.2278L275.411 54.0246Z" fill="#C78863"/>
<path d="M277.438 56.9366H276.589C276.407 56.9366 276.228 56.9009 276.06 56.8314C275.893 56.762 275.74 56.6602 275.612 56.532C275.484 56.4037 275.382 56.2514 275.313 56.0838C275.243 55.9162 275.207 55.7365 275.207 55.5551V52.8734H278.819V55.5551C278.819 55.7365 278.783 55.9162 278.714 56.0838C278.645 56.2514 278.543 56.4037 278.414 56.532C278.286 56.6602 278.134 56.762 277.966 56.8314C277.799 56.9009 277.619 56.9366 277.438 56.9366V56.9366Z" fill="#FFEC6E"/>
<path d="M275.591 53.1082H274.986C274.647 53.1291 274.331 53.2834 274.106 53.5372C273.881 53.7911 273.765 54.1238 273.785 54.4626V54.4626C273.765 54.8013 273.881 55.134 274.106 55.3879C274.331 55.6417 274.647 55.796 274.986 55.817H275.591V53.1082Z" stroke="#FFEC6E" stroke-miterlimit="10"/>
<path d="M274.557 54.4851C274.477 54.4255 274.412 54.3479 274.367 54.2585C274.322 54.1691 274.298 54.0705 274.298 53.9704C274.298 53.8704 274.322 53.7718 274.367 53.6824C274.412 53.593 274.477 53.5154 274.557 53.4558C275.076 53.2196 275.644 53.1097 276.214 53.1352C276.336 53.1352 276.544 53.1713 276.557 53.3655C276.564 53.4387 276.542 53.5116 276.497 53.5695C276.452 53.6274 276.386 53.6658 276.313 53.677C275.841 53.8351 275.416 54.1118 275.081 54.4806C275.022 54.5393 274.557 54.4851 274.557 54.4851Z" fill="#C78863"/>
<path fill-rule="evenodd" clip-rule="evenodd" d="M259.406 58.291C259.406 58.291 259.406 48.3181 260.584 44.3181C261.108 42.5122 262.115 40.7063 263.018 40.2548C263.018 40.2548 265.844 39.6679 268.354 40.5934C269.216 40.8869 271.144 41.1668 271.144 47.4558C271.168 50.0214 271.017 52.5856 270.693 55.1307L259.406 58.291Z" fill="#F7CB83"/>
<path d="M265.149 37.2255C265.609 38.7469 263.018 40.2323 263.018 40.2323H266.178C266.953 40.2342 267.719 40.3875 268.435 40.6837C268.448 40.2235 268.631 39.7843 268.949 39.4509C269.266 39.1175 269.696 38.9134 270.155 38.8779C271.577 38.756 271.424 38.2142 271.591 37.1533C271.699 36.4761 272.137 36.607 272.178 36.2142C272.218 35.8214 271.889 35.4377 271.857 34.6792V34.6566C271.853 34.5724 271.853 34.488 271.857 34.4038V34.4038C271.859 34.3934 271.859 34.3827 271.857 34.3722C271.857 34.3135 271.857 34.2548 271.857 34.1961C271.826 33.633 271.668 33.0842 271.397 32.5898C271.125 32.0955 270.747 31.6684 270.288 31.3397C269.83 31.0111 269.304 30.7894 268.748 30.6908C268.193 30.5923 267.623 30.6195 267.079 30.7703C266.536 30.9212 266.033 31.192 265.608 31.5627C265.183 31.9334 264.847 32.3947 264.623 32.9125C264.4 33.4304 264.295 33.9918 264.318 34.5553C264.34 35.1189 264.488 35.6703 264.751 36.1691C264.904 36.513 265.037 36.8658 265.149 37.2255V37.2255Z" fill="#C78863"/>
<path d="M269.338 34.8147C269.894 34.7605 269.532 33.8801 269.93 33.8666C270.833 33.835 270.905 33.5596 271.284 32.9953C271.663 32.4309 272.074 32.6973 272.187 31.853C272.232 31.5054 271.736 30.8643 270.923 30.9501C269.474 31.0494 269.095 30.3 267.478 30.3C265.221 30.3 264.255 31.4828 263.776 32.9275C263.615 33.441 263.563 33.9824 263.623 34.5172C263.683 35.052 263.853 35.5684 264.124 36.0336C265.072 37.3158 264.611 38.4264 265.275 38.4264C266.097 38.4264 266.918 37.072 267.081 37.072C268.887 36.8553 267.045 35.0404 269.338 34.8147Z" fill="#8F5849"/>
<path d="M264.824 32.1059C263.469 30.4264 260.616 30.905 259.406 33.0088C257.803 35.8079 259.663 41.0675 256.106 41.0675C256.95 42.7966 260.882 42.4039 262.115 40.2323C264.268 36.4354 261.153 32.2955 264.304 32.309C264.796 32.2278 264.796 32.2278 264.824 32.1059Z" fill="#8F5849"/>
<path fill-rule="evenodd" clip-rule="evenodd" d="M281 36.0382C280.666 35.7221 280.309 36.3768 280.119 36.6025C280.236 36.1858 280.387 35.7796 280.571 35.388C280.711 35.0856 280.3 35.0359 280.02 35.388C279.801 35.677 279.599 35.9785 279.415 36.291C279.641 35.2075 279.776 35.0178 279.934 34.4129C279.975 34.1871 279.541 34.0607 279.302 34.5844C279.14 34.9321 278.819 35.9388 278.76 36.0291C278.76 35.975 278.815 34.1059 278.815 34.1059C278.815 34.1059 278.517 33.9117 278.336 34.3C278.21 34.5754 277.767 37.212 277.433 37.063C277.203 36.9592 277.167 36.3452 276.982 35.8847C276.864 35.6002 276.417 35.7312 276.435 35.8847C276.684 37.6905 276.566 38.0156 276.769 38.8192C276.973 39.6228 277.221 39.5822 277.28 39.9434C277.338 40.3045 276.133 44.8418 276.043 45.1984L272.697 43.1984L270.462 46.3587L274.941 49.1578C275.351 49.4065 275.817 49.5478 276.295 49.5686C278.48 49.677 279.004 47.3113 279.004 45.5054C279.004 42.5077 279.135 40.8779 279.14 40.3948C279.103 40.0878 279.645 38.8824 279.821 38.2368C280.159 37.5854 280.54 36.9579 280.964 36.3587C280.997 36.3128 281.017 36.2593 281.024 36.2031C281.03 36.147 281.022 36.0902 281 36.0382V36.0382Z" fill="#C78863"/>
<path d="M274.331 44.0969L272.471 47.212C272.408 47.3169 272.325 47.408 272.225 47.4795C272.126 47.5511 272.013 47.6017 271.894 47.6283C271.774 47.655 271.65 47.657 271.53 47.6343C271.41 47.6116 271.295 47.5647 271.194 47.4964C270.544 47.0449 269.424 46.2504 267.582 44.8598C265.939 43.6228 267.582 39.3203 270.508 41.3203C271.833 42.1734 273.11 43.1004 274.331 44.0969V44.0969Z" fill="#FFD99C"/>
<path fill-rule="evenodd" clip-rule="evenodd" d="M282.882 78.6341L282.995 77.9298L281.948 74.6567L278.675 75.1082L279.158 77.3655L279.681 80.133L282.882 78.6341Z" fill="#C78863"/>
<path fill-rule="evenodd" clip-rule="evenodd" d="M282.729 75.4197L282.431 73.6409H278.368L278.819 76.3497H281.939C282.055 76.35 282.17 76.3249 282.275 76.2762C282.381 76.2276 282.474 76.1565 282.55 76.068C282.625 75.9794 282.68 75.8756 282.711 75.7636C282.742 75.6516 282.748 75.5343 282.729 75.4197Z" fill="#918675"/>
<path fill-rule="evenodd" clip-rule="evenodd" d="M263.921 65.063H273.853C275.429 65.063 275.659 66.0156 275.939 67.5461L276.9 73.966C276.955 74.3157 277.133 74.6343 277.402 74.8644C277.671 75.0945 278.014 75.221 278.368 75.221H281.605C281.832 75.2217 282.058 75.1736 282.265 75.0801C282.473 74.9865 282.658 74.8497 282.809 74.6787C282.959 74.5076 283.072 74.3064 283.138 74.0885C283.204 73.8706 283.223 73.641 283.194 73.4152L282.309 65.8395C282.281 65.2333 282.21 64.6298 282.097 64.0337C281.6 61.4874 279.555 58.9998 277.085 58.2187L270.693 55.072L263.921 56.9366V65.063Z" fill="#918675"/>
<path d="M280.14 81.4547H287.043C287.267 81.466 287.487 81.3892 287.656 81.2408C287.824 81.0924 287.928 80.8841 287.946 80.6601C287.946 80.3938 287.824 80.1229 287.368 79.9694C285.891 79.4773 283.982 79.0393 282.876 77.6669C281.521 79.1567 279.205 77.6353 279.205 77.6353L278.998 79.9784C278.95 80.153 278.944 80.3362 278.979 80.5136C279.014 80.6911 279.09 80.8579 279.201 81.001C279.312 81.1441 279.454 81.2596 279.617 81.3383C279.78 81.417 279.959 81.4569 280.14 81.4547Z" fill="#895042"/>
<path d="M274.919 65.9659L277.178 80.8784C277.184 80.9554 277.173 81.0328 277.147 81.1054C277.12 81.1779 277.078 81.2439 277.024 81.2987C276.969 81.3536 276.904 81.396 276.831 81.4232C276.759 81.4504 276.682 81.4617 276.604 81.4562C276.476 81.4607 276.35 81.4216 276.247 81.3454C276.144 81.2692 276.069 81.1603 276.036 81.0364L272.751 65.9659H274.919Z" fill="#B9AF9F"/>
<path d="M264.372 65.9659L263.372 80.9864C263.381 81.0593 263.405 81.1295 263.443 81.1925C263.48 81.2556 263.531 81.3101 263.59 81.3526C263.65 81.3951 263.718 81.4246 263.79 81.4393C263.862 81.454 263.937 81.4535 264.008 81.4379C264.132 81.4302 264.25 81.3817 264.343 81.3C264.436 81.2183 264.499 81.108 264.523 80.9864L266.63 65.9659H264.372Z" fill="#B9AF9F"/>
<path d="M257.6 64.6115L255.373 80.9873C255.381 81.0605 255.405 81.1311 255.442 81.1945C255.479 81.2579 255.53 81.3127 255.59 81.3553C255.65 81.3979 255.718 81.4274 255.791 81.4417C255.863 81.4561 255.937 81.4551 256.009 81.4388C256.133 81.4303 256.25 81.3816 256.343 81.3C256.436 81.2184 256.499 81.1086 256.524 80.9873L259.857 65.9659L257.6 64.6115Z" fill="#B9AF9F"/>
<path d="M273.853 65.966V65.0088C273.853 64.291 273.063 63.7086 272.092 63.7086H261.663V65.966H273.853Z" fill="#E2D7EE"/>
<path fill-rule="evenodd" clip-rule="evenodd" d="M267.406 60.6115C267.406 60.6115 267.884 61.9659 266.62 62.3406C265.69 62.6115 265.505 63.1894 265.916 64.2233C266.151 64.8282 267.112 65.063 267.112 65.063H274.11C274.41 65.063 274.697 65.1819 274.908 65.3936C275.12 65.6052 275.239 65.8923 275.239 66.1917C275.239 66.491 275.12 66.7781 274.908 66.9898C274.697 67.2014 274.41 67.3203 274.11 67.3203H260.115C259.413 67.3248 258.73 67.0931 258.175 66.6623C257.621 66.2316 257.227 65.627 257.058 64.9456C257 64.6967 256.955 64.4451 256.923 64.1917C256.444 60.5438 255.568 54.133 255.492 52.0472C255.492 51.537 255.559 50.8102 256.331 50.7244C258.749 50.5473 261.177 50.5911 263.587 50.8553C264.115 50.8976 264.611 51.1267 264.986 51.5014C265.36 51.8762 265.589 52.3721 265.632 52.9005L267.406 60.6115Z" fill="#E0A191"/>
<path d="M582.493 89.3769V104.519H562.007V89.3769H582.493ZM582.938 88.9316H561.562V104.964H582.938V88.9316Z" fill="#767676"/>
<path d="M562.284 89.6543H582.215V104.241H562.284V89.6543Z" fill="white" stroke="#77593C"/>
<path d="M565.124 92.4944H580.266V101.401H565.124V92.4944Z" fill="#6FA9DC"/>
<path d="M573.14 92.4944C566.015 92.4944 566.015 98.7292 566.015 98.7292H573.14V92.4944Z" fill="#47423A"/>
<path d="M576.703 98.7292C578.179 98.7292 579.375 97.5328 579.375 96.0571C579.375 94.5814 578.179 93.385 576.703 93.385C575.228 93.385 574.031 94.5814 574.031 96.0571C574.031 97.5328 575.228 98.7292 576.703 98.7292Z" fill="#E8EDAA"/>
<path d="M578.039 97.8385C578.777 97.8385 579.375 97.2403 579.375 96.5024C579.375 95.7646 578.777 95.1664 578.039 95.1664C577.301 95.1664 576.703 95.7646 576.703 96.5024C576.703 97.2403 577.301 97.8385 578.039 97.8385Z" fill="#7B9370"/>
<path d="M565.124 100.511L580.266 98.4619V101.401H565.124V100.511Z" fill="#F3BA63"/>
<path d="M610.11 105.8H588.843V77.4073H610.11V105.8Z" fill="white" stroke="#77593C"/>
<path d="M599.031 90.2676H591.906V80.4701H599.031V90.2676Z" fill="#F5987E"/>
<path d="M602.059 84.9235H604.909C606.067 84.9235 607.047 83.9883 607.047 82.7859V82.6077C607.047 81.4498 606.112 80.4701 604.909 80.4701H602.059C600.901 80.4701 599.922 81.4053 599.922 82.6077V82.7859C599.922 83.9883 600.857 84.9235 602.059 84.9235Z" fill="#AEB48A"/>
<path d="M591.906 88.0855C593.286 88.0855 594.355 86.9721 594.355 85.6361C594.355 84.3 593.286 83.1422 591.906 83.1422V88.0855Z" fill="#E4E8CC"/>
<path d="M603.44 88.6199L598.63 98.5956C597.65 100.6 595.557 101.891 593.286 101.891H591.906V93.2515C591.906 91.5591 593.331 90.2231 595.067 90.2231H599.12V87.6847C599.12 86.4822 600.144 85.5025 601.391 85.5025C603.039 85.4579 604.152 87.1502 603.44 88.6199V88.6199Z" fill="#E4E8CC"/>
<path d="M607.047 101.847V90.3122H604.909C603.529 90.3122 602.282 91.1138 601.703 92.3162L599.476 96.9032C598.363 99.219 600.1 101.847 602.683 101.847H607.047Z" fill="#AEB48A"/>
<path d="M207.265 57.1308H207.243C206.751 56.3815 205.895 55.889 204.931 55.889H194.612C193.091 55.889 191.85 57.1308 191.85 58.6509C191.85 60.171 193.091 61.4128 194.612 61.4128H199.279H204.91H207.265C208.442 61.4128 209.406 60.4494 209.406 59.2718C209.406 58.0943 208.442 57.1308 207.265 57.1308Z" fill="#7C8F81"/>
<path d="M208.614 54.7329C208.528 54.6473 208.378 54.7543 208.442 54.8828C209.063 55.8462 207.864 57.3235 206.323 55.9319C205.787 55.0755 204.61 54.5616 203.432 54.5616C202.769 54.5616 201.291 54.5616 200.371 54.583C199.6 54.583 198.851 54.3047 198.337 53.7266C198.016 53.3627 197.802 52.913 197.887 52.3564C197.887 52.335 197.887 52.2922 197.866 52.2707C197.866 51.4572 197.373 51.1146 197.373 51.1146L197.352 51.5642C197.202 51.136 196.838 51.0718 196.838 51.0718L196.902 51.3501C196.902 51.3501 196.902 51.3501 196.881 51.3501C196.731 51.1146 196.517 51.0718 196.517 51.0718L196.581 51.2645C196.089 51.1788 195.575 51.3287 195.339 51.8211C195.082 52.1637 194.119 51.7783 193.798 51.7569C193.198 51.7141 193.819 52.7204 193.819 52.9559C193.883 53.3627 194.933 53.5768 195.232 53.748C195.875 54.005 196.024 54.8399 196.067 55.6963H196.046C196.046 55.6963 196.281 56.2958 194.847 56.9167C194.569 57.0452 193.905 57.2379 193.519 57.6233C193.177 57.9658 192.813 58.6295 193.113 58.9293C193.348 59.1648 193.669 58.7794 193.862 58.4368C194.076 58.0943 194.397 57.8373 194.783 57.7517C194.89 57.7303 194.997 57.7089 195.082 57.7303C196.945 58.0729 197.823 57.9016 198.23 57.5162H198.251C199.985 55.9319 199.878 58.0086 203.753 57.0452C205.167 56.6812 206.151 56.8953 206.665 57.088V57.0666V57.088C208.956 57.3663 209.449 55.5465 208.614 54.7329V54.7329Z" fill="#945544"/>
<path d="M196.731 51.971H196.281C195.832 51.971 195.554 52.4634 195.768 52.8488C196.239 53.7052 197.224 53.8765 197.224 53.8765C197.352 53.1272 197.309 52.8702 197.138 52.2708C197.095 52.0995 196.902 51.971 196.731 51.971Z" fill="#6E3F33"/>
<path d="M45.4393 164.018H63.4081C64.2316 164.018 64.9055 163.344 64.9055 162.52C64.9055 161.697 64.2316 161.023 63.4081 161.023H45.4393C44.6157 161.023 43.9419 161.697 43.9419 162.52C43.9419 163.344 44.6157 164.018 45.4393 164.018Z" fill="#BE7460"/>
<path d="M53.675 164.018H55.9211V187.228H53.675V164.018Z" fill="#B5C8CA"/>
<path d="M61.8358 164.018L66.7023 187.228H64.868L59.3276 164.018H61.8358Z" fill="#B5C8CA"/>
<path d="M62.5096 121.679C62.5096 121.604 62.4347 121.305 62.4347 121.305C61.9855 118.759 59.6271 116.925 56.9692 117.112C54.0867 117.299 51.9155 119.77 52.1401 122.577C52.215 123.626 52.5893 124.561 53.1883 125.31C53.6375 125.984 54.4236 127.332 54.4236 127.332V129.578H60.4132C60.4132 129.578 60.4881 128.005 61.1245 127.818C62.6593 127.332 62.6593 126.583 62.6593 125.086C62.547 124.15 63.3706 124.262 63.3332 123.7C63.2957 123.214 62.7342 122.727 62.5096 121.679V121.679Z" fill="#955646"/>
<path d="M62.2475 119.171C61.3117 117.149 58.1297 116.812 55.9585 117.112C54.3862 117.337 53.6375 118.422 52.8139 119.62C52.2898 120.406 51.4663 121.043 50.8673 121.941C50.4181 122.615 50.8673 123.102 51.2791 123.401C51.4288 123.513 51.4288 123.775 51.2791 123.888C50.9796 124.112 50.6053 124.487 50.7925 124.973C50.9422 125.31 51.2042 125.46 51.4663 125.535C51.8406 125.61 52.1401 125.947 52.215 126.358C52.2898 126.92 52.5893 127.407 53.6001 127.332C53.8247 127.332 53.7872 127.594 54.0119 128.155C54.199 128.642 55.0226 128.567 55.397 128.53C55.8087 128.492 56.3703 127.481 55.7713 127.294C57.6056 127.818 56.7446 125.385 57.3061 125.235C58.4292 124.936 58.242 124.187 58.242 124.187C58.242 124.187 58.9158 124.374 58.9907 125.123C59.0656 125.647 59.2153 125.984 59.4399 126.209C59.8143 126.62 60.4881 126.321 60.4881 125.759C60.4881 124.487 60.4881 122.166 60.4881 120.743C60.4881 120.406 60.7501 120.144 61.0496 120.107C61.2742 120.069 61.5737 120.032 61.7983 120.032C62.2475 119.92 62.6219 119.807 62.2475 119.171V119.171Z" fill="#0D2135"/>
<path d="M65.6541 151.29V147.547C65.6541 147.547 67.3012 149.006 69.3976 148.295L73.8898 146.049L73.1411 142.306H68.6489L64.9054 133.321C64.9054 133.321 64.1567 131.075 60.4132 131.075L52.9262 130.326C49.1827 130.326 46.9366 131.824 46.1879 134.819L44.6906 153.536H64.1567C64.1567 153.536 65.6541 152.787 65.6541 151.29Z" fill="#F4BA64"/>
<path d="M59.178 176.521L62.6594 178.243C61.9482 179.853 61.162 181.987 61.162 181.987L57.718 180.414L58.1672 178.992" fill="#B9AF9F"/>
<path d="M62.0979 186.217L56.6698 182.324C55.8837 181.762 55.7339 180.602 56.3703 179.853L58.0923 177.869C60.1138 179.291 59.1779 180.751 61.761 180.564C61.8733 183.671 63.0337 184.12 63.483 185.206C63.8199 186.03 62.8091 186.741 62.0979 186.217V186.217Z" fill="#211F1C"/>
<path d="M57.4185 153.536H64.1568C69.4726 154.846 75.4247 162.408 72.6171 167.237L64.7183 180.414L58.0923 176.184L66.0285 163.119L55.8837 160.836C49.8941 160.873 50.6802 153.536 50.6802 153.536H57.4185Z" fill="#86704D"/>
<path d="M51.0545 176.895L52.9263 174.5L55.9211 176.746C55.2098 178.355 53.675 181.987 53.675 181.987L51.0171 177.008" fill="#D6CEC2"/>
<path d="M54.4237 153.536L61.424 154.247C66.59 155.558 69.0607 161.884 66.2906 166.751L57.8677 179.89L51.6535 176.147L59.3277 163.344L50.7176 161.061C44.2788 159.376 44.728 153.574 44.728 153.574H54.4237V153.536Z" fill="#987F59"/>
<path d="M53.675 131.075H60.4133V129.578H53.675C53.2632 129.578 52.9263 129.915 52.9263 130.326C52.9263 130.738 53.2632 131.075 53.675 131.075Z" fill="#0D2135"/>
<path d="M59.8143 144.177L55.1724 146.049V142.306L60.5256 141.669C60.6379 141.632 60.7502 141.632 60.8625 141.669L61.9855 141.819C62.1353 141.856 62.285 141.931 62.3599 142.044L64.0819 144.552C64.1567 144.664 64.1567 144.776 64.0819 144.889C63.9696 145.001 63.7824 145.001 63.6701 144.889L61.9855 143.279L62.0604 143.915C62.0978 144.29 61.8358 144.627 61.424 144.664L60.3384 144.739C60.0763 144.701 59.8143 144.477 59.8143 144.177V144.177Z" fill="#955646"/>
<path d="M67.0018 147.097L70.4833 135.268H87.5162L84.0347 147.097H67.0018Z" fill="#0A2036"/>
<path d="M86.9172 135.717L83.6978 146.648H67.6007L70.8202 135.717H86.9172ZM88.1151 134.819H70.1463L66.4028 147.547H84.3716L88.1151 134.819Z" fill="#0D2135"/>
<path d="M55.1724 146.798H84.3716V147.546H55.1724V146.798Z" fill="#0A2036"/>
<path d="M84.3716 146.798H55.1724V147.546H84.3716V146.798Z" fill="#0D2135"/>
<path d="M92.1207 146.124L91.5966 145.974L96.8001 130.364L87.1418 116.251L87.5911 115.951L97.399 130.289L92.1207 146.124Z" fill="#778B8C"/>
<path d="M87.3665 146.049V147.547H97.8482V146.049C94.7786 146.049 93.356 143.803 93.356 143.803H91.8586C91.8586 143.803 90.4361 146.049 87.3665 146.049Z" fill="#F38D70"/>
<path d="M97.0995 131.075C97.513 131.075 97.8482 130.74 97.8482 130.326C97.8482 129.913 97.513 129.578 97.0995 129.578C96.686 129.578 96.3508 129.913 96.3508 130.326C96.3508 130.74 96.686 131.075 97.0995 131.075Z" fill="#778B8C"/>
<path d="M80.6282 120.032L85.1204 123.888L87.4413 121.267C88.0403 120.593 88.2649 119.77 88.1526 118.946C88.0777 118.385 88.2275 117.823 88.6018 117.411L89.9869 115.839L88.0777 114.192L86.6926 115.764C86.3183 116.176 85.7942 116.401 85.2327 116.401C84.4091 116.401 83.5855 116.738 83.024 117.411L80.6282 120.032Z" fill="#F38D70"/>
<path d="M96.3508 151.29H79.243H53.5252H36.4549L32.2247 187.228H33.4601L37.0538 158.066C37.6154 154.884 38.8133 153.536 42.145 153.536H53.5626H79.2804H90.6981C94.0298 153.536 95.2277 154.884 95.7892 158.066L99.3456 187.228H100.581L96.3508 151.29Z" fill="#B5C8CA"/>
<path d="M97.8481 147.547H34.9575C34.1339 147.547 33.4601 148.22 33.4601 149.044C33.4601 149.867 34.1339 150.541 34.9575 150.541H36.4549V151.29H96.3507V150.541H97.8481C98.6717 150.541 99.3455 149.867 99.3455 149.044C99.3455 148.22 98.6717 147.547 97.8481 147.547Z" fill="#7389A0"/>
<path d="M54.9978 185.268L49.5697 181.375C48.7836 180.813 48.6338 179.653 49.2702 178.904L50.9922 176.92C53.0137 178.343 52.0778 179.803 54.6609 179.615C54.7732 182.723 55.9336 183.172 56.3829 184.257C56.7198 185.081 55.709 185.792 54.9978 185.268V185.268Z" fill="#211F1C"/>
<path d="M121.223 156.802H121.005L121.027 153.256H121.136V153.365H121.245L121.223 156.802Z" fill="#23292F"/>
<path d="M129.881 156.802H129.664L129.685 153.256H129.794V153.365H129.903L129.881 156.802Z" fill="#23292F"/>
<path d="M129.664 153.539C129.664 151.211 127.771 149.319 125.443 149.319C123.116 149.319 121.223 151.211 121.223 153.539H121.005C121.005 151.081 123.007 149.101 125.443 149.101C127.88 149.101 129.881 151.102 129.881 153.539H129.664Z" fill="#23292F"/>
<path d="M131.578 155.127H119.222V167.07H131.578V155.127Z" fill="#83941F"/>
<path d="M128.293 161.174H128.076L128.097 158.912H128.206V159.021H128.315L128.293 161.174Z" fill="#23292F"/>
<path d="M133.732 161.174H133.514V158.912H133.623V159.021H133.732V161.174Z" fill="#23292F"/>
<path d="M133.514 159.13C133.514 157.694 132.339 156.519 130.904 156.519C129.468 156.519 128.293 157.694 128.293 159.13H128.076C128.076 157.563 129.337 156.302 130.904 156.302C132.47 156.302 133.732 157.563 133.732 159.13H133.514Z" fill="#23292F"/>
<path d="M134.906 159.434H126.857V167.07H134.906V159.434Z" fill="#5F6C16"/>
<path d="M119.222 160.152H123.442" stroke="#C6D957" stroke-miterlimit="10"/>
<path d="M119.222 161.784H123.442" stroke="#C6D957" stroke-miterlimit="10"/>
<path d="M131.078 162.24H126.857V162.458H131.078V162.24Z" fill="#A6BA32"/>
<path d="M131.078 163.872H126.857V164.09H131.078V163.872Z" fill="#A6BA32"/>
<path d="M93.9788 49.0439H100.525V61.3724H93.9788V49.0439Z" fill="#104952"/>
<path d="M104.162 61.3724H97.6155V52.6079H104.162V61.3724Z" fill="#8F5849"/>
<path d="M104.162 59.8814H97.6155V54.8263H104.162V59.8814Z" fill="#684337"/>
<path d="M99.0702 57.0083H102.707V55.5536H99.0702" fill="#8F5849"/>
<path d="M111.144 55.3355C111.289 51.1896 110.017 49.735 110.017 49.735" stroke="#61382D" stroke-width="2" stroke-miterlimit="10" stroke-linecap="round"/>
<path d="M110.889 51.9169C110.708 51.2987 111.399 50.4986 111.399 50.4986" stroke="#61382D" stroke-width="2" stroke-miterlimit="10" stroke-linecap="round"/>
<path d="M114.381 58.063C114.381 60.4632 112.671 61.336 111.108 61.336C109.544 61.336 107.835 60.4996 107.835 58.063C107.835 55.6628 110.271 55.4809 110.271 52.7898H111.944C111.98 55.4809 114.381 55.6628 114.381 58.063V58.063Z" fill="#F0C59F"/>
<path d="M174.615 111.471C174.903 112.334 175.407 113.09 176.054 113.666C176.882 114.385 177.925 114.853 179.041 114.961C179.364 114.997 179.688 114.997 180.048 114.961C180.408 114.925 180.732 114.853 181.091 114.745C182.459 114.277 183.502 113.306 184.078 112.083C184.114 112.047 184.114 111.975 184.15 111.939C184.653 110.823 184.725 109.528 184.294 108.269C183.394 105.57 180.48 104.131 177.817 105.03C176.666 105.426 175.73 106.182 175.119 107.153C174.651 107.909 174.363 108.808 174.327 109.708V109.888C174.363 110.392 174.435 110.931 174.615 111.471V111.471Z" fill="#B07C6D"/>
<path d="M183.826 117.659C182.495 115.609 183.178 113.702 184.186 111.903L174.363 109.672C174.363 110.931 174.147 112.298 174.003 112.586C173.859 112.874 174.111 113.054 174.219 113.162C174.327 113.27 174.363 113.558 174.435 113.846C174.507 114.169 174.831 115.645 174.831 115.645C175.083 116.472 175.55 116.688 175.982 116.652C176.342 116.616 177.889 116.364 177.889 116.364L178.069 118.343L178.321 122.913L183.934 122.589L183.826 117.659V117.659Z" fill="#B07C6D"/>
<path d="M175.533 132.843L159.737 126.726L159.306 129.785L172.222 136.693H177.26L175.533 132.843Z" fill="#C0D1E2"/>
<path d="M175.119 118.955C173.967 119.386 173.068 120.358 172.78 121.545L170.154 131.404L176.99 133.85L177.565 121.257L175.119 118.955V118.955Z" fill="#C0D1E2"/>
<path d="M183.466 116.976L182.495 118.415C181.379 120.07 178.897 119.854 178.069 118.055L175.119 118.955C175.766 124.927 174.075 128.957 174.219 133.275V136.693H187.82L185.553 130.108C184.689 127.338 184.401 124.388 184.761 121.509L185.229 117.516L183.466 116.976V116.976Z" fill="#C0D1E2"/>
<path d="M185.229 117.516C185.229 117.516 185.985 117.731 187.892 118.559C191.31 120.106 191.85 129.461 191.85 129.461L185.841 131.044C183.394 125.287 184.618 120.25 185.229 117.516V117.516Z" fill="#C0D1E2"/>
<path d="M178.537 111.399L178.897 115.573C178.897 116.4 178.645 117.156 177.602 117.516C176.558 117.875 174.075 117.767 174.255 115.788C174.363 114.529 174.471 113.702 174.471 113.702C176.27 113.774 176.882 114.673 176.882 114.673C177.889 113.81 178.069 111.867 178.033 111.399L177.925 110.427L178.825 110.751L178.537 111.399V111.399Z" fill="black"/>
<path d="M178.537 123.668H175.982V124.819H178.537V123.668Z" fill="#FFDFD6"/>
<path d="M178.321 110.787L174.651 110.643L174.687 109.924H174.507L174.435 112.155H174.615L174.651 110.823L178.321 110.967V110.787Z" fill="#23292F"/>
<path d="M178.537 111.399C177.35 111.399 177.314 110.571 177.314 110.571L177.206 111.291C176.342 110.715 176.306 108.808 176.306 108.808C175.946 109.348 175.874 109.78 175.874 109.78C175.047 108.664 175.515 107.657 175.515 107.657C174.291 108.125 174.003 109.456 174.003 109.456C173.14 107.801 174.975 105.786 174.975 105.786C174.363 106.398 173.536 106.829 173.536 106.829C174.615 104.491 177.493 102.62 179.832 103.987C182.171 105.39 183.286 105.318 184.258 107.045C185.229 108.772 184.761 111.075 184.078 112.083C183.394 113.126 183.214 114.925 183.214 114.925C181.271 114.349 180.912 112.73 180.983 111.183L178.537 111.399V111.399Z" fill="black"/>
<path d="M179.688 119.53L178.501 120.754L176.234 118.523L177.961 117.695L179.688 119.53Z" fill="#FFEFEA"/>
<path d="M183.322 116.76L185.265 117.444L180.3 120.826L179.4 119.351L183.322 116.76Z" fill="#FFEFEA"/>
<path d="M181.055 112.694C181.671 112.694 182.171 112.13 182.171 111.435C182.171 110.739 181.671 110.176 181.055 110.176C180.439 110.176 179.94 110.739 179.94 111.435C179.94 112.13 180.439 112.694 181.055 112.694Z" fill="#B07C6D"/>
<path d="M198.794 114.637V112.406H194.692V114.637H196.635V117.767C186.309 117.947 178.033 126.367 178.033 136.729H198.016V117.731V114.601H198.794V114.637Z" fill="#65684E"/>
<path d="M158.676 128.058H158.316V124.927H158.496V125.107H158.676V128.058Z" fill="#23292F"/>
<path d="M166.088 128.058H165.728V124.927H165.908V125.107H166.088V128.058Z" fill="#23292F"/>
<path d="M165.728 125.251C165.728 123.308 164.145 121.725 162.202 121.725C160.259 121.725 158.676 123.308 158.676 125.251H158.316C158.316 123.092 160.043 121.365 162.202 121.365C164.361 121.365 166.088 123.092 166.088 125.251H165.728Z" fill="#23292F"/>
<path d="M167.563 126.475H156.985V136.693H167.563V126.475Z" fill="#A6BA32"/>
<path d="M162.274 130.144H156.949V130.504H162.274V130.144Z" fill="white"/>
<path d="M162.274 132.843H156.949V133.203H162.274V132.843Z" fill="white"/>
<path d="M424.293 68.6019C428.286 68.6019 431.523 65.3652 431.523 61.3725C431.523 57.3798 428.286 54.1431 424.293 54.1431C420.301 54.1431 417.064 57.3798 417.064 61.3725C417.064 65.3652 420.301 68.6019 424.293 68.6019Z" fill="#DE9885"/>
<path d="M423.401 67.8624C427.478 67.8624 430.782 64.5579 430.782 60.4815C430.782 56.4052 427.478 53.1006 423.401 53.1006C419.325 53.1006 416.021 56.4052 416.021 60.4815C416.021 64.5579 419.325 67.8624 423.401 67.8624Z" fill="#F0EAE3"/>
<path d="M423.401 53.2537C424.831 53.2534 426.229 53.6772 427.418 54.4715C428.607 55.2657 429.534 56.3948 430.081 57.7158C430.628 59.0369 430.772 60.4906 430.493 61.8931C430.214 63.2956 429.525 64.5839 428.514 65.5951C427.503 66.6062 426.215 67.2948 424.812 67.5737C423.41 67.8526 421.956 67.7092 420.635 67.1619C419.314 66.6145 418.185 65.6877 417.391 64.4986C416.596 63.3095 416.173 61.9116 416.173 60.4816C416.173 58.5647 416.934 56.7262 418.29 55.3707C419.645 54.0152 421.484 53.2537 423.401 53.2537V53.2537ZM423.401 52.9507C421.911 52.9507 420.455 53.3925 419.216 54.2203C417.977 55.048 417.012 56.2245 416.442 57.601C415.872 58.9774 415.722 60.492 416.013 61.9532C416.304 63.4144 417.022 64.7565 418.075 65.8099C419.129 66.8632 420.471 67.5805 421.932 67.871C423.393 68.1614 424.908 68.012 426.284 67.4417C427.661 66.8713 428.837 65.9057 429.664 64.6668C430.492 63.4279 430.933 61.9714 430.933 60.4816C430.931 58.4848 430.136 56.5704 428.724 55.1586C427.312 53.7468 425.398 52.9527 423.401 52.9507V52.9507Z" fill="#0D2135"/>
<path d="M423.397 60.8528C423.602 60.8528 423.769 60.6866 423.769 60.4816C423.769 60.2766 423.602 60.1105 423.397 60.1105C423.192 60.1105 423.026 60.2766 423.026 60.4816C423.026 60.6866 423.192 60.8528 423.397 60.8528Z" fill="#0D2135"/>
<path d="M423.403 60.4815L419.683 64.484" stroke="#0D2135" stroke-width="0.318403" stroke-miterlimit="10"/>
<path d="M423.401 60.4815L420.326 57.1562" stroke="#0D2135" stroke-width="0.318403" stroke-miterlimit="10"/>
<path d="M423.631 54.5356C423.739 54.5356 423.827 54.4481 423.827 54.3401C423.827 54.2321 423.739 54.1445 423.631 54.1445C423.523 54.1445 423.436 54.2321 423.436 54.3401C423.436 54.4481 423.523 54.5356 423.631 54.5356Z" stroke="#0D2135" stroke-width="0.318403" stroke-miterlimit="10"/>
<path d="M420.525 55.243C420.633 55.243 420.72 55.1554 420.72 55.0474C420.72 54.9394 420.633 54.8519 420.525 54.8519C420.417 54.8519 420.329 54.9394 420.329 55.0474C420.329 55.1554 420.417 55.243 420.525 55.243Z" stroke="#0D2135" stroke-width="0.318403" stroke-miterlimit="10"/>
<path d="M418.196 57.4079C418.304 57.4079 418.392 57.3204 418.392 57.2124C418.392 57.1044 418.304 57.0168 418.196 57.0168C418.088 57.0168 418 57.1044 418 57.2124C418 57.3204 418.088 57.4079 418.196 57.4079Z" stroke="#0D2135" stroke-width="0.318403" stroke-miterlimit="10"/>
<path d="M417.259 60.4484C417.367 60.4484 417.455 60.3608 417.455 60.2528C417.455 60.1448 417.367 60.0573 417.259 60.0573C417.151 60.0573 417.064 60.1448 417.064 60.2528C417.064 60.3608 417.151 60.4484 417.259 60.4484Z" stroke="#0D2135" stroke-width="0.318403" stroke-miterlimit="10"/>
<path d="M417.971 63.5496C418.079 63.5496 418.167 63.4621 418.167 63.3541C418.167 63.2461 418.079 63.1585 417.971 63.1585C417.863 63.1585 417.776 63.2461 417.776 63.3541C417.776 63.4621 417.863 63.5496 417.971 63.5496Z" stroke="#0D2135" stroke-width="0.318403" stroke-miterlimit="10"/>
<path d="M420.129 65.8811C420.237 65.8811 420.325 65.7935 420.325 65.6855C420.325 65.5775 420.237 65.49 420.129 65.49C420.021 65.49 419.934 65.5775 419.934 65.6855C419.934 65.7935 420.021 65.8811 420.129 65.8811Z" stroke="#0D2135" stroke-width="0.318403" stroke-miterlimit="10"/>
<path d="M423.172 66.8187C423.28 66.8187 423.367 66.7312 423.367 66.6232C423.367 66.5152 423.28 66.4276 423.172 66.4276C423.064 66.4276 422.976 66.5152 422.976 66.6232C422.976 66.7312 423.064 66.8187 423.172 66.8187Z" stroke="#0D2135" stroke-width="0.318403" stroke-miterlimit="10"/>
<path d="M426.273 66.1099C426.381 66.1099 426.468 66.0224 426.468 65.9144C426.468 65.8064 426.381 65.7188 426.273 65.7188C426.165 65.7188 426.077 65.8064 426.077 65.9144C426.077 66.0224 426.165 66.1099 426.273 66.1099Z" stroke="#0D2135" stroke-width="0.318403" stroke-miterlimit="10"/>
<path d="M428.605 63.9466C428.713 63.9466 428.801 63.8591 428.801 63.7511C428.801 63.6431 428.713 63.5555 428.605 63.5555C428.497 63.5555 428.41 63.6431 428.41 63.7511C428.41 63.8591 428.497 63.9466 428.605 63.9466Z" stroke="#0D2135" stroke-width="0.318403" stroke-miterlimit="10"/>
<path d="M429.542 60.906C429.65 60.906 429.737 60.8185 429.737 60.7105C429.737 60.6025 429.65 60.5149 429.542 60.5149C429.434 60.5149 429.346 60.6025 429.346 60.7105C429.346 60.8185 429.434 60.906 429.542 60.906Z" stroke="#0D2135" stroke-width="0.318403" stroke-miterlimit="10"/>
<path d="M428.833 57.8033C428.941 57.8033 429.029 57.7157 429.029 57.6077C429.029 57.4997 428.941 57.4122 428.833 57.4122C428.725 57.4122 428.638 57.4997 428.638 57.6077C428.638 57.7157 428.725 57.8033 428.833 57.8033Z" stroke="#0D2135" stroke-width="0.318403" stroke-miterlimit="10"/>
<path d="M426.672 55.4717C426.78 55.4717 426.868 55.3841 426.868 55.2761C426.868 55.1681 426.78 55.0806 426.672 55.0806C426.564 55.0806 426.477 55.1681 426.477 55.2761C426.477 55.3841 426.564 55.4717 426.672 55.4717Z" stroke="#0D2135" stroke-width="0.318403" stroke-miterlimit="10"/>
<path d="M446.465 68.6018C450.458 68.6018 453.694 65.365 453.694 61.3724C453.694 57.3797 450.458 54.143 446.465 54.143C442.472 54.143 439.236 57.3797 439.236 61.3724C439.236 65.365 442.472 68.6018 446.465 68.6018Z" fill="#DE9885"/>
<path d="M450.786 65.7004C453.669 62.818 453.669 58.1446 450.786 55.2622C447.904 52.3798 443.23 52.3798 440.348 55.2622C437.466 58.1447 437.466 62.8179 440.348 65.7004C443.23 68.5828 447.904 68.5828 450.786 65.7004Z" fill="#F0EAE3"/>
<path d="M445.571 53.2539C447.001 53.2536 448.399 53.6774 449.588 54.4717C450.777 55.2659 451.704 56.395 452.251 57.716C452.798 59.0371 452.942 60.4908 452.663 61.8933C452.384 63.2958 451.695 64.5841 450.684 65.5953C449.673 66.6064 448.385 67.2949 446.982 67.5738C445.58 67.8527 444.126 67.7094 442.805 67.1621C441.484 66.6147 440.355 65.6879 439.561 64.4988C438.766 63.3097 438.343 61.9118 438.343 60.4818C438.343 58.5648 439.104 56.7264 440.46 55.3709C441.815 54.0154 443.654 53.2539 445.571 53.2539V53.2539ZM445.571 52.9509C444.081 52.9509 442.624 53.3927 441.386 54.2204C440.147 55.0482 439.182 56.2247 438.612 57.6011C438.041 58.9776 437.892 60.4922 438.183 61.9534C438.474 63.4145 439.191 64.7567 440.245 65.81C441.299 66.8634 442.641 67.5807 444.102 67.8711C445.563 68.1616 447.078 68.0122 448.454 67.4419C449.831 66.8715 451.007 65.9059 451.834 64.667C452.662 63.4281 453.103 61.9716 453.103 60.4818C453.101 58.485 452.306 56.5706 450.894 55.1588C449.482 53.747 447.568 52.9529 445.571 52.9509V52.9509Z" fill="#0D2135"/>
<path d="M445.567 60.8528C445.772 60.8528 445.939 60.6866 445.939 60.4816C445.939 60.2766 445.772 60.1105 445.567 60.1105C445.362 60.1105 445.196 60.2766 445.196 60.4816C445.196 60.6866 445.362 60.8528 445.567 60.8528Z" fill="#0D2135"/>
<path d="M445.57 60.4817L441.328 58.894" stroke="#0D2135" stroke-width="0.318403" stroke-miterlimit="10"/>
<path d="M445.8 54.5356C445.908 54.5356 445.995 54.4481 445.995 54.3401C445.995 54.2321 445.908 54.1445 445.8 54.1445C445.692 54.1445 445.604 54.2321 445.604 54.3401C445.604 54.4481 445.692 54.5356 445.8 54.5356Z" stroke="#0D2135" stroke-width="0.318403" stroke-miterlimit="10"/>
<path d="M442.695 55.243C442.803 55.243 442.89 55.1554 442.89 55.0474C442.89 54.9394 442.803 54.8519 442.695 54.8519C442.587 54.8519 442.499 54.9394 442.499 55.0474C442.499 55.1554 442.587 55.243 442.695 55.243Z" stroke="#0D2135" stroke-width="0.318403" stroke-miterlimit="10"/>
<path d="M440.364 57.4079C440.472 57.4079 440.56 57.3204 440.56 57.2124C440.56 57.1044 440.472 57.0168 440.364 57.0168C440.256 57.0168 440.169 57.1044 440.169 57.2124C440.169 57.3204 440.256 57.4079 440.364 57.4079Z" stroke="#0D2135" stroke-width="0.318403" stroke-miterlimit="10"/>
<path d="M439.431 60.4485C439.539 60.4485 439.627 60.3609 439.627 60.253C439.627 60.145 439.539 60.0574 439.431 60.0574C439.323 60.0574 439.236 60.145 439.236 60.253C439.236 60.3609 439.323 60.4485 439.431 60.4485Z" stroke="#0D2135" stroke-width="0.318403" stroke-miterlimit="10"/>
<path d="M440.141 63.5496C440.249 63.5496 440.337 63.4621 440.337 63.3541C440.337 63.2461 440.249 63.1585 440.141 63.1585C440.033 63.1585 439.946 63.2461 439.946 63.3541C439.946 63.4621 440.033 63.5496 440.141 63.5496Z" stroke="#0D2135" stroke-width="0.318403" stroke-miterlimit="10"/>
<path d="M442.299 65.8811C442.407 65.8811 442.495 65.7935 442.495 65.6855C442.495 65.5775 442.407 65.49 442.299 65.49C442.191 65.49 442.104 65.5775 442.104 65.6855C442.104 65.7935 442.191 65.8811 442.299 65.8811Z" stroke="#0D2135" stroke-width="0.318403" stroke-miterlimit="10"/>
<path d="M445.342 66.8187C445.45 66.8187 445.537 66.7312 445.537 66.6232C445.537 66.5152 445.45 66.4276 445.342 66.4276C445.234 66.4276 445.146 66.5152 445.146 66.6232C445.146 66.7312 445.234 66.8187 445.342 66.8187Z" stroke="#0D2135" stroke-width="0.318403" stroke-miterlimit="10"/>
<path d="M448.441 66.1099C448.549 66.1099 448.637 66.0224 448.637 65.9144C448.637 65.8064 448.549 65.7188 448.441 65.7188C448.333 65.7188 448.246 65.8064 448.246 65.9144C448.246 66.0224 448.333 66.1099 448.441 66.1099Z" stroke="#0D2135" stroke-width="0.318403" stroke-miterlimit="10"/>
<path d="M450.772 63.9466C450.88 63.9466 450.967 63.8591 450.967 63.7511C450.967 63.6431 450.88 63.5555 450.772 63.5555C450.664 63.5555 450.576 63.6431 450.576 63.7511C450.576 63.8591 450.664 63.9466 450.772 63.9466Z" stroke="#0D2135" stroke-width="0.318403" stroke-miterlimit="10"/>
<path d="M451.71 60.9061C451.818 60.9061 451.906 60.8186 451.906 60.7106C451.906 60.6026 451.818 60.515 451.71 60.515C451.602 60.515 451.514 60.6026 451.514 60.7106C451.514 60.8186 451.602 60.9061 451.71 60.9061Z" stroke="#0D2135" stroke-width="0.318403" stroke-miterlimit="10"/>
<path d="M451.003 57.8033C451.111 57.8033 451.199 57.7157 451.199 57.6077C451.199 57.4997 451.111 57.4122 451.003 57.4122C450.895 57.4122 450.808 57.4997 450.808 57.6077C450.808 57.7157 450.895 57.8033 451.003 57.8033Z" stroke="#0D2135" stroke-width="0.318403" stroke-miterlimit="10"/>
<path d="M448.839 55.4717C448.947 55.4717 449.034 55.3841 449.034 55.2761C449.034 55.1681 448.947 55.0806 448.839 55.0806C448.731 55.0806 448.643 55.1681 448.643 55.2761C448.643 55.3841 448.731 55.4717 448.839 55.4717Z" stroke="#0D2135" stroke-width="0.318403" stroke-miterlimit="10"/>
<path d="M445.536 60.4666L441.817 64.4692" stroke="#0D2135" stroke-width="0.318403" stroke-miterlimit="10"/>
<path d="M468.63 68.6018C472.622 68.6018 475.859 65.365 475.859 61.3724C475.859 57.3797 472.622 54.143 468.63 54.143C464.637 54.143 461.4 57.3797 461.4 61.3724C461.4 65.365 464.637 68.6018 468.63 68.6018Z" fill="#DE9885"/>
<path d="M472.956 65.7003C475.838 62.8179 475.839 58.1446 472.956 55.2622C470.074 52.3798 465.4 52.3798 462.518 55.2622C459.636 58.1446 459.635 62.8179 462.518 65.7004C465.4 68.5828 470.074 68.5828 472.956 65.7003Z" fill="#F0EAE3"/>
<path d="M467.737 53.2537C469.167 53.2534 470.565 53.6772 471.754 54.4715C472.943 55.2657 473.87 56.3948 474.418 57.7158C474.965 59.0369 475.108 60.4906 474.829 61.8931C474.55 63.2956 473.862 64.5839 472.851 65.5951C471.839 66.6062 470.551 67.2948 469.149 67.5737C467.746 67.8526 466.292 67.7092 464.971 67.1619C463.65 66.6145 462.521 65.6877 461.727 64.4986C460.933 63.3095 460.509 61.9116 460.509 60.4816C460.509 58.5647 461.271 56.7262 462.626 55.3707C463.982 54.0152 465.82 53.2537 467.737 53.2537V53.2537ZM467.737 52.9507C466.247 52.9507 464.791 53.3925 463.552 54.2203C462.314 55.048 461.348 56.2245 460.778 57.601C460.208 58.9774 460.059 60.492 460.35 61.9532C460.64 63.4144 461.358 64.7565 462.412 65.8099C463.465 66.8632 464.807 67.5805 466.269 67.871C467.73 68.1614 469.244 68.012 470.621 67.4417C471.997 66.8713 473.173 65.9057 474.001 64.6668C474.828 63.4279 475.27 61.9714 475.27 60.4816C475.267 58.4848 474.473 56.5704 473.061 55.1586C471.649 53.7468 469.734 52.9527 467.737 52.9507V52.9507Z" fill="#0D2135"/>
<path d="M467.741 60.8527C467.946 60.8527 468.112 60.6866 468.112 60.4816C468.112 60.2766 467.946 60.1104 467.741 60.1104C467.536 60.1104 467.369 60.2766 467.369 60.4816C467.369 60.6866 467.536 60.8527 467.741 60.8527Z" fill="#0D2135"/>
<path d="M467.742 60.4816L463.847 64.3145" stroke="#0D2135" stroke-width="0.318403" stroke-miterlimit="10"/>
<path d="M467.736 60.4817L471.29 57.6729" stroke="#0D2135" stroke-width="0.318403" stroke-miterlimit="10"/>
<path d="M467.964 54.5356C468.072 54.5356 468.16 54.4481 468.16 54.3401C468.16 54.2321 468.072 54.1445 467.964 54.1445C467.856 54.1445 467.769 54.2321 467.769 54.3401C467.769 54.4481 467.856 54.5356 467.964 54.5356Z" stroke="#0D2135" stroke-width="0.318403" stroke-miterlimit="10"/>
<path d="M464.861 55.243C464.969 55.243 465.057 55.1554 465.057 55.0474C465.057 54.9394 464.969 54.8519 464.861 54.8519C464.753 54.8519 464.666 54.9394 464.666 55.0474C464.666 55.1554 464.753 55.243 464.861 55.243Z" stroke="#0D2135" stroke-width="0.318403" stroke-miterlimit="10"/>
<path d="M462.534 57.4079C462.642 57.4079 462.73 57.3204 462.73 57.2124C462.73 57.1044 462.642 57.0168 462.534 57.0168C462.426 57.0168 462.339 57.1044 462.339 57.2124C462.339 57.3204 462.426 57.4079 462.534 57.4079Z" stroke="#0D2135" stroke-width="0.318403" stroke-miterlimit="10"/>
<path d="M461.596 60.4485C461.704 60.4485 461.791 60.3609 461.791 60.253C461.791 60.145 461.704 60.0574 461.596 60.0574C461.488 60.0574 461.4 60.145 461.4 60.253C461.4 60.3609 461.488 60.4485 461.596 60.4485Z" stroke="#0D2135" stroke-width="0.318403" stroke-miterlimit="10"/>
<path d="M462.306 63.5496C462.414 63.5496 462.501 63.4621 462.501 63.3541C462.501 63.2461 462.414 63.1585 462.306 63.1585C462.198 63.1585 462.11 63.2461 462.11 63.3541C462.11 63.4621 462.198 63.5496 462.306 63.5496Z" stroke="#0D2135" stroke-width="0.318403" stroke-miterlimit="10"/>
<path d="M464.469 65.8811C464.577 65.8811 464.665 65.7935 464.665 65.6855C464.665 65.5775 464.577 65.49 464.469 65.49C464.361 65.49 464.273 65.5775 464.273 65.6855C464.273 65.7935 464.361 65.8811 464.469 65.8811Z" stroke="#0D2135" stroke-width="0.318403" stroke-miterlimit="10"/>
<path d="M467.51 66.8187C467.618 66.8187 467.705 66.7312 467.705 66.6232C467.705 66.5152 467.618 66.4276 467.51 66.4276C467.402 66.4276 467.314 66.5152 467.314 66.6232C467.314 66.7312 467.402 66.8187 467.51 66.8187Z" stroke="#0D2135" stroke-width="0.318403" stroke-miterlimit="10"/>
<path d="M470.613 66.1099C470.721 66.1099 470.808 66.0224 470.808 65.9144C470.808 65.8064 470.721 65.7188 470.613 65.7188C470.505 65.7188 470.417 65.8064 470.417 65.9144C470.417 66.0224 470.505 66.1099 470.613 66.1099Z" stroke="#0D2135" stroke-width="0.318403" stroke-miterlimit="10"/>
<path d="M472.942 63.9465C473.05 63.9465 473.137 63.859 473.137 63.751C473.137 63.643 473.05 63.5555 472.942 63.5555C472.834 63.5555 472.746 63.643 472.746 63.751C472.746 63.859 472.834 63.9465 472.942 63.9465Z" stroke="#0D2135" stroke-width="0.318403" stroke-miterlimit="10"/>
<path d="M473.875 60.9061C473.983 60.9061 474.07 60.8186 474.07 60.7106C474.07 60.6026 473.983 60.515 473.875 60.515C473.767 60.515 473.679 60.6026 473.679 60.7106C473.679 60.8186 473.767 60.9061 473.875 60.9061Z" stroke="#0D2135" stroke-width="0.318403" stroke-miterlimit="10"/>
<path d="M473.173 57.8033C473.281 57.8033 473.369 57.7157 473.369 57.6077C473.369 57.4997 473.281 57.4122 473.173 57.4122C473.065 57.4122 472.978 57.4997 472.978 57.6077C472.978 57.7157 473.065 57.8033 473.173 57.8033Z" stroke="#0D2135" stroke-width="0.318403" stroke-miterlimit="10"/>
<path d="M471.009 55.4717C471.117 55.4717 471.204 55.3841 471.204 55.2761C471.204 55.1681 471.117 55.0806 471.009 55.0806C470.901 55.0806 470.813 55.1681 470.813 55.2761C470.813 55.3841 470.901 55.4717 471.009 55.4717Z" stroke="#0D2135" stroke-width="0.318403" stroke-miterlimit="10"/>
<path d="M335.616 148.708C335.616 172.468 317.976 189.388 292.056 189.388C264.516 189.388 249.576 173.188 249.576 151.588V146.008H272.976V149.968C272.976 159.868 278.016 169.768 291.876 169.768C304.836 169.768 311.316 160.768 311.316 149.068C311.316 141.017 333.049 146.008 335.616 148.708Z" fill="#004182"/>
<path d="M226.869 123.523L226.55 123.601L229.541 135.797L229.86 135.719L226.869 123.523Z" fill="#262A10"/>
<path d="M228.04 122.994L227.712 123.019L228.709 135.801L229.037 135.775L228.04 122.994Z" fill="#262A10"/>
<path d="M230.361 123.735L227.262 135.937L227.58 136.018L230.679 123.815L230.361 123.735Z" fill="#262A10"/>
<path d="M226.86 130.68H230.279C231.002 130.68 231.594 131.272 231.594 131.995V135.414C231.594 136.137 231.002 136.729 230.279 136.729H226.86C226.137 136.729 225.545 136.137 225.545 135.414V131.995C225.545 131.272 226.137 130.68 226.86 130.68Z" fill="#E09A33"/>
<path d="M229.72 129.628H227.419V130.68H229.72V129.628Z" fill="#E09A33"/>
<path d="M324.543 132.225L323.405 131.707C321.955 130.637 321.334 130.913 320.886 130.741C320.61 130.637 320.127 130.43 319.816 130.292C319.402 130.12 319.126 130.741 319.505 130.913L320.403 131.362C320.886 131.707 320.368 132.052 319.989 132.156C319.505 132.259 318.919 132.225 318.091 131.983C318.091 131.983 317.435 131.742 317.366 132.156C317.125 132.087 316.917 131.914 316.745 132.121C316.572 132.328 316.779 132.501 316.986 132.604C316.917 132.777 316.986 132.984 317.159 133.053C319.54 134.053 321.783 133.881 322.68 133.777C322.956 133.743 323.232 133.812 323.474 133.95L326.027 135.434L327.166 133.191L324.543 132.225Z" fill="#684337"/>
<path d="M338.312 116.904C338.312 116.835 338.312 116.731 338.312 116.662C338.588 114.178 340.865 112.28 343.522 112.625C345.524 112.901 347.145 114.523 347.421 116.49C347.594 117.663 347.318 118.767 346.731 119.664C346.145 120.561 346.697 119.699 346.697 119.699V119.733C345.8 121.079 345.593 122.563 345.558 123.46C345.524 123.909 345.8 124.357 346.214 124.53C346.559 124.668 347.042 125.013 347.042 125.013L340.555 135.227L340.037 124.633C340.037 124.633 341.003 124.047 341.003 123.805C341.038 123.011 340.624 122.39 339.899 122.149C338.381 121.631 338.312 121.562 338.346 120.078C338.415 119.25 337.76 119.354 337.76 118.871C337.725 118.422 338.208 117.904 338.312 116.904" fill="#684337"/>
<path fill-rule="evenodd" clip-rule="evenodd" d="M338.656 178.532L342.383 178.567C342.383 178.567 341.969 178.774 342.728 182.708C343.177 185.089 342.556 187.263 342.556 187.263H340.52C340.52 187.263 340.899 185.986 341.003 185.365C341.037 185.123 340.83 184.536 340.244 185.399C339.347 186.745 338.656 187.228 338.656 187.228H334.274C334.274 187.228 334.274 186.848 334.309 186.469C334.378 186.02 335.068 185.813 335.171 185.779C336.552 185.192 337 185.02 338.173 182.501C339.174 180.292 338.656 178.532 338.656 178.532V178.532Z" fill="#E06F55"/>
<path fill-rule="evenodd" clip-rule="evenodd" d="M347.042 179.913L350.768 179.947C350.768 179.947 350.354 180.154 351.114 184.088C351.562 186.469 350.941 188.643 350.941 188.643H348.905C348.905 188.643 349.285 187.366 349.388 186.745C349.423 186.503 349.216 185.917 348.629 186.779C347.732 188.125 347.042 188.608 347.042 188.608H342.659C342.659 188.608 342.659 188.229 342.694 187.849C342.763 187.401 343.453 187.193 343.557 187.159C344.937 186.572 345.385 186.4 346.559 183.881C347.525 181.672 347.042 179.913 347.042 179.913V179.913Z" fill="#E06F55"/>
<path fill-rule="evenodd" clip-rule="evenodd" d="M345.696 148.615L342.625 181.741C342.625 181.741 340.348 181.741 338.933 181.707C338.381 181.707 337.967 181.293 337.932 180.741C337.656 175.53 335.827 148.615 335.827 148.615H346.421H345.696Z" fill="#523A51"/>
<path fill-rule="evenodd" clip-rule="evenodd" d="M340.52 148.615L342.797 157.242C342.797 157.242 345.592 178.601 345.869 182.259C345.903 182.742 346.317 183.156 346.8 183.156H350.872L353.978 148.719L340.52 148.615Z" fill="#523A51"/>
<path fill-rule="evenodd" clip-rule="evenodd" d="M341.969 134.122L340.313 124.461C340.313 124.357 338.967 124.875 338.898 124.909C336.828 125.979 335.378 127.773 334.309 129.844C333.584 131.189 332.618 132.949 332.135 133.812C331.997 134.088 331.617 134.191 331.307 134.053C329.926 133.26 326.2 131.189 326.2 131.189L323.439 135.744L330.479 139.575C331.307 140.023 332.825 140.817 333.688 140.161C334.447 139.644 335.068 138.781 335.551 138.056C336.034 137.366 336.414 136.918 336.828 136.193C337.311 137.504 337.725 138.608 337.725 139.989C337.725 142.68 336.276 143.439 335.862 145.717C335.655 146.89 335.724 149.305 335.724 149.305H342.211V148.96L341.969 134.122Z" fill="#C48686"/>
<path fill-rule="evenodd" clip-rule="evenodd" d="M340.313 124.461L342.556 134.122H341.176C341.176 134.122 338.726 130.672 338.38 127.911C338.242 126.911 338.45 126.117 338.691 125.599C338.898 125.116 339.312 124.737 339.83 124.599C340.106 124.495 340.313 124.461 340.313 124.461V124.461Z" fill="#D09793"/>
<path d="M346.006 124.461L340.485 134.122V149.305H353.322C353.322 149.305 353.736 145.268 351.527 142.611C349.906 140.679 349.975 140.472 349.837 139.471C349.664 137.987 350.906 136.227 350.906 136.227C350.906 136.227 352.218 137.47 352.218 138.263V141.024V147.235H357.048V139.057C357.048 138.47 356.945 137.884 356.738 137.297C356.048 135.399 354.288 130.879 352.77 128.256C351.838 126.6 349.975 125.461 348.698 125.116C346.075 124.426 346.006 124.461 346.006 124.461V124.461Z" fill="#D09793"/>
<path fill-rule="evenodd" clip-rule="evenodd" d="M342.211 137.573C342.797 137.573 343.246 138.022 343.246 138.608C343.246 139.195 342.797 139.644 342.211 139.644C341.624 139.644 341.176 139.195 341.176 138.608C341.176 138.022 341.624 137.573 342.211 137.573Z" fill="#E5BDBD"/>
<path fill-rule="evenodd" clip-rule="evenodd" d="M342.211 141.714C342.797 141.714 343.246 142.163 343.246 142.749C343.246 143.336 342.797 143.784 342.211 143.784C341.624 143.784 341.176 143.336 341.176 142.749C341.176 142.163 341.624 141.714 342.211 141.714Z" fill="#E5BDBD"/>
<path fill-rule="evenodd" clip-rule="evenodd" d="M340.485 132.742L346.006 124.461C346.006 124.461 347.628 124.357 346.973 127.014C346.42 129.292 345.213 130.637 343.315 132.328C341.521 133.881 340.485 134.122 340.485 134.122V132.742Z" fill="#E5BDBD"/>
<path fill-rule="evenodd" clip-rule="evenodd" d="M357.049 149.305H344.626V157.587H357.049V149.305Z" fill="#FCE2BA"/>
<path fill-rule="evenodd" clip-rule="evenodd" d="M347.594 116.352C347.352 115.662 347.835 115.351 347.214 114.488C346.524 113.522 346.214 113.971 345.04 112.797C343.971 111.762 342.728 112.59 341.521 112.694C341.107 112.728 340.693 112.659 340.278 112.728C339.519 112.797 338.415 113.729 338.795 114.592C338.933 114.937 340.071 114.868 340.071 114.868C340.071 114.868 340.209 115.523 340.693 115.903C340.934 116.11 341.21 116.145 341.486 116.179C341.659 116.214 341.9 116.283 341.969 116.455C342.038 116.662 341.866 116.904 342.004 117.111C342.245 117.49 342.556 117.352 342.59 117.628C342.625 118.146 343.074 118.664 343.246 117.87C343.557 116.973 344.868 117.145 345.282 117.835C345.523 118.25 345.42 118.733 345.282 119.147C345.144 119.561 344.971 119.871 345.454 120.147C345.696 120.285 345.454 120.699 345.489 121.114C345.523 121.528 345.8 121.907 345.8 121.907C345.8 121.907 347.111 119.733 347.525 118.94C348.111 117.732 347.939 117.456 347.594 116.352V116.352Z" fill="#D39B71"/>
<path d="M344.488 119.975C344.488 120.458 344.109 120.837 343.626 120.837C343.143 120.837 342.763 120.458 342.763 119.975C342.763 119.492 343.143 119.112 343.626 119.112" stroke="#F8C77E" stroke-miterlimit="10" stroke-linecap="round" stroke-linejoin="round"/>
<path d="M352.39 147.235L352.149 147.58C351.976 147.856 351.7 147.891 351.459 148.236C351.251 148.546 350.837 149.271 350.837 149.271H351.528L351.873 149.754L351.113 151.548C351.044 151.686 351.113 151.859 351.251 151.928C351.355 151.962 351.493 151.962 351.597 151.859L352.39 150.824L352.632 150.927C352.804 151.031 353.011 150.996 353.184 150.893L353.701 150.548C353.701 150.548 354.116 150.72 354.426 150.375L354.944 149.857C355.22 149.581 355.358 149.167 355.289 148.753L355.047 147.166H352.39V147.235Z" fill="#684337"/>
<path d="M272.357 125.158C272.17 125.046 271.871 125.27 271.871 125.27C271.047 125.869 270.523 126.019 269.961 126.019L269.999 126.244L272.282 126.019L272.357 125.158Z" fill="#DE9885"/>
<path d="M266.592 127.516L267.229 126.693C268.09 125.383 268.689 125.457 268.988 125.158C269.175 124.971 269.512 124.671 269.737 124.447C269.849 124.334 270.036 124.334 270.149 124.447C270.261 124.559 270.299 124.746 270.149 124.858L269.55 125.495C269.4 125.682 269.475 125.944 269.7 125.982C271.047 126.169 272.095 125.345 272.47 125.046C272.545 124.971 272.657 124.971 272.732 125.008C272.844 125.083 272.882 125.233 272.807 125.345L272.694 125.495C272.807 125.607 272.807 125.794 272.694 125.907C271.085 127.441 269.288 128.078 268.502 128.228C268.277 128.265 268.052 128.415 267.865 128.602L267.641 128.864L267.566 128.976L262.699 134.629C261.426 136.126 259.293 136.576 257.496 135.789L256.186 135.228L258.769 130.811L260.303 131.559L266.518 127.554L266.592 127.516Z" fill="#935F38"/>
<path d="M235.783 181.46C235.783 181.46 243.196 186.177 243.196 185.016C243.196 184.268 241.361 182.733 241.661 180.936C241.81 178.316 248.698 173.561 252.929 167.796H245.442L237.992 178.428L237.805 178.652L235.783 181.46Z" fill="#935F38"/>
<path d="M235.708 182.022L243.944 187.225C244.805 185.728 243.645 184.867 242.746 184.118C241.399 184.268 239.789 182.583 239.153 181.273C238.591 180.075 238.516 179.551 237.767 178.69C235.783 179.663 235.708 182.022 235.708 182.022V182.022Z" fill="#0D2135"/>
<path d="M251.431 185.765L257.421 186.514C257.421 185.765 256.822 185.466 256.822 185.466C256.822 185.466 254.913 185.016 254.089 183.332C252.704 181.086 255.699 174.872 255.886 167.796H249.896V182.022C249.896 182.284 249.597 183.594 249.597 183.594L251.431 185.765Z" fill="#A96C3F"/>
<path d="M262.474 147.844C262.325 145.335 261.95 143.351 261.726 141.629C261.127 138.223 260.453 135.864 260.865 132.345C261.202 129.426 260.565 127.666 259.742 126.318C259.03 125.195 258.02 123.062 257.458 122.126H249.971C249.971 122.126 246.303 125.607 247.725 131.11C248.399 133.731 246.078 141.817 245.479 144.587C244.88 147.357 243.046 158.25 245.479 167.796H261.95C261.913 167.796 262.886 155.405 262.474 147.844V147.844Z" fill="#B0C2B3"/>
<path d="M249.185 187.262H259.667C259.667 185.765 257.982 185.615 256.822 185.466C256.56 186.701 253.453 185.503 252.068 184.417C251.543 184.006 250.645 183.519 249.634 183.594C248.511 185.503 249.185 187.262 249.185 187.262Z" fill="#0D2135"/>
<path d="M260.79 113.104C260.79 112.505 260.678 111.906 260.491 111.344C259.854 109.622 258.282 108.312 256.298 108.088C253.49 107.751 250.982 109.735 250.645 112.505C250.533 113.516 250.72 114.489 251.132 115.35C252.592 118.195 253.49 119.094 250.683 121.789L250.72 122.126H257.458C257.458 122.126 256.635 119.281 258.394 118.906C260.116 118.532 260.228 118.495 260.378 116.847C260.416 115.949 261.127 116.136 261.202 115.612C261.202 115.088 260.678 114.414 260.79 113.104V113.104Z" fill="#A96C3F"/>
<path d="M259.854 115.013C259.742 115.013 259.667 114.938 259.667 114.826V113.329C259.667 113.216 259.742 113.141 259.854 113.141C259.966 113.141 260.041 113.216 260.041 113.329V114.826C260.041 114.938 259.966 115.013 259.854 115.013Z" fill="#0D2135"/>
<path d="M267.154 137.1H264.908V132.608H268.651V135.602C268.651 136.426 267.977 137.1 267.154 137.1Z" fill="#95ABC1"/>
<path d="M267.865 138.747C267.341 139.009 266.181 138.859 265.657 139.159L256.522 141.33C253.528 141.742 252.517 140.881 252.217 137.848L251.469 130.399H257.159V137.137H264.908C265.619 136.725 266.031 136.239 266.181 135.939C266.368 135.602 266.705 135.34 267.117 135.34L266.892 135.939C267.379 136.126 267.978 136.014 268.464 135.939L268.651 135.677C269.026 135.789 268.876 136.239 268.651 136.501C268.689 136.65 268.651 136.838 268.577 136.987C268.427 137.175 268.577 137.437 268.502 137.624C268.352 137.774 268.352 137.961 268.352 138.148C268.314 138.372 268.09 138.597 267.865 138.747V138.747Z" fill="#A96C3F"/>
<path d="M257.046 113.89H259.667V114.264H257.046V113.89Z" fill="#0D2135"/>
<path d="M252.517 122.163H248.923L250.271 129.538C250.346 130.024 250.795 130.399 251.281 130.399H257.159V126.805C257.159 124.26 255.062 122.163 252.517 122.163Z" fill="#D6E5D8"/>
<path d="M256.298 107.938C253.49 107.601 250.533 109.173 250.121 113.216C249.784 116.548 244.618 118.794 246.789 122.575C247.014 123.211 244.656 124.559 244.656 127.329C244.656 130.324 247.65 131.073 247.65 131.073V127.367C247.65 127.367 252.442 124.372 252.966 122.088C253.116 121.452 253.34 120.89 253.827 120.441C254.501 119.767 254.726 118.906 254.763 118.045C254.8 116.773 254.463 115.462 254.201 114.601C253.715 112.954 254.913 112.43 255.699 112.43C257.234 112.468 257.009 114.227 257.009 114.227C257.009 114.227 257.496 113.965 257.683 113.778C258.506 112.879 257.458 111.906 258.918 111.681C258.843 112.842 258.506 113.104 258.506 113.104C259.629 112.992 259.854 111.943 260.041 111.195C260.154 110.82 260.079 110.446 259.854 110.109C259.068 108.874 258.02 108.162 256.298 107.938V107.938Z" fill="black"/>
<path d="M409.376 109.029L408.828 109.413L410.377 111.625L410.926 111.241L409.376 109.029Z" fill="#7389A0"/>
<path d="M413.238 168.377L391.62 133.492L409.938 113.929L411.15 116.861C411.15 116.861 408.385 118.799 410.323 121.547L420.267 114.598C418.342 111.817 415.581 113.755 415.581 113.755L410.982 109.551L408.77 111.101L409.657 113.26L389.415 134.868L413.238 172.903V185.889H414.577V168.485L413.238 168.377ZM390.255 134.951L391.148 134.011L413.238 169.649V171.657L390.255 134.951Z" fill="#95ABC1"/>
<path d="M423.948 185.889L414.577 184.55H413.238L403.867 185.889V187.227H423.948V185.889Z" fill="#95ABC1"/>
<path d="M393.156 173.17V187.228H395.164L396.503 173.84L393.156 173.17Z" fill="#13707E"/>
<path d="M458.757 173.17V187.228H456.748L455.41 173.84L458.757 173.17Z" fill="#13707E"/>
<path d="M399.85 136.354H452.063C453.128 136.354 454.15 136.777 454.903 137.53C455.656 138.283 456.079 139.305 456.079 140.37V167.815H395.834V140.37C395.834 139.305 396.257 138.283 397.01 137.53C397.764 136.777 398.785 136.354 399.85 136.354V136.354Z" fill="#E09A33"/>
<path d="M467.459 153.089V165.419C467.459 166.525 467.242 167.62 466.819 168.642C466.396 169.664 465.776 170.592 464.993 171.374C464.211 172.156 463.283 172.777 462.261 173.2C461.239 173.623 460.144 173.84 459.038 173.84H392.875C391.769 173.84 390.674 173.623 389.652 173.2C388.63 172.777 387.702 172.156 386.92 171.374C386.138 170.592 385.517 169.664 385.094 168.642C384.671 167.62 384.454 166.525 384.454 165.419V153.089C384.454 151.241 386.463 146.395 391.148 146.395C392.924 146.395 394.626 147.1 395.882 148.355C397.137 149.611 397.842 151.313 397.842 153.089V161.791H454.071V153.089C454.071 151.313 454.776 149.611 456.032 148.355C457.287 147.1 458.99 146.395 460.765 146.395C465.451 146.395 467.459 151.241 467.459 153.089Z" fill="#BD7813"/>
<path d="M429.578 134.426C427.587 135.032 426.589 137.331 426.589 137.331L423.523 147.988C424.528 153.072 423.975 154.621 426.974 155.194C429.973 155.766 431.047 137.656 429.578 134.426Z" fill="#F1F4F7"/>
<path d="M437.708 180.199C437.49 181.554 436.841 184.644 436.704 185.36C436.566 186.076 436.914 187.228 438.712 187.228H443.173C444.355 187.228 444.991 186.036 443.608 184.804C442.226 183.573 442.096 181.123 442.089 180.644L437.708 180.199Z" fill="#7A92D3"/>
<path d="M432.175 180.731C432.302 181.896 432.844 184.644 432.988 185.36C433.132 186.076 432.774 187.228 430.98 187.228H426.509C425.327 187.228 424.688 186.036 426.07 184.804C427.452 183.573 427.586 181.123 427.59 180.644L432.175 180.731Z" fill="#7A92D3"/>
<path d="M431.392 121.379C430.309 121.772 429.42 122.57 428.914 123.606C428.408 124.641 428.325 125.833 428.681 126.929V126.929C428.968 127.71 429.01 128.56 428.802 129.365C428.781 129.64 428.996 129.72 429.223 129.754C429.451 129.787 429.699 129.8 429.826 130.068L430.642 131.768C430.716 131.93 430.832 132.069 430.978 132.169C431.124 132.269 431.295 132.327 431.472 132.337H432.651V133.007C432.744 134.011 434.752 138.482 435.817 138.208C437.316 137.826 438.575 132.719 438.575 132.719C436.767 130.323 436.901 128.368 437.182 126.775L431.392 121.379Z" fill="#A96C3F"/>
<path d="M444.736 155.187C443.92 155.843 442.894 156.18 441.848 156.134C439.666 156.014 430.214 155.405 427.63 155.237L429.578 134.426L432.65 133.676V133.007H434.658L435.997 137.693V132.337H438.675C439.344 133.676 441.995 133.803 441.995 133.803C442.481 133.811 442.965 133.872 443.438 133.984L444.736 155.187Z" fill="white"/>
<path d="M423.974 138.025L423.422 138.404L425.892 142.003L426.444 141.624L423.974 138.025Z" fill="#E7EEF5"/>
<path d="M422.61 143.717V141.709C422.61 141.039 424.072 139.721 424.952 140.37L426.291 141.401L425.716 140.564C425.716 140.564 427.212 140.899 426.904 141.87L428.102 142.797C428.184 142.858 428.24 142.948 428.258 143.049C428.276 143.151 428.254 143.255 428.198 143.34C428.141 143.426 428.054 143.487 427.954 143.51C427.854 143.534 427.749 143.518 427.66 143.466L422.61 143.717Z" fill="#A96C3F"/>
<path d="M420.602 143.048H434.659C434.836 143.048 435.007 143.118 435.132 143.244C435.258 143.369 435.328 143.539 435.328 143.717V151.08H419.932V143.717C419.932 143.539 420.003 143.369 420.128 143.244C420.254 143.118 420.424 143.048 420.602 143.048Z" fill="#104952"/>
<path d="M438.006 123.635V124.974C438.006 126.313 437.715 127.578 437.336 127.986C436.958 128.395 437.028 128.703 437.336 128.99C436.667 128.99 435.639 127.374 435.268 126.313C435.196 126.064 435.03 125.852 434.805 125.722C434.58 125.592 434.314 125.555 434.062 125.617C433.81 125.679 433.592 125.837 433.454 126.056C433.315 126.276 433.267 126.541 433.32 126.795C432.945 126.299 432.236 126.922 431.794 126.125C432.095 126.842 431.359 127.371 432.102 127.732C431.882 127.785 431.652 127.759 431.45 127.657C431.249 127.555 431.091 127.385 431.004 127.176C430.877 127.016 430.669 127.043 430.482 127.063C430.413 127.081 430.341 127.083 430.272 127.07C430.202 127.056 430.137 127.027 430.08 126.985C430.023 126.942 429.977 126.887 429.944 126.824C429.912 126.761 429.894 126.692 429.893 126.621C429.899 126.523 429.886 126.425 429.854 126.332C429.822 126.24 429.771 126.154 429.706 126.081C429.64 126.008 429.561 125.949 429.472 125.907C429.384 125.866 429.288 125.842 429.19 125.838C428.748 125.811 428.547 125.376 428.46 125.235C428.42 126.299 428.815 126.909 428.855 127.658C428.681 127.223 428.226 127.009 427.63 126.795C427.034 126.581 427.088 125.911 427.362 125.523C427.637 125.135 427.362 124.693 427.148 124.338C427.105 124.238 427.083 124.131 427.082 124.022C427.081 123.913 427.103 123.805 427.144 123.704C427.186 123.604 427.248 123.513 427.326 123.437C427.403 123.36 427.495 123.3 427.597 123.26C428.025 123.06 428.045 122.765 428.045 122.23C428.045 121.5 428.875 121.339 429.176 121.299C429.338 121.276 429.491 121.214 429.622 121.117C429.753 121.02 429.857 120.891 429.926 120.744C431.151 118.983 433.916 119.739 434.665 120.074C435.415 120.409 438.006 121.627 438.006 123.635Z" fill="#1C2024"/>
<path d="M438.675 150.411H433.989C433.812 150.411 433.641 150.34 433.516 150.215C433.39 150.089 433.32 149.919 433.32 149.742V148.403C433.35 148.159 433.298 147.912 433.173 147.7C432.801 147.295 433.129 146.616 433.989 147.064C433.989 147.064 434.933 147.519 435.328 147.733V147.064C435.997 147.064 436.961 148.704 437.37 149.106L438.675 150.411Z" fill="#A96C3F"/>
<path d="M446.811 138.452C446.57 135.955 445.61 134.526 443.438 133.984C442.725 134.749 442.173 135.649 441.815 136.631C441.457 137.613 441.299 138.657 441.352 139.701L442.022 150.411L437.54 152.289L439.699 155.418L444.72 155.197C447.789 153.089 448.033 150.846 447.759 148.092L446.811 138.452Z" fill="#F1F4F7"/>
<path d="M434.545 155.632C432.711 155.515 431.004 154.551 429.166 154.538C427.329 154.524 425.401 155.117 424.21 156.512C422.824 158.136 422.683 160.479 422.928 162.601L425.217 182.348C429.568 183.138 432.363 181.2 432.363 181.2L430.642 161.791H439.345L437.45 180.828C440.724 182.281 444.234 181.554 444.234 181.554L446.959 163.083C447.869 157.573 445.808 154.836 442.608 154.538C439.408 154.24 437.336 155.813 434.545 155.632Z" fill="#104952"/>
<path d="M415.768 165.82L420.601 187.228H419.263L413.74 165.82H415.768Z" fill="#281D0E"/>
<path d="M391.299 165.814L386.462 187.228H387.801L393.327 165.814H391.299Z" fill="#281D0E"/>
<path d="M399.181 154.427V155.766H398.512V157.105H397.173V155.766H396.503V154.427H399.181Z" fill="#104952"/>
<path d="M452.063 161.791H450.724L445.841 152.72L447.377 153.089L452.063 161.791Z" fill="#13707E"/>
<path d="M415.916 161.791H417.254L422.138 152.72L420.601 153.089L415.916 161.791Z" fill="#13707E"/>
<path d="M387.132 164.468H419.932V165.666C419.932 165.881 419.847 166.087 419.695 166.239C419.543 166.391 419.337 166.476 419.122 166.476H387.942C387.727 166.476 387.521 166.391 387.369 166.239C387.217 166.087 387.132 165.881 387.132 165.666V164.468Z" fill="#5D3B09"/>
<path d="M451.393 150.411H417.254V153.089H451.393V150.411Z" fill="#96DBE2"/>
<path d="M413.205 160.371C413.226 160.176 413.237 159.979 413.238 159.782H406.544C406.544 162.46 408.552 164.468 408.552 164.468H411.23C411.387 164.305 411.534 164.133 411.672 163.953C414.015 163.283 414.878 161.991 414.865 161.275C414.858 160.177 413.62 160.224 413.205 160.371ZM413.077 162.654C412.819 162.799 412.553 162.931 412.281 163.049C412.621 162.474 412.88 161.854 413.051 161.208V161.208C413.506 160.914 413.847 160.9 414.015 160.987C414.466 161.255 413.907 162.186 413.077 162.654V162.654Z" fill="#E4EFF1"/>
<path d="M397.842 157.774C394.89 157.774 392.487 156.121 392.487 154.093C392.487 152.064 394.89 150.411 397.842 150.411C400.794 150.411 403.197 152.064 403.197 154.093C403.197 156.121 400.794 157.774 397.842 157.774ZM397.842 151.08C395.258 151.08 393.156 152.419 393.156 154.093C393.156 155.766 395.258 157.105 397.842 157.105C400.426 157.105 402.528 155.766 402.528 154.093C402.528 152.419 400.426 151.08 397.842 151.08Z" fill="#104952"/>
<path d="M405.897 157.105L402.142 163.183L402.121 163.223C401.893 163.688 401.585 164.109 401.211 164.468H394.517C391.84 161.791 394.517 159.782 394.517 157.714V156.435H401.211V157.714C401.251 158.334 401.41 158.941 401.68 159.501L404.558 157.105H405.897Z" fill="#13707E"/>
</svg>
