<svg width="1080" height="374" viewBox="0 0 1080 374" fill="none" xmlns="http://www.w3.org/2000/svg">
<rect width="1080" height="336" fill="white"/>
<rect x="522.29" y="54.2903" width="356.419" height="77.4195" rx="38.7097" fill="#FCE2BA" stroke="white" stroke-width="2.58051"/>
<rect x="522.29" y="134.29" width="356.419" height="77.4195" rx="38.7097" fill="#DCE6F1" stroke="white" stroke-width="2.58051"/>
<rect x="522.29" y="214.29" width="356.419" height="77.4195" rx="38.7097" fill="#D7EBCE" stroke="white" stroke-width="2.58051"/>
<path d="M552.2 154H562.16V155.12H557.8V168H556.56V155.12H552.2V154ZM568.661 168V166.28C568.101 167.42 566.821 168.24 565.281 168.24C562.781 168.24 560.861 166.3 560.861 163.6C560.861 160.94 562.781 158.98 565.261 158.98C566.801 158.98 568.121 159.82 568.681 160.96V159.22H569.861V168H568.661ZM565.381 160.02C563.421 160.02 562.061 161.6 562.061 163.6C562.061 165.62 563.421 167.2 565.381 167.2C567.341 167.2 568.701 165.62 568.701 163.6C568.701 161.6 567.341 160.02 565.381 160.02ZM576.281 159.14V160.26C576.141 160.24 575.981 160.22 575.681 160.22C574.521 160.22 573.301 161.02 573.301 163.22V168H572.141V159.22H573.261V160.88C573.621 159.96 574.381 159.1 575.641 159.1C575.941 159.1 576.121 159.12 576.281 159.14ZM584.477 159.22H585.657V167.8C585.657 170.52 583.477 171.66 581.137 171.66C579.897 171.66 578.657 171.4 577.637 170.86L577.697 169.66C578.617 170.2 579.837 170.6 581.097 170.6C582.937 170.6 584.477 169.76 584.477 167.56V166.26C583.917 167.4 582.617 168.22 581.097 168.22C578.597 168.22 576.677 166.3 576.677 163.6C576.677 160.92 578.597 158.98 581.077 158.98C582.617 158.98 583.937 159.82 584.477 160.96V159.22ZM581.177 160.02C579.237 160.02 577.857 161.58 577.857 163.6C577.857 165.62 579.237 167.2 581.177 167.2C583.137 167.2 584.497 165.62 584.497 163.6C584.497 161.58 583.137 160.02 581.177 160.02ZM594.978 165.44L595.978 165.94C595.038 167.6 593.518 168.24 591.858 168.24C589.258 168.24 587.398 166.3 587.398 163.62C587.398 160.94 589.358 158.98 591.858 158.98C594.198 158.98 596.278 160.64 596.278 163.92V163.98H588.618C588.758 165.8 590.038 167.18 591.878 167.18C593.118 167.18 594.198 166.72 594.978 165.44ZM591.858 160.02C590.098 160.02 588.838 161.32 588.638 163.04H595.018C594.858 161.34 593.618 160.02 591.858 160.02ZM598.3 155.54H599.5V159.22H601.66V160.22H599.5V166.16C599.5 166.86 599.86 167.12 600.5 167.12C600.88 167.12 601.38 167.02 601.66 166.92V167.94C601.34 168.02 600.74 168.14 600.28 168.14C599.02 168.14 598.3 167.54 598.3 166.34V160.22H596.82V159.22H598.3V155.54ZM609.743 169.68C609.303 170.82 608.523 171.62 607.023 171.62C606.643 171.62 606.183 171.56 605.743 171.44V170.38C606.163 170.52 606.543 170.6 606.963 170.6C607.943 170.6 608.363 170.06 608.723 169.18L609.203 168.06L605.683 159.22H606.983L609.823 166.62L612.683 159.22H613.923L609.743 169.68ZM614.363 163.6C614.363 160.94 616.363 158.98 618.883 158.98C621.383 158.98 623.403 160.94 623.403 163.6C623.403 166.3 621.383 168.24 618.883 168.24C616.363 168.24 614.363 166.3 614.363 163.6ZM622.183 163.6C622.183 161.6 620.843 160.02 618.883 160.02C616.903 160.02 615.563 161.6 615.563 163.6C615.563 165.62 616.903 167.2 618.883 167.2C620.843 167.2 622.183 165.62 622.183 163.6ZM628.816 168.24C626.336 168.24 625.056 166.72 625.056 164.88V159.22H626.256V164.76C626.256 166.34 627.336 167.2 628.816 167.2C630.276 167.2 631.336 166.42 631.336 164.82V159.22H632.536V164.88C632.536 166.72 631.276 168.24 628.816 168.24ZM638.883 159.14V160.26C638.743 160.24 638.583 160.22 638.283 160.22C637.123 160.22 635.903 161.02 635.903 163.22V168H634.743V159.22H635.863V160.88C636.223 159.96 636.983 159.1 638.243 159.1C638.543 159.1 638.723 159.12 638.883 159.14ZM643.962 156.06C643.962 155.48 644.422 155.02 644.982 155.02C645.562 155.02 646.022 155.48 646.022 156.06C646.022 156.62 645.562 157.08 644.982 157.08C644.422 157.08 643.962 156.62 643.962 156.06ZM644.482 169.34V160.22H643.082V159.22H645.662V169.4C645.662 171.14 644.542 171.6 643.522 171.6C643.142 171.6 642.782 171.52 642.502 171.4V170.42C642.782 170.52 643.082 170.58 643.342 170.58C644.022 170.58 644.482 170.18 644.482 169.34ZM647.401 163.6C647.401 160.94 649.401 158.98 651.921 158.98C654.421 158.98 656.441 160.94 656.441 163.6C656.441 166.3 654.421 168.24 651.921 168.24C649.401 168.24 647.401 166.3 647.401 163.6ZM655.221 163.6C655.221 161.6 653.881 160.02 651.921 160.02C649.941 160.02 648.601 161.6 648.601 163.6C648.601 165.62 649.941 167.2 651.921 167.2C653.881 167.2 655.221 165.62 655.221 163.6ZM667.173 163.6C667.173 166.3 665.233 168.24 662.733 168.24C661.213 168.24 659.933 167.42 659.353 166.28V168H658.173V154H659.353V160.96C659.913 159.82 661.233 158.98 662.753 158.98C665.253 158.98 667.173 160.94 667.173 163.6ZM662.653 160.02C660.693 160.02 659.333 161.6 659.333 163.6C659.333 165.62 660.693 167.2 662.653 167.2C664.593 167.2 665.973 165.62 665.973 163.6C665.973 161.6 664.593 160.02 662.653 160.02ZM673.436 155.54H674.636V159.22H676.796V160.22H674.636V166.16C674.636 166.86 674.996 167.12 675.636 167.12C676.016 167.12 676.516 167.02 676.796 166.92V167.94C676.476 168.02 675.876 168.14 675.416 168.14C674.156 168.14 673.436 167.54 673.436 166.34V160.22H671.956V159.22H673.436V155.54ZM677.413 163.6C677.413 160.94 679.413 158.98 681.933 158.98C684.433 158.98 686.453 160.94 686.453 163.6C686.453 166.3 684.433 168.24 681.933 168.24C679.413 168.24 677.413 166.3 677.413 163.6ZM685.233 163.6C685.233 161.6 683.893 160.02 681.933 160.02C679.953 160.02 678.613 161.6 678.613 163.6C678.613 165.62 679.953 167.2 681.933 167.2C683.893 167.2 685.233 165.62 685.233 163.6ZM553.72 176.54H554.92V180.22H557.08V181.22H554.92V187.16C554.92 187.86 555.28 188.12 555.92 188.12C556.3 188.12 556.8 188.02 557.08 187.92V188.94C556.76 189.02 556.16 189.14 555.7 189.14C554.44 189.14 553.72 188.54 553.72 187.34V181.22H552.24V180.22H553.72V176.54ZM559.593 182.56V189H558.413V175H559.593V181.44C560.393 180.52 561.573 179.98 562.653 179.98C564.573 179.98 565.873 181.18 565.873 183.06V189H564.693V183.38C564.693 181.76 563.633 181.06 562.473 181.06C561.373 181.06 560.353 181.66 559.593 182.56ZM575.119 186.44L576.119 186.94C575.179 188.6 573.659 189.24 571.999 189.24C569.399 189.24 567.539 187.3 567.539 184.62C567.539 181.94 569.499 179.98 571.999 179.98C574.339 179.98 576.419 181.64 576.419 184.92V184.98H568.759C568.899 186.8 570.179 188.18 572.019 188.18C573.259 188.18 574.339 187.72 575.119 186.44ZM571.999 181.02C570.239 181.02 568.979 182.32 568.779 184.04H575.159C574.999 182.34 573.759 181.02 571.999 181.02ZM586.199 180.14V181.26C586.059 181.24 585.899 181.22 585.599 181.22C584.439 181.22 583.219 182.02 583.219 184.22V189H582.059V180.22H583.179V181.88C583.539 180.96 584.299 180.1 585.559 180.1C585.859 180.1 586.039 180.12 586.199 180.14ZM588.625 178.08C588.045 178.08 587.585 177.62 587.585 177.06C587.585 176.48 588.045 176.02 588.625 176.02C589.185 176.02 589.665 176.48 589.665 177.06C589.665 177.62 589.185 178.08 588.625 178.08ZM588.105 189V181.22H586.725V180.22H589.305V189H588.105ZM598.847 180.22H600.027V188.8C600.027 191.52 597.847 192.66 595.507 192.66C594.267 192.66 593.027 192.4 592.007 191.86L592.067 190.66C592.987 191.2 594.207 191.6 595.467 191.6C597.307 191.6 598.847 190.76 598.847 188.56V187.26C598.287 188.4 596.987 189.22 595.467 189.22C592.967 189.22 591.047 187.3 591.047 184.6C591.047 181.92 592.967 179.98 595.447 179.98C596.987 179.98 598.307 180.82 598.847 181.96V180.22ZM595.547 181.02C593.607 181.02 592.227 182.58 592.227 184.6C592.227 186.62 593.607 188.2 595.547 188.2C597.507 188.2 598.867 186.62 598.867 184.6C598.867 182.58 597.507 181.02 595.547 181.02ZM603.487 182.56V189H602.307V175H603.487V181.44C604.287 180.52 605.467 179.98 606.547 179.98C608.467 179.98 609.767 181.18 609.767 183.06V189H608.587V183.38C608.587 181.76 607.527 181.06 606.367 181.06C605.267 181.06 604.247 181.66 603.487 182.56ZM612.396 176.54H613.596V180.22H615.756V181.22H613.596V187.16C613.596 187.86 613.956 188.12 614.596 188.12C614.976 188.12 615.476 188.02 615.756 187.92V188.94C615.436 189.02 614.836 189.14 614.376 189.14C613.116 189.14 612.396 188.54 612.396 187.34V181.22H610.916V180.22H612.396V176.54ZM622.251 187.28V192.48H621.071V180.22H622.251V181.96C622.811 180.82 624.131 179.98 625.651 179.98C628.151 179.98 630.071 181.94 630.071 184.6C630.071 187.3 628.131 189.24 625.631 189.24C624.111 189.24 622.831 188.42 622.251 187.28ZM625.551 181.02C623.591 181.02 622.231 182.6 622.231 184.6C622.231 186.62 623.591 188.2 625.551 188.2C627.491 188.2 628.871 186.62 628.871 184.6C628.871 182.6 627.491 181.02 625.551 181.02ZM638.852 186.44L639.852 186.94C638.912 188.6 637.392 189.24 635.732 189.24C633.132 189.24 631.272 187.3 631.272 184.62C631.272 181.94 633.232 179.98 635.732 179.98C638.072 179.98 640.152 181.64 640.152 184.92V184.98H632.492C632.632 186.8 633.912 188.18 635.752 188.18C636.992 188.18 638.072 187.72 638.852 186.44ZM635.732 181.02C633.972 181.02 632.712 182.32 632.512 184.04H638.892C638.732 182.34 637.492 181.02 635.732 181.02ZM641.27 184.6C641.27 181.94 643.27 179.98 645.79 179.98C648.29 179.98 650.31 181.94 650.31 184.6C650.31 187.3 648.29 189.24 645.79 189.24C643.27 189.24 641.27 187.3 641.27 184.6ZM649.09 184.6C649.09 182.6 647.75 181.02 645.79 181.02C643.81 181.02 642.47 182.6 642.47 184.6C642.47 186.62 643.81 188.2 645.79 188.2C647.75 188.2 649.09 186.62 649.09 184.6ZM653.222 187.28V192.48H652.042V180.22H653.222V181.96C653.782 180.82 655.102 179.98 656.622 179.98C659.122 179.98 661.042 181.94 661.042 184.6C661.042 187.3 659.102 189.24 656.602 189.24C655.082 189.24 653.802 188.42 653.222 187.28ZM656.522 181.02C654.562 181.02 653.202 182.6 653.202 184.6C653.202 186.62 654.562 188.2 656.522 188.2C658.462 188.2 659.842 186.62 659.842 184.6C659.842 182.6 658.462 181.02 656.522 181.02ZM662.943 189V176H661.543V175H664.123V189H662.943ZM673.434 186.44L674.434 186.94C673.494 188.6 671.974 189.24 670.314 189.24C667.714 189.24 665.854 187.3 665.854 184.62C665.854 181.94 667.814 179.98 670.314 179.98C672.654 179.98 674.734 181.64 674.734 184.92V184.98H667.074C667.214 186.8 668.494 188.18 670.334 188.18C671.574 188.18 672.654 187.72 673.434 186.44ZM670.314 181.02C668.554 181.02 667.294 182.32 667.094 184.04H673.474C673.314 182.34 672.074 181.02 670.314 181.02Z" fill="#09223B"/>
<path d="M561.52 238.44C561.52 240.04 560.52 241.2 559.26 241.6V241.64C560.78 242.12 561.92 243.32 561.92 245.12C561.92 247.26 560.44 249 557.4 249H553.44V235H557.46C560.2 235 561.52 236.66 561.52 238.44ZM557.18 236.1H554.68V241.16H557.38C559.02 241.16 560.22 240.24 560.22 238.56C560.22 236.92 558.96 236.1 557.18 236.1ZM554.68 242.22V247.9H557.46C559.1 247.9 560.62 247.02 560.62 245.1C560.62 243.16 559.04 242.22 557.4 242.22H554.68ZM567.444 249.24C564.964 249.24 563.684 247.72 563.684 245.88V240.22H564.884V245.76C564.884 247.34 565.964 248.2 567.444 248.2C568.904 248.2 569.964 247.42 569.964 245.82V240.22H571.164V245.88C571.164 247.72 569.904 249.24 567.444 249.24ZM574.432 238.08C573.852 238.08 573.392 237.62 573.392 237.06C573.392 236.48 573.852 236.02 574.432 236.02C574.992 236.02 575.472 236.48 575.472 237.06C575.472 237.62 574.992 238.08 574.432 238.08ZM573.912 249V241.22H572.532V240.22H575.112V249H573.912ZM577.553 249V236H576.153V235H578.733V249H577.553ZM588.285 241.96V235H589.465V249H588.265V247.28C587.705 248.42 586.425 249.24 584.885 249.24C582.385 249.24 580.465 247.3 580.465 244.6C580.465 241.94 582.385 239.98 584.865 239.98C586.405 239.98 587.725 240.82 588.285 241.96ZM584.985 241.02C583.025 241.02 581.665 242.6 581.665 244.6C581.665 246.62 583.025 248.2 584.985 248.2C586.945 248.2 588.305 246.62 588.305 244.6C588.305 242.6 586.945 241.02 584.985 241.02ZM602.987 249V247.28C602.427 248.42 601.147 249.24 599.607 249.24C597.107 249.24 595.187 247.3 595.187 244.6C595.187 241.94 597.107 239.98 599.587 239.98C601.127 239.98 602.447 240.82 603.007 241.96V240.22H604.187V249H602.987ZM599.707 241.02C597.747 241.02 596.387 242.6 596.387 244.6C596.387 246.62 597.747 248.2 599.707 248.2C601.667 248.2 603.027 246.62 603.027 244.6C603.027 242.6 601.667 241.02 599.707 241.02ZM612.708 240.22L615.048 247.94L617.068 240.22H618.348L615.868 249H614.268L611.968 241.42L609.688 249H608.068L605.628 240.22H606.948L608.928 247.92L611.268 240.22H612.708ZM626.87 249V247.28C626.31 248.42 625.03 249.24 623.49 249.24C620.99 249.24 619.07 247.3 619.07 244.6C619.07 241.94 620.99 239.98 623.47 239.98C625.01 239.98 626.33 240.82 626.89 241.96V240.22H628.07V249H626.87ZM623.59 241.02C621.63 241.02 620.27 242.6 620.27 244.6C620.27 246.62 621.63 248.2 623.59 248.2C625.55 248.2 626.91 246.62 626.91 244.6C626.91 242.6 625.55 241.02 623.59 241.02ZM634.491 240.14V241.26C634.351 241.24 634.191 241.22 633.891 241.22C632.731 241.22 631.511 242.02 631.511 244.22V249H630.351V240.22H631.471V241.88C631.831 240.96 632.591 240.1 633.851 240.1C634.151 240.1 634.331 240.12 634.491 240.14ZM642.447 246.44L643.447 246.94C642.507 248.6 640.987 249.24 639.327 249.24C636.727 249.24 634.867 247.3 634.867 244.62C634.867 241.94 636.827 239.98 639.327 239.98C641.667 239.98 643.747 241.64 643.747 244.92V244.98H636.087C636.227 246.8 637.507 248.18 639.347 248.18C640.587 248.18 641.667 247.72 642.447 246.44ZM639.327 241.02C637.567 241.02 636.307 242.32 636.107 244.04H642.487C642.327 242.34 641.087 241.02 639.327 241.02ZM646.585 242.56V249H645.405V240.22H646.585V241.44C647.385 240.52 648.545 239.98 649.645 239.98C651.565 239.98 652.865 241.18 652.865 243.06V249H651.685V243.38C651.685 241.76 650.625 241.06 649.465 241.06C648.365 241.06 647.345 241.66 646.585 242.56ZM662.112 246.44L663.112 246.94C662.172 248.6 660.652 249.24 658.992 249.24C656.392 249.24 654.532 247.3 654.532 244.62C654.532 241.94 656.492 239.98 658.992 239.98C661.332 239.98 663.412 241.64 663.412 244.92V244.98H655.752C655.892 246.8 657.172 248.18 659.012 248.18C660.252 248.18 661.332 247.72 662.112 246.44ZM658.992 241.02C657.232 241.02 655.972 242.32 655.772 244.04H662.152C661.992 242.34 660.752 241.02 658.992 241.02ZM667.41 248.24C668.67 248.24 669.45 247.58 669.45 246.76C669.45 245.96 668.93 245.58 667.81 245.16L666.73 244.76C665.27 244.2 664.69 243.54 664.69 242.44C664.69 241.04 665.89 239.98 667.69 239.98C668.73 239.98 669.79 240.34 670.51 240.98L669.91 241.84C669.31 241.32 668.51 240.96 667.67 240.96C666.59 240.96 665.85 241.52 665.85 242.3C665.85 242.84 666.09 243.3 667.11 243.7L668.35 244.16C669.97 244.8 670.67 245.46 670.67 246.72C670.67 248 669.55 249.24 667.43 249.24C666.25 249.24 665.07 248.84 664.29 248.16L664.93 247.26C665.59 247.88 666.55 248.24 667.41 248.24ZM674.673 248.24C675.933 248.24 676.713 247.58 676.713 246.76C676.713 245.96 676.193 245.58 675.073 245.16L673.993 244.76C672.533 244.2 671.953 243.54 671.953 242.44C671.953 241.04 673.153 239.98 674.953 239.98C675.993 239.98 677.053 240.34 677.773 240.98L677.173 241.84C676.573 241.32 675.773 240.96 674.933 240.96C673.853 240.96 673.113 241.52 673.113 242.3C673.113 242.84 673.353 243.3 674.373 243.7L675.613 244.16C677.233 244.8 677.933 245.46 677.933 246.72C677.933 248 676.813 249.24 674.693 249.24C673.513 249.24 672.333 248.84 671.553 248.16L672.193 247.26C672.853 247.88 673.813 248.24 674.673 248.24ZM684.2 240.22V237C684.2 235.26 685.34 234.76 686.34 234.76C686.72 234.76 687.08 234.84 687.36 234.94V235.96C687.08 235.84 686.8 235.8 686.52 235.8C685.84 235.8 685.38 236.2 685.38 237.04V240.22H687.16V241.22H685.38V249H684.2V241.22H682.7V240.22H684.2ZM687.628 244.6C687.628 241.94 689.628 239.98 692.148 239.98C694.648 239.98 696.668 241.94 696.668 244.6C696.668 247.3 694.648 249.24 692.148 249.24C689.628 249.24 687.628 247.3 687.628 244.6ZM695.448 244.6C695.448 242.6 694.108 241.02 692.148 241.02C690.168 241.02 688.828 242.6 688.828 244.6C688.828 246.62 690.168 248.2 692.148 248.2C694.108 248.2 695.448 246.62 695.448 244.6ZM702.54 240.14V241.26C702.4 241.24 702.24 241.22 701.94 241.22C700.78 241.22 699.56 242.02 699.56 244.22V249H698.4V240.22H699.52V241.88C699.88 240.96 700.64 240.1 701.9 240.1C702.2 240.1 702.38 240.12 702.54 240.14ZM556.26 271.68C555.82 272.82 555.04 273.62 553.54 273.62C553.16 273.62 552.7 273.56 552.26 273.44V272.38C552.68 272.52 553.06 272.6 553.48 272.6C554.46 272.6 554.88 272.06 555.24 271.18L555.72 270.06L552.2 261.22H553.5L556.34 268.62L559.2 261.22H560.44L556.26 271.68ZM560.88 265.6C560.88 262.94 562.88 260.98 565.4 260.98C567.9 260.98 569.92 262.94 569.92 265.6C569.92 268.3 567.9 270.24 565.4 270.24C562.88 270.24 560.88 268.3 560.88 265.6ZM568.7 265.6C568.7 263.6 567.36 262.02 565.4 262.02C563.42 262.02 562.08 263.6 562.08 265.6C562.08 267.62 563.42 269.2 565.4 269.2C567.36 269.2 568.7 267.62 568.7 265.6ZM575.333 270.24C572.853 270.24 571.573 268.72 571.573 266.88V261.22H572.773V266.76C572.773 268.34 573.853 269.2 575.333 269.2C576.793 269.2 577.853 268.42 577.853 266.82V261.22H579.053V266.88C579.053 268.72 577.793 270.24 575.333 270.24ZM585.4 261.14V262.26C585.26 262.24 585.1 262.22 584.8 262.22C583.64 262.22 582.42 263.02 582.42 265.22V270H581.26V261.22H582.38V262.88C582.74 261.96 583.5 261.1 584.76 261.1C585.06 261.1 585.24 261.12 585.4 261.14ZM590.979 265.62C590.979 267.62 592.339 269.2 594.299 269.2C595.659 269.2 596.719 268.42 597.239 267.28L598.219 267.78C597.539 269.3 596.099 270.24 594.299 270.24C591.779 270.24 589.779 268.3 589.779 265.62C589.779 262.94 591.779 260.98 594.299 260.98C596.079 260.98 597.539 261.88 598.239 263.42L597.239 263.94C596.739 262.8 595.659 262.02 594.299 262.02C592.339 262.02 590.979 263.6 590.979 265.62ZM599.172 265.6C599.172 262.94 601.172 260.98 603.692 260.98C606.192 260.98 608.212 262.94 608.212 265.6C608.212 268.3 606.192 270.24 603.692 270.24C601.172 270.24 599.172 268.3 599.172 265.6ZM606.992 265.6C606.992 263.6 605.652 262.02 603.692 262.02C601.712 262.02 600.372 263.6 600.372 265.6C600.372 267.62 601.712 269.2 603.692 269.2C605.652 269.2 606.992 267.62 606.992 265.6ZM611.124 263.56V270H609.944V261.22H611.124V262.44C611.904 261.52 613.004 260.98 614.084 260.98C615.464 260.98 616.424 261.6 616.884 262.64C617.964 261.4 619.064 260.98 620.144 260.98C622.084 260.98 623.304 262.18 623.304 264.06V270H622.104V264.36C622.104 262.78 621.144 262.06 619.984 262.06C618.904 262.06 617.924 262.72 617.184 263.58C617.184 263.58 617.224 264.1 617.224 264.26V270H616.024V264.36C616.024 262.78 615.064 262.06 613.904 262.06C612.804 262.06 611.884 262.66 611.124 263.56ZM626.689 268.28V273.48H625.509V261.22H626.689V262.96C627.249 261.82 628.569 260.98 630.089 260.98C632.589 260.98 634.509 262.94 634.509 265.6C634.509 268.3 632.569 270.24 630.069 270.24C628.549 270.24 627.269 269.42 626.689 268.28ZM629.989 262.02C628.029 262.02 626.669 263.6 626.669 265.6C626.669 267.62 628.029 269.2 629.989 269.2C631.929 269.2 633.309 267.62 633.309 265.6C633.309 263.6 631.929 262.02 629.989 262.02ZM643.509 270V268.28C642.949 269.42 641.669 270.24 640.129 270.24C637.629 270.24 635.709 268.3 635.709 265.6C635.709 262.94 637.629 260.98 640.109 260.98C641.649 260.98 642.969 261.82 643.529 262.96V261.22H644.709V270H643.509ZM640.229 262.02C638.269 262.02 636.909 263.6 636.909 265.6C636.909 267.62 638.269 269.2 640.229 269.2C642.189 269.2 643.549 267.62 643.549 265.6C643.549 263.6 642.189 262.02 640.229 262.02ZM648.169 263.56V270H646.989V261.22H648.169V262.44C648.969 261.52 650.129 260.98 651.229 260.98C653.149 260.98 654.449 262.18 654.449 264.06V270H653.269V264.38C653.269 262.76 652.209 262.06 651.049 262.06C649.949 262.06 648.929 262.66 648.169 263.56ZM659.54 271.68C659.1 272.82 658.32 273.62 656.82 273.62C656.44 273.62 655.98 273.56 655.54 273.44V272.38C655.96 272.52 656.34 272.6 656.76 272.6C657.74 272.6 658.16 272.06 658.52 271.18L659 270.06L655.48 261.22H656.78L659.62 268.62L662.48 261.22H663.72L659.54 271.68Z" fill="#2F4922"/>
<path d="M560.88 77.12L560.18 78.06C559.48 77.38 558.26 76.84 557.08 76.84C555.52 76.84 554.28 77.74 554.28 79.16C554.28 80.2 554.84 80.94 556.4 81.76L557.76 82.5C560.02 83.7 561.12 84.68 561.12 86.5C561.12 88.36 559.62 90.24 556.76 90.24C554.82 90.24 553.38 89.52 552.46 88.62L553.18 87.68C554.18 88.66 555.42 89.16 556.78 89.16C558.68 89.16 559.86 87.92 559.86 86.58C559.86 85.1 558.9 84.48 556.98 83.46L555.84 82.84C554.02 81.88 553.02 80.82 553.02 79.26C553.02 77.06 554.9 75.76 557.04 75.76C558.64 75.76 559.96 76.36 560.88 77.12ZM562.384 85.6C562.384 82.94 564.384 80.98 566.904 80.98C569.404 80.98 571.424 82.94 571.424 85.6C571.424 88.3 569.404 90.24 566.904 90.24C564.384 90.24 562.384 88.3 562.384 85.6ZM570.204 85.6C570.204 83.6 568.864 82.02 566.904 82.02C564.924 82.02 563.584 83.6 563.584 85.6C563.584 87.62 564.924 89.2 566.904 89.2C568.864 89.2 570.204 87.62 570.204 85.6ZM576.837 90.24C574.357 90.24 573.077 88.72 573.077 86.88V81.22H574.277V86.76C574.277 88.34 575.357 89.2 576.837 89.2C578.297 89.2 579.357 88.42 579.357 86.82V81.22H580.557V86.88C580.557 88.72 579.297 90.24 576.837 90.24ZM586.904 81.14V82.26C586.764 82.24 586.604 82.22 586.304 82.22C585.144 82.22 583.924 83.02 583.924 85.22V90H582.764V81.22H583.884V82.88C584.244 81.96 585.004 81.1 586.264 81.1C586.564 81.1 586.744 81.12 586.904 81.14ZM588.481 85.62C588.481 87.62 589.841 89.2 591.801 89.2C593.161 89.2 594.221 88.42 594.741 87.28L595.721 87.78C595.041 89.3 593.601 90.24 591.801 90.24C589.281 90.24 587.281 88.3 587.281 85.62C587.281 82.94 589.281 80.98 591.801 80.98C593.581 80.98 595.041 81.88 595.741 83.42L594.741 83.94C594.241 82.8 593.161 82.02 591.801 82.02C589.841 82.02 588.481 83.6 588.481 85.62ZM604.254 87.44L605.254 87.94C604.314 89.6 602.794 90.24 601.134 90.24C598.534 90.24 596.674 88.3 596.674 85.62C596.674 82.94 598.634 80.98 601.134 80.98C603.474 80.98 605.554 82.64 605.554 85.92V85.98H597.894C598.034 87.8 599.314 89.18 601.154 89.18C602.394 89.18 603.474 88.72 604.254 87.44ZM601.134 82.02C599.374 82.02 598.114 83.32 597.914 85.04H604.294C604.134 83.34 602.894 82.02 601.134 82.02ZM618.454 82.96V81.22H619.654V93.48H618.454V88.28C617.894 89.42 616.614 90.24 615.074 90.24C612.574 90.24 610.654 88.3 610.654 85.6C610.654 82.94 612.574 80.98 615.054 80.98C616.594 80.98 617.914 81.82 618.454 82.96ZM615.174 82.02C613.214 82.02 611.854 83.6 611.854 85.6C611.854 87.62 613.214 89.2 615.174 89.2C617.134 89.2 618.494 87.62 618.494 85.6C618.494 83.6 617.134 82.02 615.174 82.02ZM625.615 90.24C623.135 90.24 621.855 88.72 621.855 86.88V81.22H623.055V86.76C623.055 88.34 624.135 89.2 625.615 89.2C627.075 89.2 628.135 88.42 628.135 86.82V81.22H629.335V86.88C629.335 88.72 628.075 90.24 625.615 90.24ZM638.802 90V88.28C638.242 89.42 636.962 90.24 635.422 90.24C632.922 90.24 631.002 88.3 631.002 85.6C631.002 82.94 632.922 80.98 635.402 80.98C636.942 80.98 638.262 81.82 638.822 82.96V81.22H640.002V90H638.802ZM635.522 82.02C633.562 82.02 632.202 83.6 632.202 85.6C632.202 87.62 633.562 89.2 635.522 89.2C637.482 89.2 638.842 87.62 638.842 85.6C638.842 83.6 637.482 82.02 635.522 82.02ZM642.442 90V77H641.042V76H643.622V90H642.442ZM646.954 79.08C646.374 79.08 645.914 78.62 645.914 78.06C645.914 77.48 646.374 77.02 646.954 77.02C647.514 77.02 647.994 77.48 647.994 78.06C647.994 78.62 647.514 79.08 646.954 79.08ZM646.434 90V82.22H645.054V81.22H647.634V90H646.434ZM650.455 77.54H651.655V81.22H653.815V82.22H651.655V88.16C651.655 88.86 652.015 89.12 652.655 89.12C653.035 89.12 653.535 89.02 653.815 88.92V89.94C653.495 90.02 652.895 90.14 652.435 90.14C651.175 90.14 650.455 89.54 650.455 88.34V82.22H648.975V81.22H650.455V77.54ZM658.228 91.68C657.788 92.82 657.008 93.62 655.508 93.62C655.128 93.62 654.668 93.56 654.228 93.44V92.38C654.648 92.52 655.028 92.6 655.448 92.6C656.428 92.6 656.848 92.06 657.208 91.18L657.688 90.06L654.168 81.22H655.468L658.308 88.62L661.168 81.22H662.408L658.228 91.68ZM553.84 106.62C553.84 108.62 555.2 110.2 557.16 110.2C558.52 110.2 559.58 109.42 560.1 108.28L561.08 108.78C560.4 110.3 558.96 111.24 557.16 111.24C554.64 111.24 552.64 109.3 552.64 106.62C552.64 103.94 554.64 101.98 557.16 101.98C558.94 101.98 560.4 102.88 561.1 104.42L560.1 104.94C559.6 103.8 558.52 103.02 557.16 103.02C555.2 103.02 553.84 104.6 553.84 106.62ZM569.833 111V109.28C569.273 110.42 567.993 111.24 566.453 111.24C563.953 111.24 562.033 109.3 562.033 106.6C562.033 103.94 563.953 101.98 566.433 101.98C567.973 101.98 569.293 102.82 569.853 103.96V102.22H571.033V111H569.833ZM566.553 103.02C564.593 103.02 563.233 104.6 563.233 106.6C563.233 108.62 564.593 110.2 566.553 110.2C568.513 110.2 569.873 108.62 569.873 106.6C569.873 104.6 568.513 103.02 566.553 103.02ZM574.493 104.56V111H573.313V102.22H574.493V103.44C575.293 102.52 576.453 101.98 577.553 101.98C579.473 101.98 580.773 103.18 580.773 105.06V111H579.593V105.38C579.593 103.76 578.533 103.06 577.373 103.06C576.273 103.06 575.253 103.66 574.493 104.56ZM590.259 103.96V97H591.439V111H590.239V109.28C589.679 110.42 588.399 111.24 586.859 111.24C584.359 111.24 582.439 109.3 582.439 106.6C582.439 103.94 584.359 101.98 586.839 101.98C588.379 101.98 589.699 102.82 590.259 103.96ZM586.959 103.02C584.999 103.02 583.639 104.6 583.639 106.6C583.639 108.62 584.999 110.2 586.959 110.2C588.919 110.2 590.279 108.62 590.279 106.6C590.279 104.6 588.919 103.02 586.959 103.02ZM594.779 100.08C594.199 100.08 593.739 99.62 593.739 99.06C593.739 98.48 594.199 98.02 594.779 98.02C595.339 98.02 595.819 98.48 595.819 99.06C595.819 99.62 595.339 100.08 594.779 100.08ZM594.259 111V103.22H592.879V102.22H595.459V111H594.259ZM605.021 103.96V97H606.201V111H605.001V109.28C604.441 110.42 603.161 111.24 601.621 111.24C599.121 111.24 597.201 109.3 597.201 106.6C597.201 103.94 599.121 101.98 601.601 101.98C603.141 101.98 604.461 102.82 605.021 103.96ZM601.721 103.02C599.761 103.02 598.401 104.6 598.401 106.6C598.401 108.62 599.761 110.2 601.721 110.2C603.681 110.2 605.041 108.62 605.041 106.6C605.041 104.6 603.681 103.02 601.721 103.02ZM615.741 111V109.28C615.181 110.42 613.901 111.24 612.361 111.24C609.861 111.24 607.941 109.3 607.941 106.6C607.941 103.94 609.861 101.98 612.341 101.98C613.881 101.98 615.201 102.82 615.761 103.96V102.22H616.941V111H615.741ZM612.461 103.02C610.501 103.02 609.141 104.6 609.141 106.6C609.141 108.62 610.501 110.2 612.461 110.2C614.421 110.2 615.781 108.62 615.781 106.6C615.781 104.6 614.421 103.02 612.461 103.02ZM619.762 98.54H620.962V102.22H623.122V103.22H620.962V109.16C620.962 109.86 621.322 110.12 621.962 110.12C622.342 110.12 622.842 110.02 623.122 109.92V110.94C622.802 111.02 622.202 111.14 621.742 111.14C620.482 111.14 619.762 110.54 619.762 109.34V103.22H618.282V102.22H619.762V98.54ZM631.318 108.44L632.318 108.94C631.378 110.6 629.858 111.24 628.198 111.24C625.598 111.24 623.738 109.3 623.738 106.62C623.738 103.94 625.698 101.98 628.198 101.98C630.538 101.98 632.618 103.64 632.618 106.92V106.98H624.958C625.098 108.8 626.378 110.18 628.218 110.18C629.458 110.18 630.538 109.72 631.318 108.44ZM628.198 103.02C626.438 103.02 625.178 104.32 624.978 106.04H631.358C631.198 104.34 629.958 103.02 628.198 103.02ZM636.616 110.24C637.876 110.24 638.656 109.58 638.656 108.76C638.656 107.96 638.136 107.58 637.016 107.16L635.936 106.76C634.476 106.2 633.896 105.54 633.896 104.44C633.896 103.04 635.096 101.98 636.896 101.98C637.936 101.98 638.996 102.34 639.716 102.98L639.116 103.84C638.516 103.32 637.716 102.96 636.876 102.96C635.796 102.96 635.056 103.52 635.056 104.3C635.056 104.84 635.296 105.3 636.316 105.7L637.556 106.16C639.176 106.8 639.876 107.46 639.876 108.72C639.876 110 638.756 111.24 636.636 111.24C635.456 111.24 634.276 110.84 633.496 110.16L634.136 109.26C634.796 109.88 635.756 110.24 636.616 110.24ZM652.563 108.44L653.563 108.94C652.623 110.6 651.103 111.24 649.443 111.24C646.843 111.24 644.983 109.3 644.983 106.62C644.983 103.94 646.943 101.98 649.443 101.98C651.783 101.98 653.863 103.64 653.863 106.92V106.98H646.203C646.343 108.8 647.623 110.18 649.463 110.18C650.703 110.18 651.783 109.72 652.563 108.44ZM649.443 103.02C647.683 103.02 646.423 104.32 646.223 106.04H652.603C652.443 104.34 651.203 103.02 649.443 103.02ZM660.545 111V103.22H657.125V111H655.945V103.22H654.445V102.22H655.945V99.4C655.945 97.66 657.085 97.16 658.085 97.16C658.465 97.16 658.825 97.24 659.105 97.34V98.36C658.825 98.24 658.545 98.2 658.265 98.2C657.585 98.2 657.125 98.6 657.125 99.44V102.22H660.545V99.72C660.545 97.62 661.985 96.76 663.405 96.76C664.265 96.76 665.085 97.08 665.665 97.48L665.045 98.38C664.625 98.08 663.985 97.84 663.465 97.84C662.545 97.84 661.745 98.38 661.745 99.8V102.22H666.365V111H665.165V103.22H661.745V111H660.545ZM669.304 106.62C669.304 108.62 670.664 110.2 672.624 110.2C673.984 110.2 675.044 109.42 675.564 108.28L676.544 108.78C675.864 110.3 674.424 111.24 672.624 111.24C670.104 111.24 668.104 109.3 668.104 106.62C668.104 103.94 670.104 101.98 672.624 101.98C674.404 101.98 675.864 102.88 676.564 104.42L675.564 104.94C675.064 103.8 673.984 103.02 672.624 103.02C670.664 103.02 669.304 104.6 669.304 106.62ZM679.097 100.08C678.517 100.08 678.057 99.62 678.057 99.06C678.057 98.48 678.517 98.02 679.097 98.02C679.657 98.02 680.137 98.48 680.137 99.06C680.137 99.62 679.657 100.08 679.097 100.08ZM678.577 111V103.22H677.197V102.22H679.777V111H678.577ZM689.098 108.44L690.098 108.94C689.158 110.6 687.638 111.24 685.978 111.24C683.378 111.24 681.518 109.3 681.518 106.62C681.518 103.94 683.478 101.98 685.978 101.98C688.318 101.98 690.398 103.64 690.398 106.92V106.98H682.738C682.878 108.8 684.158 110.18 685.998 110.18C687.238 110.18 688.318 109.72 689.098 108.44ZM685.978 103.02C684.218 103.02 682.958 104.32 682.758 106.04H689.138C688.978 104.34 687.738 103.02 685.978 103.02ZM693.236 104.56V111H692.056V102.22H693.236V103.44C694.036 102.52 695.196 101.98 696.296 101.98C698.216 101.98 699.516 103.18 699.516 105.06V111H698.336V105.38C698.336 103.76 697.276 103.06 696.116 103.06C695.016 103.06 693.996 103.66 693.236 104.56ZM702.145 98.54H703.345V102.22H705.505V103.22H703.345V109.16C703.345 109.86 703.705 110.12 704.345 110.12C704.725 110.12 705.225 110.02 705.505 109.92V110.94C705.185 111.02 704.585 111.14 704.125 111.14C702.865 111.14 702.145 110.54 702.145 109.34V103.22H700.665V102.22H702.145V98.54ZM706.998 111V98H705.598V97H708.178V111H706.998ZM713.529 112.68C713.089 113.82 712.309 114.62 710.809 114.62C710.429 114.62 709.969 114.56 709.529 114.44V113.38C709.949 113.52 710.329 113.6 710.749 113.6C711.729 113.6 712.149 113.06 712.509 112.18L712.989 111.06L709.469 102.22H710.769L713.609 109.62L716.469 102.22H717.709L713.529 112.68Z" fill="#5D3B09"/>
<path d="M824.345 92.4866C876.364 92.4866 918.525 134.647 918.525 186.667H730.165C730.165 134.647 772.325 92.4866 824.345 92.4866Z" fill="#E8F3FF"/>
<path d="M745.276 166.801L746.983 186.667H847.153V180.766L820.179 180.78L818.958 166.801H745.276Z" fill="#BAD4D8"/>
<path d="M744.917 134.229H813.33L815.552 136.436L819.217 179.847H748.582L747.125 178.375L743.446 135.7L744.917 134.229Z" fill="white"/>
<path d="M813.131 135.162C814.029 135.206 814.779 135.883 814.897 136.781L818.429 177.985C818.429 178.352 818.326 178.706 818.135 179.015C817.87 179.177 817.561 179.28 817.252 179.309H749.471C748.574 179.265 747.823 178.588 747.706 177.69L744.174 136.487C744.174 136.119 744.277 135.913 744.468 135.604C744.689 135.339 745.013 135.192 745.351 135.162H813.131ZM813.131 133.691H745.336C743.88 133.676 742.688 134.838 742.673 136.295C742.673 136.413 742.673 136.531 742.688 136.634L746.219 177.837C746.411 179.486 747.794 180.751 749.457 180.781H817.266C818.723 180.795 819.915 179.633 819.93 178.176C819.93 178.058 819.93 177.94 819.915 177.837L816.383 136.634C816.148 135 814.794 133.779 813.146 133.691H813.131Z" fill="#5B696B"/>
<path d="M827.376 145.654C827.008 145.993 826.36 145.934 826.066 146.346C825.772 146.758 825.889 146.905 825.742 147.155C825.551 147.42 825.286 147.626 825.006 147.788C824.359 148.274 824.065 149.098 824.256 149.878C824.756 151.599 825.992 154.719 825.889 156.72L826.272 164.476L834.557 163.284C834.557 163.284 832.408 156.529 832.688 154.866C832.747 153.321 833.306 151.85 834.277 150.643L835.631 148.259C835.911 147.862 835.734 146.316 835.778 145.846C835.631 144.889 834.307 145.669 834.307 146.346L834.174 147.347L833.438 148.303C832.526 146.743 833.438 144.565 832.438 143.035C832.04 142.432 831.246 142.255 830.628 142.608C830.275 142.873 830.113 143.403 829.686 143.55C829.009 143.55 828.214 143.55 827.891 144.286C827.699 144.742 827.743 145.316 827.376 145.654Z" fill="#A96C3F"/>
<path d="M777.255 198.439H730.165V273.489H777.255V198.439Z" fill="#BAD4D8"/>
<path d="M777.255 213.155H737.522V273.489H777.255V213.155Z" fill="#526A6E"/>
<path d="M764.011 267.603H762.539V273.489H764.011V267.603Z" fill="#D8DFE1"/>
<path d="M744.88 267.603H743.409V273.489H744.88V267.603Z" fill="#D8DFE1"/>
<path d="M763.275 279.375C765.306 279.375 766.954 277.728 766.954 275.696C766.954 273.665 765.306 272.018 763.275 272.018C761.243 272.018 759.596 273.665 759.596 275.696C759.596 277.728 761.243 279.375 763.275 279.375Z" fill="#B0BFBC"/>
<path d="M763.275 277.536C764.291 277.536 765.114 276.712 765.114 275.696C765.114 274.68 764.291 273.857 763.275 273.857C762.259 273.857 761.436 274.68 761.436 275.696C761.436 276.712 762.259 277.536 763.275 277.536Z" fill="#546366"/>
<path d="M744.145 279.375C746.177 279.375 747.824 277.728 747.824 275.696C747.824 273.665 746.177 272.018 744.145 272.018C742.113 272.018 740.466 273.665 740.466 275.696C740.466 277.728 742.113 279.375 744.145 279.375Z" fill="#B0BFBC"/>
<path d="M744.144 277.536C745.16 277.536 745.984 276.712 745.984 275.696C745.984 274.68 745.16 273.857 744.144 273.857C743.128 273.857 742.305 274.68 742.305 275.696C742.305 276.712 743.128 277.536 744.144 277.536Z" fill="#546366"/>
<path d="M766.954 267.235H740.466V270.546H766.954V267.235Z" fill="#B0BFBC"/>
<path d="M766.954 221.984H740.466V267.603H766.954V221.984Z" fill="#D8DFE1"/>
<path d="M766.954 248.473H743.409V254.359H766.954V248.473Z" fill="#546366"/>
<path d="M746.351 252.887C747.164 252.887 747.823 252.228 747.823 251.416C747.823 250.603 747.164 249.944 746.351 249.944C745.539 249.944 744.88 250.603 744.88 251.416C744.88 252.228 745.539 252.887 746.351 252.887Z" fill="#D2FF8A"/>
<path d="M756.653 226.399H740.466V227.87H756.653V226.399Z" fill="#A3A3A3"/>
<path d="M756.653 229.343H740.466V230.814H756.653V229.343Z" fill="#A3A3A3"/>
<path d="M756.653 232.285H740.466V233.757H756.653V232.285Z" fill="#A3A3A3"/>
<path d="M756.653 235.229H740.466V236.7H756.653V235.229Z" fill="#A3A3A3"/>
<path d="M756.653 238.172H740.466V239.643H756.653V238.172Z" fill="#A3A3A3"/>
<path fill-rule="evenodd" clip-rule="evenodd" d="M864.077 186.667H730.165V198.439H864.077V186.667Z" fill="#A0B4B7"/>
<path d="M825.728 158.708H834.351L836.309 168.405C836.426 169.008 837.015 169.406 837.633 169.273C838.074 169.185 838.413 168.847 838.501 168.405L842.313 153.189C843.24 149.437 846.021 146.42 849.67 145.184C851.436 142.079 854.556 140.004 858.102 139.577C857.999 139.577 872.465 137.164 879.219 161.533C887.122 190.14 880.838 208.623 880.838 208.623L846.992 195.379V185.078H825.728V158.708Z" fill="#BEBF8C"/>
<path d="M857.66 135.162C858.249 134.073 858.69 132.896 858.94 131.675C861.442 119.372 846.329 110.028 836.469 119.446C835.866 120.035 835.336 120.697 834.88 121.418C833.438 123.537 832.761 126.083 832.952 128.643C832.952 130.689 833.32 130.865 832.069 132.925C831.672 133.573 831.275 133.867 831.304 134.824C831.304 135.471 831.863 135.854 832.408 136.295C833.188 136.869 833.261 137.105 833.335 138.503C833.291 139.915 833.673 141.328 834.439 142.52C836.646 144.845 839.707 142.52 842.576 145.463C844.21 147.258 846.152 148.759 848.316 149.878C848.316 149.878 851.141 140.916 858.764 139.695C857.734 139.032 857.174 137.855 857.292 136.634C857.292 135.295 857.66 135.162 857.66 135.162Z" fill="#A96C3F"/>
<path d="M833.69 123.566C834.926 123.978 835.794 127.245 838.105 125.656C839.488 124.729 842.931 125.2 841.739 128.599C841.474 129.423 841.813 130.321 842.578 130.748C843.108 129.894 844.02 129.35 845.021 129.276C846.772 129.129 848.303 130.439 848.45 132.19V132.219C848.965 134.25 849.274 138.105 857.647 138.105C857.838 134.515 863.092 134.176 861.708 129.158C860.325 124.14 862.665 124.037 859.575 121.594C857.382 119.858 856.558 116.827 853.615 115.59C850.672 114.354 849.804 115.59 847.802 114.56C844.859 113.089 843.844 113.957 841.916 114.56C838.973 115.532 839.709 116.768 834.764 117.268C830.305 117.768 831.483 122.831 833.69 123.566Z" fill="#2D1D19"/>
<path d="M864.018 230.799L875.055 276.432H870.64L858.868 230.814L864.018 230.799Z" fill="#D6CEC2"/>
<path d="M837.53 230.799L830.055 261.717H834.705L842.681 230.814L837.53 230.799Z" fill="#D6CEC2"/>
<path d="M867.314 221.984H832.762C830.519 221.984 828.701 223.803 828.701 226.046V226.752C828.701 228.995 830.519 230.814 832.762 230.814H867.314C869.558 230.814 871.376 228.995 871.376 226.752V226.046C871.376 223.803 869.558 221.984 867.314 221.984Z" fill="#6E6558"/>
<path d="M844.211 260.245L841.93 251.312H828.686L830.966 260.245H844.211Z" fill="#A96C3F"/>
<path d="M800.3 255.227L801.977 248.355H813.75L812.058 255.109L800.3 255.227Z" fill="#A96C3F"/>
<path d="M820.503 249.841L830.804 204.223H817.501C810.747 204.223 804.993 209.123 803.933 215.789L799.136 245.515C798.812 247.56 800.21 249.473 802.241 249.797C802.432 249.826 802.624 249.841 802.815 249.841H820.518H820.503Z" fill="#264666"/>
<path d="M810.438 266.131H797.194L799.931 255.227C800.049 254.712 800.505 254.359 801.035 254.359H811.394C812.027 254.359 812.528 254.859 812.528 255.492C812.528 255.565 812.528 255.639 812.513 255.712L810.453 266.131H810.438Z" fill="#DBE7E9"/>
<path d="M829.937 266.264V260.245C829.937 259.436 830.599 258.774 831.408 258.774H843.607C844.358 258.774 844.976 259.333 845.064 260.069L845.903 267.265C846.006 268.192 845.241 268.986 844.314 268.898L831.276 267.706C830.51 267.632 829.937 267 829.937 266.235V266.264Z" fill="#DBE7E9"/>
<path d="M812.866 263.556C813.204 264.895 813.116 266.308 812.615 267.603C811.983 269.354 810.32 270.532 808.451 270.546C802.05 270.605 785.862 270.723 785.715 270.546C782.566 270.355 780.844 265.72 784.597 264.91C789.806 264.042 796.046 260.819 799.798 255.713C801.947 260.628 807.126 261.172 809.187 259.863C810.143 259.215 811.438 259.465 812.086 260.422C812.248 260.657 812.351 260.908 812.409 261.172C812.542 261.923 812.836 263.497 812.866 263.556Z" fill="#6E7769"/>
<path d="M847.419 267.809C848.494 271.296 846.551 275.005 843.049 276.094C842.431 276.285 841.783 276.388 841.136 276.388C832.041 276.447 819.209 276.491 819.062 276.329C815.619 276.138 813.735 271.62 817.841 270.811C823.551 269.942 825.817 268.191 829.922 263.085C834.749 267.617 839.311 268.074 843.387 263.659C844.3 262.673 846.007 263.291 846.389 264.557C846.713 265.528 847.066 266.646 847.419 267.809Z" fill="#6E7769"/>
<path d="M841.93 254.256H824.639C822.784 254.256 821.092 253.182 820.312 251.489L807.26 223.338C807.26 223.338 799.74 207.637 811.674 204.208C827.744 199.587 847.095 195.482 847.095 195.482L880.838 208.623C878.733 216.51 871.582 221.999 863.414 221.97H832.394L843.96 251.239C844.402 252.372 843.828 253.653 842.695 254.094C842.459 254.182 842.194 254.241 841.93 254.241V254.256Z" fill="#3A5570"/>
<path d="M905.81 267.471C904.971 261.893 906.752 248.473 906.752 248.473H894.229C896.171 258.788 897.083 264.38 895.2 267.471L894.994 270.826L904.353 270.502L905.81 267.471Z" fill="#955646"/>
<path d="M893.376 267.471C892.537 261.893 893.508 248.473 893.508 248.473H882.472C884.414 258.788 884.65 264.38 882.781 267.471L882.575 270.826L891.934 270.502L893.391 267.471H893.376Z" fill="#955646"/>
<path d="M907.488 176.366C913.581 197.821 913.375 248.458 913.375 248.458H872.171L873.642 176.366H907.488Z" fill="#BC792A"/>
<path d="M879.44 116.282C879.44 116.282 879.44 116.253 879.44 116.223C879.44 116.179 879.455 116.135 879.47 116.076C879.808 113.766 879.514 111.338 878.469 109.071C875.599 102.847 868.227 100.124 862.002 102.994C856.204 105.657 853.452 112.235 855.41 118.151C855.41 118.151 855.41 118.18 855.424 118.195C855.498 118.401 855.586 118.607 855.66 118.798C856.557 121.374 855.954 123.154 856.454 124.258C856.999 125.45 858.485 124.434 859.295 126.554C860.884 130.232 861.708 130.586 865.99 130.188C870.317 129.776 871.95 137.222 871.95 137.222L885.459 130.895C876.909 126.715 878.292 123.934 879.455 116.297L879.44 116.282Z" fill="#955646"/>
<path d="M905.81 267.471C899.997 267.367 900.041 271.297 895.214 267.471C894.684 268.604 894.155 269.472 893.654 270.149L893.375 267.471C887.562 267.367 887.606 271.297 882.78 267.471C878.541 276.418 875.054 269.442 872.567 276.432H898.349L900.438 274.519L900.806 276.432H906.751L905.824 267.471H905.81Z" fill="#0D2135"/>
<circle cx="770.282" cy="171.026" r="3.382" transform="rotate(-3.71368 770.282 171.026)" fill="#D4D698"/>
<path d="M771.332 171.6C771.352 171.449 771.568 170.333 771.507 170.041C771.47 169.856 771.395 169.682 771.288 169.527C771.182 169.372 771.045 169.24 770.886 169.139C770.727 169.038 770.549 168.97 770.363 168.939C770.177 168.908 769.987 168.915 769.804 168.959C769.63 168.992 769.466 169.063 769.324 169.169C769.183 169.274 769.067 169.41 768.985 169.567C768.821 169.845 768.75 170.168 768.784 170.49C768.787 170.529 768.789 170.567 768.792 170.602C768.811 170.905 768.716 171.088 768.744 171.225C768.773 171.362 768.966 171.3 769.005 171.564C769.092 172.033 769.124 172.043 769.608 172.109C770.092 172.175 769.809 173.175 769.809 173.175L771.806 172.747C771.422 172.226 771.255 172.173 771.332 171.6Z" fill="#FFDAC7"/>
<path d="M768.975 170.464C768.972 170.432 768.939 170.407 768.9 170.409C768.862 170.412 768.832 170.441 768.834 170.474L768.872 171.058C768.874 171.091 768.907 171.115 768.946 171.113C768.985 171.11 769.015 171.081 769.012 171.049L768.975 170.464Z" fill="#B24020"/>
<path d="M769.842 170.772L769.833 170.631L768.989 170.686L768.998 170.827L769.842 170.772Z" fill="#B24020"/>
<path d="M768.841 170.043C769.277 170.014 769.801 170.034 769.865 171.017C770.033 170.992 770 170.725 770.186 170.623C770.232 170.591 770.285 170.57 770.341 170.562C770.396 170.554 770.453 170.559 770.506 170.578C770.559 170.597 770.608 170.628 770.648 170.669C770.688 170.71 770.718 170.76 770.736 170.815C770.847 171.155 770.901 171.457 771.027 171.616C771.045 171.64 771.07 171.658 771.097 171.667C771.125 171.677 771.155 171.679 771.184 171.671C771.212 171.664 771.238 171.648 771.258 171.626C771.278 171.604 771.292 171.576 771.297 171.547C771.344 171.3 771.416 171.059 771.512 170.829C771.814 170.043 771.524 169.416 771.105 169.092C770.879 168.926 770.618 168.822 770.344 168.789C770.07 168.757 769.793 168.796 769.538 168.904C769.34 168.982 769.16 169.102 769.009 169.256C768.858 169.41 768.74 169.595 768.662 169.799C768.653 169.827 768.651 169.858 768.655 169.888C768.66 169.917 768.672 169.946 768.69 169.97C768.707 169.994 768.73 170.013 768.757 170.025C768.783 170.038 768.812 170.044 768.841 170.043Z" fill="#1D2226"/>
<path fill-rule="evenodd" clip-rule="evenodd" d="M769.291 174.26C769.384 173.993 769.478 173.761 769.56 173.558C769.563 173.553 769.565 173.548 769.567 173.543L769.407 173.165C769.382 173.109 769.369 173.047 769.368 172.985C769.367 172.924 769.379 172.862 769.402 172.805C769.426 172.748 769.46 172.696 769.504 172.653C769.548 172.61 769.599 172.576 769.656 172.554L771.335 171.946L771.755 172.621C771.988 172.837 772.294 173.13 772.585 173.503C772.034 174.015 771.31 174.348 770.501 174.401C770.08 174.428 769.672 174.377 769.291 174.26Z" fill="#493D57"/>
<circle cx="768.824" cy="157.236" r="3.382" transform="rotate(-3.07518 768.824 157.236)" fill="#BAD4D8"/>
<path d="M767.351 156.442C767.338 156.056 767.471 155.679 767.723 155.391C767.975 155.103 768.326 154.925 768.704 154.894C769.833 154.807 770.451 156.392 769.879 157.381C769.704 157.655 769.626 157.981 769.657 158.306C769.687 158.632 769.825 158.937 770.047 159.173L770.02 159.187L768.773 160.016L768.01 159.873C768.01 159.873 768.563 158.357 767.931 158.136C767.457 157.969 767.422 157.959 767.408 157.473C767.411 157.193 767.208 157.241 767.199 157.076C767.19 156.911 767.334 156.762 767.351 156.442Z" fill="#BF7461"/>
<path fill-rule="evenodd" clip-rule="evenodd" d="M767.696 160.426L768.028 159.808C768.457 159.794 768.699 159.558 768.958 159.305C769.183 159.086 769.42 158.854 769.804 158.74C769.858 158.8 769.927 158.869 770.007 158.949C770.243 159.185 770.569 159.509 770.84 159.952C770.324 160.335 769.694 160.576 769.005 160.614C768.546 160.638 768.103 160.57 767.696 160.426Z" fill="#F3BA64"/>
<path fill-rule="evenodd" clip-rule="evenodd" d="M771.503 159.374C771.075 159.152 770.935 158.712 770.798 158.279C770.665 157.863 770.535 157.454 770.152 157.256C769.765 157.98 768.917 157.607 769.047 156.82C769.058 156.774 769.059 156.726 769.051 156.679C769.043 156.632 769.026 156.587 769 156.547C768.974 156.507 768.941 156.473 768.901 156.446C768.862 156.419 768.818 156.401 768.771 156.391C768.724 156.382 768.676 156.383 768.629 156.392C768.583 156.402 768.539 156.421 768.5 156.449C768.46 156.476 768.427 156.511 768.402 156.551C768.377 156.591 768.36 156.636 768.353 156.683C768.062 156.598 767.808 156.418 767.632 156.172C767.525 156.022 767.477 155.838 767.498 155.655C767.52 155.471 767.608 155.303 767.747 155.181C767.995 154.967 768.31 154.845 768.638 154.836C769.493 154.79 770.39 155.421 770.2 156.483C770.962 155.81 772.128 156.401 772.255 157.527C772.195 158.221 771.924 158.86 771.503 159.374Z" fill="#61382D"/>
<path d="M746.76 177.318L743.94 143.004H761.252L764.296 179.527H748.086L746.76 177.318Z" fill="#F4F6F8" stroke="#BFBFBF" stroke-width="0.474336"/>
<path d="M746.767 153.439H762.183" stroke="#BFBFBF" stroke-width="0.474336"/>
<path d="M747.715 162.689H763.131" stroke="#BFBFBF" stroke-width="0.474336"/>
<path d="M748.189 171.701H763.605" stroke="#BFBFBF" stroke-width="0.474336"/>
<path d="M743.92 135.177H815.073L816.019 144.189L744.393 143.889L743.92 135.177Z" fill="#004182"/>
<path d="M774.752 152.728H790.198L790.435 154.625H774.926L774.752 152.728Z" fill="#D9D9D9"/>
<path d="M801.231 154.388L801.101 152.965H808.014L808.192 154.388H801.231Z" stroke="#689FBE" stroke-width="0.474336"/>
<path d="M809.853 152.728L812.224 152.728L812.461 154.625H810.026L809.853 152.728Z" fill="#D9D9D9"/>
<path d="M802.653 168.618L802.523 167.195H809.436L809.614 168.618H802.653Z" stroke="#689FBE" stroke-width="0.474336"/>
<path d="M811.276 166.958H813.648L813.885 168.855H811.45L811.276 166.958Z" fill="#D9D9D9"/>
<path d="M747.24 155.099H760.759L760.996 156.997H747.414L747.24 155.099Z" fill="#C9CBCC"/>
<path d="M748.189 164.586H761.708L761.945 166.483H748.363L748.189 164.586Z" fill="#C9CBCC"/>
<path d="M748.664 173.124H762.183L762.42 175.021H748.838L748.664 173.124Z" fill="#C9CBCC"/>
<path d="M746.292 149.882H757.037L757.202 151.779H746.413L746.292 149.882Z" fill="#E3E7ED"/>
<path d="M760.759 150.119H758.15L759.573 151.304L760.759 150.119Z" fill="#616365"/>
<path d="M775.02 155.574H792.57L792.807 157.471H775.193L775.02 155.574Z" fill="#D9D9D9"/>
<path d="M775.257 158.42L789.724 158.42L789.961 160.317L775.436 160.317L775.257 158.42Z" fill="#D9D9D9"/>
<path d="M776.175 166.958H794.2L794.437 168.855H776.349L776.175 166.958Z" fill="#D9D9D9"/>
<path d="M776.442 169.804H792.095L792.332 171.701H776.615L776.442 169.804Z" fill="#D9D9D9"/>
<path d="M776.68 172.65L793.251 172.65L793.489 174.547H776.859L776.68 172.65Z" fill="#D9D9D9"/>
<path d="M743.92 142.994L816.255 142.766L816.493 148.458H744.397L743.92 142.994Z" fill="white"/>
<path d="M744.615 148.221L744.179 143.23L816.027 143.004L816.246 148.221H744.615Z" stroke="black" stroke-opacity="0.25" stroke-width="0.474336"/>
<rect x="755.304" y="158.894" width="6.16637" height="2.37168" rx="1.18584" fill="#9AD8F3"/>
<rect x="747.715" y="158.894" width="6.16637" height="2.37168" rx="1.18584" fill="#9AD8F3"/>
<rect x="750.426" y="167.906" width="0.271049" height="1.89735" fill="#757779"/>
<rect x="751.51" y="168.719" width="0.271049" height="1.89735" transform="rotate(90 751.51 168.719)" fill="#757779"/>
<rect x="751.375" y="176.445" width="0.271049" height="1.89735" fill="#757779"/>
<rect x="752.459" y="177.258" width="0.271049" height="1.89735" transform="rotate(90 752.459 177.258)" fill="#757779"/>
<path d="M746.436 144.426H768.349L768.492 147.035H746.541L746.436 144.426Z" fill="#0075AE"/>
<path d="M746.292 137.074L749.232 137.074L749.375 139.683H746.397L746.292 137.074Z" fill="white"/>
<path d="M770.342 146.798L770.256 144.663H779.602L779.719 146.798H770.342Z" stroke="#0075AE" stroke-width="0.474336"/>
<path d="M753.407 139.446H760.419L760.522 141.818H753.482L753.407 139.446Z" fill="#195A87"/>
<path d="M769.534 139.446H776.547L776.649 141.818H769.609L769.534 139.446Z" fill="#195A87"/>
<path d="M785.662 139.446H792.675L792.777 141.818H785.737L785.662 139.446Z" fill="#195A87"/>
<path d="M761.471 139.446H768.483L768.586 141.818H761.546L761.471 139.446Z" fill="#195A87"/>
<path d="M777.599 139.446H784.611L784.714 141.818H777.674L777.599 139.446Z" fill="#195A87"/>
<path d="M793.726 139.446H800.739L800.841 141.818H793.801L793.726 139.446Z" fill="#195A87"/>
<path d="M781.725 146.798L781.639 144.663H795.729L795.846 146.798H781.725Z" stroke="#0075AE" stroke-width="0.474336"/>
<path d="M812.956 135.226C813.854 135.27 814.604 135.947 814.722 136.845L818.254 178.048C818.254 178.416 818.151 178.769 817.959 179.078C817.694 179.24 817.385 179.343 817.076 179.373H749.296C748.399 179.329 747.648 178.652 747.53 177.754L743.999 136.55C743.999 136.182 744.102 135.976 744.293 135.667C744.514 135.402 744.837 135.255 745.176 135.226H812.956ZM812.956 133.754H745.161C743.704 133.74 742.512 134.902 742.498 136.359C742.498 136.477 742.498 136.594 742.512 136.697L746.044 177.901C746.235 179.549 747.619 180.815 749.281 180.844H817.091C818.548 180.859 819.74 179.696 819.755 178.24C819.755 178.122 819.755 178.004 819.74 177.901L816.208 136.697C815.973 135.064 814.619 133.843 812.971 133.754H812.956Z" fill="#5B696B"/>
<circle cx="813.41" cy="153.438" r="0.236726" fill="#D9D9D9"/>
<circle cx="814.122" cy="153.438" r="0.236726" fill="#D9D9D9"/>
<circle cx="814.833" cy="153.438" r="0.236726" fill="#D9D9D9"/>
<circle cx="814.833" cy="167.669" r="0.236726" fill="#D9D9D9"/>
<circle cx="815.545" cy="167.669" r="0.236726" fill="#D9D9D9"/>
<circle cx="816.257" cy="167.669" r="0.236726" fill="#D9D9D9"/>
<path d="M822.053 164.476L813.52 183.227L814.859 183.837L823.393 165.085L822.053 164.476Z" fill="#BC792A"/>
<path d="M842.577 186.667H810.806V184.445C810.806 183.518 811.336 182.679 812.145 182.238L816.325 179.913C817.031 179.515 817.87 179.442 818.635 179.677L823.476 181.149C824.727 181.531 826.037 181.634 827.332 181.458L842.577 179.309V186.667Z" fill="#A96C3F"/>
<path d="M872.361 127.157C873.965 135.03 885.531 134.544 885.855 127.436C887.444 126.583 888.666 125.818 889.637 124.302C890.667 122.698 890.858 120.667 890.623 118.754C890.476 117.621 890.196 116.488 889.608 115.517C888.151 113.118 885.222 112.162 882.912 110.558C882.206 110.072 881.543 109.513 881.014 108.821C879.998 107.497 879.542 105.79 878.453 104.539C877.246 103.156 875.392 102.493 873.582 102.214C871.772 101.934 869.918 101.993 868.093 101.772C866.607 101.596 865.136 101.228 863.635 101.095C859.853 100.772 855.953 102.081 853.128 104.627C851.465 106.128 850.14 108.115 849.875 110.322C849.611 112.529 850.596 114.972 852.554 116.032C854.526 117.091 857.601 116.297 858.455 114.236C859.691 116.311 860.868 115.031 862.354 112.265C862.354 112.265 861.957 115.325 864.223 117.106C865.812 113.427 871.419 115.031 869.859 119.357C868.196 124.155 867.549 126.097 872.361 127.127V127.157Z" fill="#0D2135"/>
<path d="M853.691 187.032C859.047 187.194 863.815 183.648 865.228 178.483C867.17 169.638 868.274 160.647 868.539 151.597C868.73 146.785 864.786 142.679 861.181 142.768C859.371 142.768 852.749 143.106 851.807 151.597C850.644 162.148 849.894 168.829 849.408 172.199C844.228 174.259 838.931 176.025 833.56 177.497C832.117 177.923 831.131 179.233 831.146 180.734V187.032H853.691Z" fill="#D4D698"/>
<path d="M837.268 174.512C837.062 174.424 835.09 174.63 833.824 174.777C833.309 174.836 833.03 175.395 833.28 175.852C833.383 176.043 833.574 176.175 833.78 176.205L838.666 177.073L837.268 174.512Z" fill="#61382D"/>
<path d="M831.883 170.495L828.513 174.822C828.072 175.381 828.337 176.205 829.028 176.411C829.381 176.514 829.779 176.411 830.044 176.146L834.149 171.982" fill="#61382D"/>
<path d="M850.365 169.053L843.375 171.142C841.874 171.599 840.255 171.525 838.784 170.966L833.795 169.053C832.942 168.729 831.97 168.803 831.176 169.274L822.7 174.321C822.096 174.674 822.008 175.513 822.523 175.999C822.817 176.278 823.244 176.352 823.612 176.219L832.309 172.908L836.724 176.16C838.151 177.205 839.976 177.558 841.683 177.102L845.038 176.219L853.544 176.528L850.365 169.053Z" fill="#955646"/>
<path d="M878.364 131.071L869.594 134.603C864.958 136.472 861.78 140.783 861.353 145.743L859.646 165.829L846.034 169.405C847.462 173.82 849.242 179.177 852.009 180.751C861.927 179.441 868.373 177.69 868.373 177.69L871.007 186.255C873.391 192.7 882.956 194.142 889.754 188.889C896.568 183.635 907.913 193.671 910.18 177.896C912.446 162.121 905.397 139.43 898.348 134.544C891.299 129.644 884.589 128.57 878.35 131.086L878.364 131.071Z" fill="#606E30"/>
</svg>
