<svg width="1130" height="612" viewBox="0 0 1130 612" fill="none" xmlns="http://www.w3.org/2000/svg">
<g clip-path="url(#clip0_5402_651)">
<rect width="1130" height="612" fill="white"/>
<path d="M854.551 26C964.22 26 1053.1 114.883 1053.1 224.551H656C656 114.883 744.883 26 854.551 26Z" fill="#E8F3FF"/>
<path d="M687.859 182.669L691.458 224.551H902.636V212.111L845.77 212.142L843.195 182.669H687.859Z" fill="#BAD4D8"/>
<path d="M687.102 114H831.331L836.016 118.654L843.741 210.173H694.827L691.756 207.071L684 117.102L687.102 114Z" fill="white"/>
<path d="M830.911 115.968C832.803 116.061 834.385 117.489 834.634 119.381L842.079 206.247C842.079 207.023 841.862 207.767 841.459 208.419C840.9 208.76 840.249 208.977 839.597 209.039H696.703C694.81 208.946 693.228 207.519 692.98 205.627L685.534 118.761C685.534 117.985 685.751 117.551 686.155 116.899C686.62 116.341 687.302 116.03 688.016 115.968H830.911ZM830.911 112.866H687.985C684.914 112.835 682.401 115.286 682.37 118.357C682.37 118.605 682.37 118.854 682.401 119.071L689.846 205.937C690.25 209.412 693.166 212.08 696.672 212.142H839.628C842.7 212.173 845.213 209.722 845.244 206.65C845.244 206.402 845.244 206.154 845.213 205.937L837.767 119.071C837.271 115.627 834.416 113.052 830.942 112.866H830.911Z" fill="#5B696B"/>
<path d="M860.941 138.088C860.165 138.802 858.8 138.678 858.179 139.546C857.559 140.415 857.807 140.725 857.497 141.253C857.094 141.811 856.535 142.245 855.946 142.587C854.581 143.61 853.96 145.348 854.364 146.992C855.418 150.622 858.024 157.199 857.807 161.418L858.614 177.767L876.08 175.255C876.08 175.255 871.551 161.015 872.14 157.509C872.264 154.252 873.443 151.149 875.491 148.605L878.345 143.579C878.934 142.742 878.562 139.484 878.655 138.492C878.345 136.475 875.553 138.119 875.553 139.546L875.273 141.656L873.722 143.673C871.799 140.384 873.722 135.793 871.613 132.566C870.775 131.294 869.1 130.922 867.797 131.666C867.052 132.225 866.711 133.342 865.811 133.652C864.384 133.652 862.709 133.652 862.026 135.203C861.623 136.165 861.716 137.375 860.941 138.088Z" fill="#A96C3F"/>
<path d="M755.276 249.37H656V407.591H755.276V249.37Z" fill="#BAD4D8"/>
<path d="M755.276 280.394H671.512V407.59H755.276V280.394Z" fill="#526A6E"/>
<path d="M727.355 395.181H724.252V407.591H727.355V395.181Z" fill="#D8DFE1"/>
<path d="M687.023 395.181H683.921V407.591H687.023V395.181Z" fill="#D8DFE1"/>
<path d="M725.803 420C730.087 420 733.559 416.528 733.559 412.244C733.559 407.961 730.087 404.488 725.803 404.488C721.52 404.488 718.047 407.961 718.047 412.244C718.047 416.528 721.52 420 725.803 420Z" fill="#B0BFBC"/>
<path d="M725.804 416.122C727.945 416.122 729.682 414.386 729.682 412.244C729.682 410.102 727.945 408.366 725.804 408.366C723.662 408.366 721.926 410.102 721.926 412.244C721.926 414.386 723.662 416.122 725.804 416.122Z" fill="#546366"/>
<path d="M685.473 420C689.756 420 693.229 416.528 693.229 412.244C693.229 407.961 689.756 404.488 685.473 404.488C681.189 404.488 677.717 407.961 677.717 412.244C677.717 416.528 681.189 420 685.473 420Z" fill="#B0BFBC"/>
<path d="M685.472 416.122C687.614 416.122 689.35 414.386 689.35 412.244C689.35 410.102 687.614 408.366 685.472 408.366C683.33 408.366 681.594 410.102 681.594 412.244C681.594 414.386 683.33 416.122 685.472 416.122Z" fill="#546366"/>
<path d="M733.559 394.406H677.717V401.386H733.559V394.406Z" fill="#B0BFBC"/>
<path d="M733.559 299.008H677.717V395.181H733.559V299.008Z" fill="#D8DFE1"/>
<path d="M733.559 354.85H683.921V367.26H733.559V354.85Z" fill="#546366"/>
<path d="M690.126 364.157C691.839 364.157 693.228 362.768 693.228 361.055C693.228 359.342 691.839 357.953 690.126 357.953C688.412 357.953 687.023 359.342 687.023 361.055C687.023 362.768 688.412 364.157 690.126 364.157Z" fill="#D2FF8A"/>
<path d="M711.843 308.315H677.717V311.417H711.843V308.315Z" fill="#A3A3A3"/>
<path d="M711.843 314.52H677.717V317.622H711.843V314.52Z" fill="#A3A3A3"/>
<path d="M711.843 320.724H677.717V323.827H711.843V320.724Z" fill="#A3A3A3"/>
<path d="M711.843 326.929H677.717V330.032H711.843V326.929Z" fill="#A3A3A3"/>
<path d="M711.843 333.134H677.717V336.236H711.843V333.134Z" fill="#A3A3A3"/>
<path fill-rule="evenodd" clip-rule="evenodd" d="M938.315 224.551H656V249.37H938.315V224.551Z" fill="#A0B4B7"/>
<path d="M857.468 165.606H875.648L879.774 186.051C880.022 187.323 881.263 188.161 882.566 187.881C883.497 187.695 884.211 186.982 884.397 186.051L892.432 153.973C894.386 146.062 900.25 139.702 907.944 137.096C911.667 130.55 918.244 126.175 925.72 125.276C925.503 125.276 955.999 120.188 970.239 171.563C986.899 231.873 973.652 270.839 973.652 270.839L902.297 242.917V221.201H857.468V165.606Z" fill="#BEBF8C"/>
<path d="M924.787 115.969C926.028 113.673 926.959 111.191 927.486 108.616C932.76 82.6803 900.899 62.9803 880.113 82.8354C878.841 84.0764 877.724 85.4724 876.763 86.9926C873.722 91.46 872.295 96.8271 872.699 102.225C872.699 106.537 873.474 106.91 870.837 111.253C870 112.618 869.162 113.239 869.224 115.255C869.224 116.62 870.403 117.427 871.551 118.357C873.195 119.567 873.35 120.064 873.505 123.011C873.412 125.989 874.219 128.968 875.832 131.48C880.486 136.382 886.938 131.48 892.988 137.685C896.432 141.47 900.527 144.634 905.087 146.992C905.087 146.992 911.044 128.099 927.114 125.524C924.942 124.128 923.763 121.646 924.012 119.071C924.012 116.248 924.787 115.969 924.787 115.969Z" fill="#A96C3F"/>
<path d="M874.253 91.522C876.859 92.3906 878.689 99.2779 883.56 95.9273C886.476 93.9728 893.736 94.9656 891.223 102.132C890.664 103.869 891.378 105.762 892.991 106.661C894.108 104.862 896.031 103.714 898.141 103.559C901.833 103.249 905.059 106.01 905.37 109.702V109.764C906.455 114.045 907.107 122.173 924.759 122.173C925.163 114.604 936.238 113.89 933.322 103.311C930.406 92.7319 935.338 92.5147 928.823 87.3648C924.201 83.704 922.464 77.3131 916.259 74.7071C910.054 72.1012 908.224 74.7071 904.004 72.5355C897.8 69.4331 895.659 71.2635 891.595 72.5355C885.39 74.5831 886.942 77.189 876.518 78.2438C867.117 79.2986 869.599 89.9708 874.253 91.522Z" fill="#2D1D19"/>
<path d="M938.191 317.591L961.459 413.795H952.151L927.333 317.622L938.191 317.591Z" fill="#D6CEC2"/>
<path d="M882.348 317.591L866.588 382.772H876.392L893.207 317.622L882.348 317.591Z" fill="#D6CEC2"/>
<path d="M945.14 299.008H872.296C867.567 299.008 863.734 302.841 863.734 307.57V309.059C863.734 313.788 867.567 317.622 872.296 317.622H945.14C949.869 317.622 953.702 313.788 953.702 309.059V307.57C953.702 302.841 949.869 299.008 945.14 299.008Z" fill="#6E6558"/>
<path d="M896.434 379.669L891.625 360.838H863.704L868.512 379.669H896.434Z" fill="#A96C3F"/>
<path d="M803.859 369.09L807.396 354.602H832.215L828.647 368.842L803.859 369.09Z" fill="#A96C3F"/>
<path d="M846.452 357.736L868.169 261.562H840.123C825.884 261.562 813.753 271.893 811.52 285.947L801.406 348.615C800.723 352.927 803.671 356.96 807.952 357.643C808.355 357.705 808.758 357.736 809.162 357.736H846.483H846.452Z" fill="#264666"/>
<path d="M825.234 392.079H797.312L803.083 369.09C803.331 368.004 804.293 367.26 805.41 367.26H827.25C828.584 367.26 829.639 368.315 829.639 369.649C829.639 369.804 829.639 369.959 829.608 370.114L825.265 392.079H825.234Z" fill="#DBE7E9"/>
<path d="M866.339 392.358V379.669C866.339 377.963 867.735 376.567 869.442 376.567H895.16C896.742 376.567 898.045 377.746 898.232 379.297L900 394.468C900.217 396.422 898.604 398.097 896.649 397.911L869.162 395.398C867.549 395.243 866.339 393.909 866.339 392.296V392.358Z" fill="#DBE7E9"/>
<path d="M830.351 386.65C831.064 389.473 830.878 392.451 829.823 395.181C828.489 398.873 824.984 401.355 821.044 401.386C807.548 401.51 773.422 401.758 773.112 401.386C766.473 400.983 762.843 391.21 770.754 389.504C781.737 387.673 794.891 380.879 802.802 370.114C807.331 380.476 818.251 381.624 822.595 378.863C824.611 377.498 827.341 378.025 828.706 380.042C829.048 380.538 829.265 381.065 829.389 381.624C829.668 383.206 830.289 386.526 830.351 386.65Z" fill="#6E7769"/>
<path d="M903.197 395.615C905.462 402.968 901.366 410.786 893.983 413.082C892.68 413.485 891.315 413.702 889.95 413.702C870.777 413.826 843.724 413.919 843.414 413.578C836.155 413.175 832.184 403.65 840.839 401.944C852.876 400.114 857.654 396.422 866.31 385.657C876.485 395.212 886.103 396.174 894.696 386.867C896.62 384.788 900.219 386.091 901.025 388.759C901.708 390.807 902.452 393.164 903.197 395.615Z" fill="#6E7769"/>
<path d="M891.625 367.043H855.172C851.263 367.043 847.695 364.778 846.051 361.21L818.533 301.862C818.533 301.862 802.68 268.76 827.84 261.531C861.718 251.79 902.514 243.134 902.514 243.134L973.651 270.838C969.215 287.467 954.137 299.039 936.919 298.977H871.522L895.906 360.683C896.837 363.072 895.627 365.771 893.238 366.701C892.742 366.888 892.183 367.012 891.625 367.012V367.043Z" fill="#3A5570"/>
<path d="M1026.3 394.902C1024.53 383.144 1028.28 354.85 1028.28 354.85H1001.88C1005.98 376.598 1007.9 388.387 1003.93 394.902L1003.49 401.975L1023.23 401.293L1026.3 394.902Z" fill="#955646"/>
<path d="M1000.08 394.902C998.315 383.144 1000.36 354.85 1000.36 354.85H977.095C981.19 376.598 981.686 388.387 977.746 394.902L977.312 401.975L997.043 401.293L1000.11 394.902H1000.08Z" fill="#955646"/>
<path d="M1029.84 202.835C1042.68 248.067 1042.25 354.819 1042.25 354.819H955.379L958.481 202.835H1029.84Z" fill="#BC792A"/>
<path d="M970.704 76.1652C970.704 76.1652 970.704 76.1031 970.704 76.0411C970.704 75.948 970.735 75.8549 970.766 75.7308C971.479 70.8601 970.859 65.7412 968.656 60.9636C962.607 47.8406 947.064 42.1012 933.941 48.1508C921.717 53.7661 915.916 67.6337 920.042 80.1052C920.042 80.1052 920.042 80.1672 920.073 80.1982C920.228 80.6326 920.414 81.0669 920.57 81.4702C922.462 86.8993 921.19 90.6532 922.245 92.98C923.393 95.4929 926.526 93.3522 928.232 97.8196C931.583 105.576 933.32 106.32 942.348 105.482C951.469 104.614 954.913 120.312 954.913 120.312L983.392 106.972C965.368 98.1609 968.284 92.2974 970.735 76.1962L970.704 76.1652Z" fill="#955646"/>
<path d="M1026.3 394.902C1014.04 394.685 1014.14 402.968 1003.96 394.902C1002.84 397.291 1001.73 399.121 1000.67 400.548L1000.08 394.902C987.828 394.685 987.921 402.968 977.745 394.902C968.81 413.764 961.458 399.059 956.215 413.795H1010.57L1014.97 409.762L1015.75 413.795H1028.28L1026.33 394.902H1026.3Z" fill="#0D2135"/>
<circle cx="740.577" cy="191.577" r="7.12997" transform="rotate(-3.71368 740.577 191.577)" fill="#D4D698"/>
<path d="M742.788 192.787C742.831 192.47 743.287 190.116 743.159 189.5C743.079 189.112 742.923 188.743 742.698 188.417C742.473 188.09 742.184 187.812 741.849 187.599C741.514 187.386 741.139 187.243 740.747 187.178C740.355 187.113 739.954 187.127 739.568 187.22C739.202 187.289 738.856 187.44 738.557 187.662C738.258 187.884 738.013 188.17 737.842 188.501C737.495 189.087 737.346 189.769 737.418 190.446C737.424 190.53 737.429 190.609 737.434 190.684C737.475 191.322 737.273 191.708 737.334 191.997C737.395 192.287 737.802 192.155 737.884 192.711C738.066 193.701 738.135 193.721 739.155 193.86C740.176 193.999 739.578 196.107 739.578 196.107L743.789 195.206C742.979 194.106 742.627 193.995 742.788 192.787Z" fill="#FFDAC7"/>
<path d="M737.82 190.393C737.816 190.324 737.746 190.272 737.664 190.277C737.582 190.283 737.519 190.343 737.524 190.412L737.604 191.644C737.608 191.713 737.678 191.765 737.76 191.76C737.842 191.754 737.905 191.694 737.9 191.624L737.82 190.393Z" fill="#B24020"/>
<path d="M739.649 191.042L739.629 190.745L737.851 190.861L737.87 191.157L739.649 191.042Z" fill="#B24020"/>
<path d="M737.539 189.503C738.459 189.443 739.564 189.485 739.699 191.558C740.052 191.505 739.983 190.942 740.374 190.728C740.472 190.659 740.584 190.614 740.701 190.598C740.818 190.581 740.937 190.593 741.05 190.632C741.162 190.671 741.264 190.736 741.348 190.823C741.433 190.91 741.496 191.015 741.535 191.132C741.768 191.848 741.882 192.484 742.147 192.82C742.186 192.87 742.238 192.908 742.296 192.929C742.355 192.949 742.418 192.952 742.478 192.937C742.538 192.921 742.592 192.888 742.635 192.842C742.677 192.795 742.706 192.737 742.717 192.674C742.816 192.154 742.968 191.646 743.17 191.16C743.808 189.504 743.195 188.181 742.312 187.499C741.837 187.15 741.285 186.93 740.707 186.861C740.13 186.792 739.545 186.875 739.009 187.103C738.591 187.268 738.212 187.52 737.894 187.845C737.576 188.169 737.327 188.559 737.162 188.989C737.143 189.05 737.138 189.114 737.148 189.177C737.158 189.239 737.183 189.298 737.22 189.349C737.257 189.4 737.306 189.44 737.362 189.467C737.417 189.494 737.478 189.506 737.539 189.503Z" fill="#1D2226"/>
<path fill-rule="evenodd" clip-rule="evenodd" d="M738.487 198.396C738.682 197.831 738.88 197.343 739.054 196.916C739.059 196.905 739.064 196.894 739.068 196.882L738.73 196.087C738.678 195.968 738.65 195.839 738.649 195.708C738.647 195.577 738.671 195.448 738.721 195.327C738.77 195.207 738.843 195.098 738.935 195.007C739.027 194.916 739.137 194.845 739.257 194.799L742.795 193.517L743.682 194.94C744.173 195.396 744.819 196.013 745.43 196.8C744.27 197.88 742.744 198.581 741.038 198.692C740.151 198.749 739.29 198.642 738.487 198.396Z" fill="#493D57"/>
<circle cx="737.502" cy="162.505" r="7.12997" transform="rotate(-3.07518 737.502 162.505)" fill="#BAD4D8"/>
<path d="M734.396 160.831C734.368 160.016 734.649 159.222 735.18 158.614C735.711 158.007 736.452 157.631 737.248 157.566C739.628 157.383 740.931 160.725 739.726 162.811C739.358 163.387 739.192 164.075 739.257 164.761C739.321 165.447 739.612 166.091 740.081 166.587L740.023 166.616L737.393 168.365L735.785 168.063C735.785 168.063 736.952 164.868 735.618 164.401C734.619 164.05 734.546 164.028 734.517 163.004C734.523 162.414 734.094 162.514 734.075 162.166C734.056 161.818 734.36 161.505 734.396 160.831Z" fill="#BF7461"/>
<path fill-rule="evenodd" clip-rule="evenodd" d="M735.124 169.229L735.824 167.927C736.729 167.899 737.238 167.401 737.786 166.866C738.258 166.405 738.759 165.916 739.568 165.675C739.681 165.802 739.828 165.948 739.996 166.116C740.494 166.613 741.18 167.298 741.753 168.23C740.666 169.039 739.338 169.547 737.884 169.625C736.916 169.677 735.984 169.534 735.124 169.229Z" fill="#F3BA64"/>
<path fill-rule="evenodd" clip-rule="evenodd" d="M743.15 167.012C742.249 166.543 741.953 165.615 741.663 164.705C741.384 163.827 741.109 162.965 740.302 162.546C739.487 164.073 737.698 163.287 737.972 161.627C737.995 161.53 737.999 161.429 737.982 161.33C737.965 161.231 737.928 161.137 737.874 161.052C737.82 160.968 737.749 160.896 737.666 160.839C737.583 160.783 737.489 160.744 737.391 160.724C737.292 160.705 737.191 160.706 737.092 160.726C736.994 160.747 736.901 160.787 736.819 160.845C736.736 160.902 736.666 160.976 736.613 161.061C736.56 161.146 736.524 161.24 736.509 161.339C735.896 161.16 735.361 160.78 734.99 160.262C734.764 159.946 734.663 159.557 734.708 159.171C734.753 158.785 734.94 158.429 735.232 158.173C735.755 157.721 736.419 157.464 737.111 157.446C738.912 157.349 740.803 158.679 740.402 160.917C742.008 159.499 744.463 160.743 744.735 163.113C744.61 164.578 744.038 165.927 743.15 167.012Z" fill="#61382D"/>
<path d="M690.989 204.843L685.043 132.5H721.54L727.957 209.5H693.783L690.989 204.843Z" fill="#F4F6F8" stroke="#BFBFBF"/>
<path d="M691 154.5H723.5" stroke="#BFBFBF"/>
<path d="M693 174H725.5" stroke="#BFBFBF"/>
<path d="M694 193H726.5" stroke="#BFBFBF"/>
<path d="M685 116H835.007L837 135L685.997 134.367L685 116Z" fill="#004182"/>
<path d="M750 153H782.564L783.064 157H750.366L750 153Z" fill="#D9D9D9"/>
<path d="M805.822 156.5L805.548 153.5H820.122L820.497 156.5H805.822Z" stroke="#689FBE"/>
<path d="M824 153L829 153L829.5 157H824.366L824 153Z" fill="#D9D9D9"/>
<path d="M808.822 186.5L808.548 183.5H823.122L823.497 186.5H808.822Z" stroke="#689FBE"/>
<path d="M827 183H832L832.5 187H827.366L827 183Z" fill="#D9D9D9"/>
<path d="M692 158H720.5L721 162H692.366L692 158Z" fill="#C9CBCC"/>
<path d="M694 178H722.5L723 182H694.366L694 178Z" fill="#C9CBCC"/>
<path d="M695 196H723.5L724 200H695.366L695 196Z" fill="#C9CBCC"/>
<path d="M690 147H712.652L713 151H690.255L690 147Z" fill="#E3E7ED"/>
<path d="M720.5 147.5H715L718 150L720.5 147.5Z" fill="#616365"/>
<path d="M750.563 159H787.563L788.063 163H750.929L750.563 159Z" fill="#D9D9D9"/>
<path d="M751.063 165L781.563 165L782.063 169L751.441 169L751.063 165Z" fill="#D9D9D9"/>
<path d="M753 183H791L791.5 187H753.366L753 183Z" fill="#D9D9D9"/>
<path d="M753.563 189H786.563L787.063 193H753.929L753.563 189Z" fill="#D9D9D9"/>
<path d="M754.063 195L789 195L789.5 199H754.441L754.063 195Z" fill="#D9D9D9"/>
<path d="M685 132.48L837.497 132L838 144H686.007L685 132.48Z" fill="white"/>
<path d="M686.465 143.5L685.545 132.978L837.017 132.502L837.479 143.5H686.465Z" stroke="black" stroke-opacity="0.25"/>
<rect x="709" y="166" width="13" height="5" rx="2.5" fill="#9AD8F3"/>
<rect x="693" y="166" width="13" height="5" rx="2.5" fill="#9AD8F3"/>
<rect x="698.714" y="185" width="0.571429" height="4" fill="#757779"/>
<rect x="701" y="186.714" width="0.571429" height="4" transform="rotate(90 701 186.714)" fill="#757779"/>
<rect x="700.714" y="203" width="0.571429" height="4" fill="#757779"/>
<rect x="703" y="204.714" width="0.571429" height="4" transform="rotate(90 703 204.714)" fill="#757779"/>
<path d="M690.303 135.5H736.5L736.803 141H690.524L690.303 135.5Z" fill="#0075AE"/>
<path d="M690 120L696.198 120L696.5 125.5H690.222L690 120Z" fill="white"/>
<path d="M740.702 140.5L740.521 136H760.224L760.472 140.5H740.702Z" stroke="#0075AE"/>
<path d="M705 125H719.784L720 130H705.158L705 125Z" fill="#195A87"/>
<path d="M739 125H753.784L754 130H739.158L739 125Z" fill="#195A87"/>
<path d="M773 125H787.784L788 130H773.158L773 125Z" fill="#195A87"/>
<path d="M722 125H736.784L737 130H722.158L722 125Z" fill="#195A87"/>
<path d="M756 125H770.784L771 130H756.158L756 125Z" fill="#195A87"/>
<path d="M790 125H804.784L805 130H790.158L790 125Z" fill="#195A87"/>
<path d="M764.702 140.5L764.521 136H794.224L794.472 140.5H764.702Z" stroke="#0075AE"/>
<path d="M830.541 116.103C832.434 116.196 834.016 117.623 834.264 119.515L841.71 206.381C841.71 207.157 841.492 207.902 841.089 208.553C840.531 208.894 839.879 209.111 839.228 209.174H696.333C694.44 209.08 692.858 207.653 692.61 205.761L685.164 118.895C685.164 118.119 685.382 117.685 685.785 117.033C686.25 116.475 686.933 116.165 687.646 116.103H830.541ZM830.541 113H687.615C684.544 112.969 682.031 115.42 682 118.491C682 118.74 682 118.988 682.031 119.205L689.477 206.071C689.88 209.546 692.796 212.214 696.302 212.276H839.259C842.33 212.307 844.843 209.856 844.874 206.785C844.874 206.537 844.874 206.288 844.843 206.071L837.397 119.205C836.901 115.761 834.047 113.186 830.572 113H830.541Z" fill="#5B696B"/>
<circle cx="831.5" cy="154.5" r="0.5" fill="#D9D9D9"/>
<circle cx="833" cy="154.5" r="0.5" fill="#D9D9D9"/>
<circle cx="834.5" cy="154.5" r="0.5" fill="#D9D9D9"/>
<circle cx="834.5" cy="184.5" r="0.5" fill="#D9D9D9"/>
<circle cx="836" cy="184.5" r="0.5" fill="#D9D9D9"/>
<circle cx="837.5" cy="184.5" r="0.5" fill="#D9D9D9"/>
<rect x="574.5" y="429.5" width="548" height="173" rx="86.5" fill="#D7EBCE" stroke="white" stroke-width="5"/>
<rect x="249.5" y="429.5" width="515" height="173" rx="86.5" fill="#DCE6F1" stroke="white" stroke-width="5"/>
<rect x="4.5" y="428.5" width="402" height="175" rx="87.5" fill="#FCE2BA" stroke="white" stroke-width="5"/>
<path d="M466.36 487.8H484.288V489.816H476.44V513H474.208V489.816H466.36V487.8ZM496.133 513V509.904C495.125 511.956 492.821 513.432 490.049 513.432C485.549 513.432 482.093 509.94 482.093 505.08C482.093 500.292 485.549 496.764 490.013 496.764C492.785 496.764 495.161 498.276 496.169 500.328V497.196H498.293V513H496.133ZM490.229 498.636C486.701 498.636 484.253 501.48 484.253 505.08C484.253 508.716 486.701 511.56 490.229 511.56C493.757 511.56 496.205 508.716 496.205 505.08C496.205 501.48 493.757 498.636 490.229 498.636ZM509.994 497.052V499.068C509.742 499.032 509.454 498.996 508.914 498.996C506.826 498.996 504.63 500.436 504.63 504.396V513H502.542V497.196H504.558V500.184C505.206 498.528 506.574 496.98 508.842 496.98C509.382 496.98 509.706 497.016 509.994 497.052ZM524.891 497.196H527.015V512.64C527.015 517.536 523.091 519.588 518.879 519.588C516.647 519.588 514.415 519.12 512.579 518.148L512.687 515.988C514.343 516.96 516.539 517.68 518.807 517.68C522.119 517.68 524.891 516.168 524.891 512.208V509.868C523.883 511.92 521.543 513.396 518.807 513.396C514.307 513.396 510.851 509.94 510.851 505.08C510.851 500.256 514.307 496.764 518.771 496.764C521.543 496.764 523.919 498.276 524.891 500.328V497.196ZM518.951 498.636C515.459 498.636 512.975 501.444 512.975 505.08C512.975 508.716 515.459 511.56 518.951 511.56C522.479 511.56 524.927 508.716 524.927 505.08C524.927 501.444 522.479 498.636 518.951 498.636ZM543.937 508.392L545.737 509.292C544.045 512.28 541.309 513.432 538.321 513.432C533.641 513.432 530.293 509.94 530.293 505.116C530.293 500.292 533.821 496.764 538.321 496.764C542.533 496.764 546.277 499.752 546.277 505.656V505.764H532.489C532.741 509.04 535.045 511.524 538.357 511.524C540.589 511.524 542.533 510.696 543.937 508.392ZM538.321 498.636C535.153 498.636 532.885 500.976 532.525 504.072H544.009C543.721 501.012 541.489 498.636 538.321 498.636ZM550.061 490.572H552.221V497.196H556.109V498.996H552.221V509.688C552.221 510.948 552.869 511.416 554.021 511.416C554.705 511.416 555.605 511.236 556.109 511.056V512.892C555.533 513.036 554.453 513.252 553.625 513.252C551.357 513.252 550.061 512.172 550.061 510.012V498.996H547.397V497.196H550.061V490.572ZM570.945 516.024C570.153 518.076 568.749 519.516 566.049 519.516C565.365 519.516 564.537 519.408 563.745 519.192V517.284C564.501 517.536 565.185 517.68 565.941 517.68C567.705 517.68 568.461 516.708 569.109 515.124L569.973 513.108L563.637 497.196H565.977L571.089 510.516L576.237 497.196H578.469L570.945 516.024ZM579.406 505.08C579.406 500.292 583.006 496.764 587.542 496.764C592.042 496.764 595.678 500.292 595.678 505.08C595.678 509.94 592.042 513.432 587.542 513.432C583.006 513.432 579.406 509.94 579.406 505.08ZM593.482 505.08C593.482 501.48 591.07 498.636 587.542 498.636C583.978 498.636 581.566 501.48 581.566 505.08C581.566 508.716 583.978 511.56 587.542 511.56C591.07 511.56 593.482 508.716 593.482 505.08ZM605.564 513.432C601.1 513.432 598.796 510.696 598.796 507.384V497.196H600.956V507.168C600.956 510.012 602.9 511.56 605.564 511.56C608.192 511.56 610.1 510.156 610.1 507.276V497.196H612.26V507.384C612.26 510.696 609.992 513.432 605.564 513.432ZM623.83 497.052V499.068C623.578 499.032 623.29 498.996 622.75 498.996C620.662 498.996 618.466 500.436 618.466 504.396V513H616.378V497.196H618.394V500.184C619.042 498.528 620.41 496.98 622.678 496.98C623.218 496.98 623.542 497.016 623.83 497.052ZM633.26 491.508C633.26 490.464 634.088 489.636 635.096 489.636C636.14 489.636 636.968 490.464 636.968 491.508C636.968 492.516 636.14 493.344 635.096 493.344C634.088 493.344 633.26 492.516 633.26 491.508ZM634.196 515.412V498.996H631.676V497.196H636.32V515.52C636.32 518.652 634.304 519.48 632.468 519.48C631.784 519.48 631.136 519.336 630.632 519.12V517.356C631.136 517.536 631.676 517.644 632.144 517.644C633.368 517.644 634.196 516.924 634.196 515.412ZM639.593 505.08C639.593 500.292 643.193 496.764 647.729 496.764C652.229 496.764 655.865 500.292 655.865 505.08C655.865 509.94 652.229 513.432 647.729 513.432C643.193 513.432 639.593 509.94 639.593 505.08ZM653.669 505.08C653.669 501.48 651.257 498.636 647.729 498.636C644.165 498.636 641.753 501.48 641.753 505.08C641.753 508.716 644.165 511.56 647.729 511.56C651.257 511.56 653.669 508.716 653.669 505.08ZM675.328 505.08C675.328 509.94 671.836 513.432 667.336 513.432C664.6 513.432 662.296 511.956 661.252 509.904V513H659.128V487.8H661.252V500.328C662.26 498.276 664.636 496.764 667.372 496.764C671.872 496.764 675.328 500.292 675.328 505.08ZM667.192 498.636C663.664 498.636 661.216 501.48 661.216 505.08C661.216 508.716 663.664 511.56 667.192 511.56C670.684 511.56 673.168 508.716 673.168 505.08C673.168 501.48 670.684 498.636 667.192 498.636ZM468.15 529.425H469.65V534.025H472.35V535.275H469.65V542.7C469.65 543.575 470.1 543.9 470.9 543.9C471.375 543.9 472 543.775 472.35 543.65V544.925C471.95 545.025 471.2 545.175 470.625 545.175C469.05 545.175 468.15 544.425 468.15 542.925V535.275H466.3V534.025H468.15V529.425ZM473.221 539.5C473.221 536.175 475.721 533.725 478.871 533.725C481.996 533.725 484.521 536.175 484.521 539.5C484.521 542.875 481.996 545.3 478.871 545.3C475.721 545.3 473.221 542.875 473.221 539.5ZM482.996 539.5C482.996 537 481.321 535.025 478.871 535.025C476.396 535.025 474.721 537 474.721 539.5C474.721 542.025 476.396 544 478.871 544C481.321 544 482.996 542.025 482.996 539.5ZM492.54 529.425H494.04V534.025H496.74V535.275H494.04V542.7C494.04 543.575 494.49 543.9 495.29 543.9C495.765 543.9 496.39 543.775 496.74 543.65V544.925C496.34 545.025 495.59 545.175 495.015 545.175C493.44 545.175 492.54 544.425 492.54 542.925V535.275H490.69V534.025H492.54V529.425ZM499.98 536.95V545H498.505V527.5H499.98V535.55C500.98 534.4 502.455 533.725 503.805 533.725C506.205 533.725 507.83 535.225 507.83 537.575V545H506.355V537.975C506.355 535.95 505.03 535.075 503.58 535.075C502.205 535.075 500.93 535.825 499.98 536.95ZM519.488 541.8L520.738 542.425C519.563 544.5 517.663 545.3 515.588 545.3C512.338 545.3 510.013 542.875 510.013 539.525C510.013 536.175 512.463 533.725 515.588 533.725C518.513 533.725 521.113 535.8 521.113 539.9V539.975H511.538C511.713 542.25 513.313 543.975 515.613 543.975C517.163 543.975 518.513 543.4 519.488 541.8ZM515.588 535.025C513.388 535.025 511.813 536.65 511.563 538.8H519.538C519.338 536.675 517.788 535.025 515.588 535.025ZM533.539 533.925V535.325C533.364 535.3 533.164 535.275 532.789 535.275C531.339 535.275 529.814 536.275 529.814 539.025V545H528.364V534.025H529.764V536.1C530.214 534.95 531.164 533.875 532.739 533.875C533.114 533.875 533.339 533.9 533.539 533.925ZM536.671 531.35C535.946 531.35 535.371 530.775 535.371 530.075C535.371 529.35 535.946 528.775 536.671 528.775C537.371 528.775 537.971 529.35 537.971 530.075C537.971 530.775 537.371 531.35 536.671 531.35ZM536.021 545V535.275H534.296V534.025H537.521V545H536.021ZM549.548 534.025H551.023V544.75C551.023 548.15 548.298 549.575 545.373 549.575C543.823 549.575 542.273 549.25 540.998 548.575L541.073 547.075C542.223 547.75 543.748 548.25 545.323 548.25C547.623 548.25 549.548 547.2 549.548 544.45V542.825C548.848 544.25 547.223 545.275 545.323 545.275C542.198 545.275 539.798 542.875 539.798 539.5C539.798 536.15 542.198 533.725 545.298 533.725C547.223 533.725 548.873 534.775 549.548 536.2V534.025ZM545.423 535.025C542.998 535.025 541.273 536.975 541.273 539.5C541.273 542.025 542.998 544 545.423 544C547.873 544 549.573 542.025 549.573 539.5C549.573 536.975 547.873 535.025 545.423 535.025ZM555.449 536.95V545H553.974V527.5H555.449V535.55C556.449 534.4 557.924 533.725 559.274 533.725C561.674 533.725 563.299 535.225 563.299 537.575V545H561.824V537.975C561.824 535.95 560.499 535.075 559.049 535.075C557.674 535.075 556.399 535.825 555.449 536.95ZM566.685 529.425H568.185V534.025H570.885V535.275H568.185V542.7C568.185 543.575 568.635 543.9 569.435 543.9C569.91 543.9 570.535 543.775 570.885 543.65V544.925C570.485 545.025 569.735 545.175 569.16 545.175C567.585 545.175 566.685 544.425 566.685 542.925V535.275H564.835V534.025H566.685V529.425ZM579.204 542.85V549.35H577.729V534.025H579.204V536.2C579.904 534.775 581.554 533.725 583.454 533.725C586.579 533.725 588.979 536.175 588.979 539.5C588.979 542.875 586.554 545.3 583.429 545.3C581.529 545.3 579.929 544.275 579.204 542.85ZM583.329 535.025C580.879 535.025 579.179 537 579.179 539.5C579.179 542.025 580.879 544 583.329 544C585.754 544 587.479 542.025 587.479 539.5C587.479 537 585.754 535.025 583.329 535.025ZM600.054 541.8L601.304 542.425C600.129 544.5 598.229 545.3 596.154 545.3C592.904 545.3 590.579 542.875 590.579 539.525C590.579 536.175 593.029 533.725 596.154 533.725C599.079 533.725 601.679 535.8 601.679 539.9V539.975H592.104C592.279 542.25 593.879 543.975 596.179 543.975C597.729 543.975 599.079 543.4 600.054 541.8ZM596.154 535.025C593.954 535.025 592.379 536.65 592.129 538.8H600.104C599.904 536.675 598.354 535.025 596.154 535.025ZM603.177 539.5C603.177 536.175 605.677 533.725 608.827 533.725C611.952 533.725 614.477 536.175 614.477 539.5C614.477 542.875 611.952 545.3 608.827 545.3C605.677 545.3 603.177 542.875 603.177 539.5ZM612.952 539.5C612.952 537 611.277 535.025 608.827 535.025C606.352 535.025 604.677 537 604.677 539.5C604.677 542.025 606.352 544 608.827 544C611.277 544 612.952 542.025 612.952 539.5ZM618.218 542.85V549.35H616.743V534.025H618.218V536.2C618.918 534.775 620.568 533.725 622.468 533.725C625.593 533.725 627.993 536.175 627.993 539.5C627.993 542.875 625.568 545.3 622.443 545.3C620.543 545.3 618.943 544.275 618.218 542.85ZM622.343 535.025C619.893 535.025 618.193 537 618.193 539.5C618.193 542.025 619.893 544 622.343 544C624.768 544 626.493 542.025 626.493 539.5C626.493 537 624.768 535.025 622.343 535.025ZM630.468 545V528.75H628.718V527.5H631.943V545H630.468ZM643.682 541.8L644.932 542.425C643.757 544.5 641.857 545.3 639.782 545.3C636.532 545.3 634.207 542.875 634.207 539.525C634.207 536.175 636.657 533.725 639.782 533.725C642.707 533.725 645.307 535.8 645.307 539.9V539.975H635.732C635.907 542.25 637.507 543.975 639.807 543.975C641.357 543.975 642.707 543.4 643.682 541.8ZM639.782 535.025C637.582 535.025 636.007 536.65 635.757 538.8H643.732C643.532 536.675 641.982 535.025 639.782 535.025Z" fill="#09223B"/>
<path d="M84.984 489.816C83.328 488.448 80.952 487.368 78.072 487.368C74.22 487.368 70.836 489.708 70.836 493.668C70.836 496.476 72.636 498.384 75.912 500.112L77.964 501.228C81.42 503.064 83.148 504.18 83.148 506.844C83.148 509.256 81.024 511.488 77.604 511.488C75.156 511.488 72.924 510.588 71.124 508.824L69.828 510.516C71.484 512.136 74.076 513.432 77.568 513.432C82.716 513.432 85.416 510.048 85.416 506.7C85.416 503.424 83.436 501.66 79.368 499.5L76.92 498.168C74.112 496.692 73.104 495.36 73.104 493.488C73.104 490.932 75.336 489.312 78.144 489.312C80.268 489.312 82.464 490.284 83.724 491.508L84.984 489.816ZM87.8356 505.08C87.8356 509.94 91.4356 513.432 95.9716 513.432C100.472 513.432 104.108 509.94 104.108 505.08C104.108 500.292 100.472 496.764 95.9716 496.764C91.4356 496.764 87.8356 500.292 87.8356 505.08ZM101.912 505.08C101.912 508.716 99.4996 511.56 95.9716 511.56C92.4076 511.56 89.9956 508.716 89.9956 505.08C89.9956 501.48 92.4076 498.636 95.9716 498.636C99.4996 498.636 101.912 501.48 101.912 505.08ZM113.994 513.432C118.422 513.432 120.69 510.696 120.69 507.384V497.196H118.53V507.276C118.53 510.156 116.622 511.56 113.994 511.56C111.33 511.56 109.386 510.012 109.386 507.168V497.196H107.226V507.384C107.226 510.696 109.53 513.432 113.994 513.432ZM132.26 497.052C131.972 497.016 131.648 496.98 131.108 496.98C128.84 496.98 127.472 498.528 126.824 500.184V497.196H124.808V513H126.896V504.396C126.896 500.436 129.092 498.996 131.18 498.996C131.72 498.996 132.008 499.032 132.26 499.068V497.052ZM135.242 505.116C135.242 501.48 137.69 498.636 141.218 498.636C143.666 498.636 145.61 500.04 146.51 502.092L148.31 501.156C147.05 498.384 144.422 496.764 141.218 496.764C136.682 496.764 133.082 500.292 133.082 505.116C133.082 509.94 136.682 513.432 141.218 513.432C144.458 513.432 147.05 511.74 148.274 509.004L146.51 508.104C145.574 510.156 143.666 511.56 141.218 511.56C137.69 511.56 135.242 508.716 135.242 505.116ZM163.776 508.392C162.372 510.696 160.428 511.524 158.196 511.524C154.884 511.524 152.58 509.04 152.328 505.764H166.116V505.656C166.116 499.752 162.372 496.764 158.16 496.764C153.66 496.764 150.132 500.292 150.132 505.116C150.132 509.94 153.48 513.432 158.16 513.432C161.148 513.432 163.884 512.28 165.576 509.292L163.776 508.392ZM158.16 498.636C161.328 498.636 163.56 501.012 163.848 504.072H152.364C152.724 500.976 154.992 498.636 158.16 498.636ZM79.55 536.2C78.875 534.775 77.225 533.725 75.3 533.725C72.2 533.725 69.8 536.175 69.8 539.5C69.8 542.875 72.2 545.3 75.325 545.3C77.25 545.3 78.85 544.275 79.55 542.85V549.35H81.05V534.025H79.55V536.2ZM75.45 535.025C77.9 535.025 79.6 537 79.6 539.5C79.6 542.025 77.9 544 75.45 544C73 544 71.3 542.025 71.3 539.5C71.3 537 73 535.025 75.45 535.025ZM88.6004 545.3C91.6754 545.3 93.2504 543.4 93.2504 541.1V534.025H91.7504V541.025C91.7504 543.025 90.4254 544 88.6004 544C86.7504 544 85.4004 542.925 85.4004 540.95V534.025H83.9004V541.1C83.9004 543.4 85.5004 545.3 88.6004 545.3ZM105.185 545H106.685V534.025H105.21V536.2C104.51 534.775 102.86 533.725 100.935 533.725C97.8348 533.725 95.4348 536.175 95.4348 539.5C95.4348 542.875 97.8348 545.3 100.96 545.3C102.885 545.3 104.485 544.275 105.185 542.85V545ZM101.085 535.025C103.535 535.025 105.235 537 105.235 539.5C105.235 542.025 103.535 544 101.085 544C98.6348 544 96.9348 542.025 96.9348 539.5C96.9348 537 98.6348 535.025 101.085 535.025ZM109.835 545H111.31V527.5H108.085V528.75H109.835V545ZM115.574 531.35C116.274 531.35 116.874 530.775 116.874 530.075C116.874 529.35 116.274 528.775 115.574 528.775C114.849 528.775 114.274 529.35 114.274 530.075C114.274 530.775 114.849 531.35 115.574 531.35ZM114.924 545H116.424V534.025H113.199V535.275H114.924V545ZM120.051 529.425V534.025H118.201V535.275H120.051V542.925C120.051 544.425 120.951 545.175 122.526 545.175C123.101 545.175 123.851 545.025 124.251 544.925V543.65C123.901 543.775 123.276 543.9 122.801 543.9C122.001 543.9 121.551 543.575 121.551 542.7V535.275H124.251V534.025H121.551V529.425H120.051ZM129.867 547.1L135.092 534.025H133.542L129.967 543.275L126.417 534.025H124.792L129.192 545.075L128.592 546.475C128.142 547.575 127.617 548.25 126.392 548.25C125.867 548.25 125.392 548.15 124.867 547.975V549.3C125.417 549.45 125.992 549.525 126.467 549.525C128.342 549.525 129.317 548.525 129.867 547.1ZM142.296 539.525C142.296 537 143.996 535.025 146.446 535.025C148.146 535.025 149.496 536 150.121 537.425L151.371 536.775C150.496 534.85 148.671 533.725 146.446 533.725C143.296 533.725 140.796 536.175 140.796 539.525C140.796 542.875 143.296 545.3 146.446 545.3C148.696 545.3 150.496 544.125 151.346 542.225L150.121 541.6C149.471 543.025 148.146 544 146.446 544C143.996 544 142.296 542.025 142.296 539.525ZM162.387 545H163.887V534.025H162.412V536.2C161.712 534.775 160.062 533.725 158.137 533.725C155.037 533.725 152.637 536.175 152.637 539.5C152.637 542.875 155.037 545.3 158.162 545.3C160.087 545.3 161.687 544.275 162.387 542.85V545ZM158.287 535.025C160.737 535.025 162.437 537 162.437 539.5C162.437 542.025 160.737 544 158.287 544C155.837 544 154.137 542.025 154.137 539.5C154.137 537 155.837 535.025 158.287 535.025ZM168.312 536.95C169.262 535.825 170.537 535.075 171.912 535.075C173.362 535.075 174.687 535.95 174.687 537.975V545H176.162V537.575C176.162 535.225 174.537 533.725 172.137 533.725C170.762 533.725 169.312 534.4 168.312 535.55V534.025H166.837V545H168.312V536.95ZM188.12 536.2C187.42 534.775 185.77 533.725 183.845 533.725C180.745 533.725 178.345 536.175 178.345 539.5C178.345 542.875 180.745 545.3 183.87 545.3C185.795 545.3 187.395 544.275 188.095 542.85V545H189.595V527.5H188.12V536.2ZM183.995 535.025C186.445 535.025 188.145 537 188.145 539.5C188.145 542.025 186.445 544 183.995 544C181.545 544 179.845 542.025 179.845 539.5C179.845 537 181.545 535.025 183.995 535.025ZM193.87 531.35C194.57 531.35 195.17 530.775 195.17 530.075C195.17 529.35 194.57 528.775 193.87 528.775C193.145 528.775 192.57 529.35 192.57 530.075C192.57 530.775 193.145 531.35 193.87 531.35ZM193.22 545H194.72V534.025H191.495V535.275H193.22V545ZM206.772 536.2C206.072 534.775 204.422 533.725 202.497 533.725C199.397 533.725 196.997 536.175 196.997 539.5C196.997 542.875 199.397 545.3 202.522 545.3C204.447 545.3 206.047 544.275 206.747 542.85V545H208.247V527.5H206.772V536.2ZM202.647 535.025C205.097 535.025 206.797 537 206.797 539.5C206.797 542.025 205.097 544 202.647 544C200.197 544 198.497 542.025 198.497 539.5C198.497 537 200.197 535.025 202.647 535.025ZM220.273 545H221.773V534.025H220.298V536.2C219.598 534.775 217.948 533.725 216.023 533.725C212.923 533.725 210.523 536.175 210.523 539.5C210.523 542.875 212.923 545.3 216.048 545.3C217.973 545.3 219.573 544.275 220.273 542.85V545ZM216.173 535.025C218.623 535.025 220.323 537 220.323 539.5C220.323 542.025 218.623 544 216.173 544C213.723 544 212.023 542.025 212.023 539.5C212.023 537 213.723 535.025 216.173 535.025ZM225.398 529.425V534.025H223.548V535.275H225.398V542.925C225.398 544.425 226.298 545.175 227.873 545.175C228.448 545.175 229.198 545.025 229.598 544.925V543.65C229.248 543.775 228.623 543.9 228.148 543.9C227.348 543.9 226.898 543.575 226.898 542.7V535.275H229.598V534.025H226.898V529.425H225.398ZM239.944 541.8C238.969 543.4 237.619 543.975 236.069 543.975C233.769 543.975 232.169 542.25 231.994 539.975H241.569V539.9C241.569 535.8 238.969 533.725 236.044 533.725C232.919 533.725 230.469 536.175 230.469 539.525C230.469 542.875 232.794 545.3 236.044 545.3C238.119 545.3 240.019 544.5 241.194 542.425L239.944 541.8ZM236.044 535.025C238.244 535.025 239.794 536.675 239.994 538.8H232.019C232.269 536.65 233.844 535.025 236.044 535.025ZM246.667 544.05C245.592 544.05 244.392 543.6 243.567 542.825L242.767 543.95C243.742 544.8 245.217 545.3 246.692 545.3C249.342 545.3 250.742 543.75 250.742 542.15C250.742 540.575 249.867 539.75 247.842 538.95L246.292 538.375C245.017 537.875 244.717 537.3 244.717 536.625C244.717 535.65 245.642 534.95 246.992 534.95C248.042 534.95 249.042 535.4 249.792 536.05L250.542 534.975C249.642 534.175 248.317 533.725 247.017 533.725C244.767 533.725 243.267 535.05 243.267 536.8C243.267 538.175 243.992 539 245.817 539.7L247.167 540.2C248.567 540.725 249.217 541.2 249.217 542.2C249.217 543.225 248.242 544.05 246.667 544.05ZM266.799 541.8C265.824 543.4 264.474 543.975 262.924 543.975C260.624 543.975 259.024 542.25 258.849 539.975H268.424V539.9C268.424 535.8 265.824 533.725 262.899 533.725C259.774 533.725 257.324 536.175 257.324 539.525C257.324 542.875 259.649 545.3 262.899 545.3C264.974 545.3 266.874 544.5 268.049 542.425L266.799 541.8ZM262.899 535.025C265.099 535.025 266.649 536.675 266.849 538.8H258.874C259.124 536.65 260.699 535.025 262.899 535.025ZM276.878 545H278.378V535.275H282.653V545H284.153V534.025H278.378V531C278.378 529.225 279.378 528.55 280.528 528.55C281.178 528.55 281.978 528.85 282.503 529.225L283.278 528.1C282.553 527.6 281.528 527.2 280.453 527.2C278.678 527.2 276.878 528.275 276.878 530.9V534.025H272.603V530.55C272.603 529.5 273.178 529 274.028 529C274.378 529 274.728 529.05 275.078 529.2V527.925C274.728 527.8 274.278 527.7 273.803 527.7C272.553 527.7 271.128 528.325 271.128 530.5V534.025H269.253V535.275H271.128V545H272.603V535.275H276.878V545ZM287.926 539.525C287.926 537 289.626 535.025 292.076 535.025C293.776 535.025 295.126 536 295.751 537.425L297.001 536.775C296.126 534.85 294.301 533.725 292.076 533.725C288.926 533.725 286.426 536.175 286.426 539.525C286.426 542.875 288.926 545.3 292.076 545.3C294.326 545.3 296.126 544.125 296.976 542.225L295.751 541.6C295.101 543.025 293.776 544 292.076 544C289.626 544 287.926 542.025 287.926 539.525ZM300.267 531.35C300.967 531.35 301.567 530.775 301.567 530.075C301.567 529.35 300.967 528.775 300.267 528.775C299.542 528.775 298.967 529.35 298.967 530.075C298.967 530.775 299.542 531.35 300.267 531.35ZM299.617 545H301.117V534.025H297.892V535.275H299.617V545ZM312.869 541.8C311.894 543.4 310.544 543.975 308.994 543.975C306.694 543.975 305.094 542.25 304.919 539.975H314.494V539.9C314.494 535.8 311.894 533.725 308.969 533.725C305.844 533.725 303.394 536.175 303.394 539.525C303.394 542.875 305.719 545.3 308.969 545.3C311.044 545.3 312.944 544.5 314.119 542.425L312.869 541.8ZM308.969 535.025C311.169 535.025 312.719 536.675 312.919 538.8H304.944C305.194 536.65 306.769 535.025 308.969 535.025ZM318.141 536.95C319.091 535.825 320.366 535.075 321.741 535.075C323.191 535.075 324.516 535.95 324.516 537.975V545H325.991V537.575C325.991 535.225 324.366 533.725 321.966 533.725C320.591 533.725 319.141 534.4 318.141 535.55V534.025H316.666V545H318.141V536.95ZM329.378 529.425V534.025H327.528V535.275H329.378V542.925C329.378 544.425 330.278 545.175 331.853 545.175C332.428 545.175 333.178 545.025 333.578 544.925V543.65C333.228 543.775 332.603 543.9 332.128 543.9C331.328 543.9 330.878 543.575 330.878 542.7V535.275H333.578V534.025H330.878V529.425H329.378ZM335.543 545H337.018V527.5H333.793V528.75H335.543V545ZM343.807 547.1L349.032 534.025H347.482L343.907 543.275L340.357 534.025H338.732L343.132 545.075L342.532 546.475C342.082 547.575 341.557 548.25 340.332 548.25C339.807 548.25 339.332 548.15 338.807 547.975V549.3C339.357 549.45 339.932 549.525 340.407 549.525C342.282 549.525 343.257 548.525 343.807 547.1Z" fill="#5D3B09"/>
<path d="M832.136 494.446C832.136 497.326 830.336 499.414 828.068 500.134V500.206C830.804 501.07 832.856 503.23 832.856 506.47C832.856 510.322 830.192 513.454 824.72 513.454H817.592V488.254H824.828C829.76 488.254 832.136 491.242 832.136 494.446ZM824.324 490.234H819.824V499.342H824.684C827.636 499.342 829.796 497.686 829.796 494.662C829.796 491.71 827.528 490.234 824.324 490.234ZM819.824 501.25V511.474H824.828C827.78 511.474 830.516 509.89 830.516 506.434C830.516 502.942 827.672 501.25 824.72 501.25H819.824ZM842.943 513.886C838.479 513.886 836.175 511.15 836.175 507.838V497.65H838.335V507.622C838.335 510.466 840.279 512.014 842.943 512.014C845.571 512.014 847.479 510.61 847.479 507.73V497.65H849.639V507.838C849.639 511.15 847.371 513.886 842.943 513.886ZM855.665 493.798C854.621 493.798 853.793 492.97 853.793 491.962C853.793 490.918 854.621 490.09 855.665 490.09C856.673 490.09 857.537 490.918 857.537 491.962C857.537 492.97 856.673 493.798 855.665 493.798ZM854.729 513.454V499.45H852.245V497.65H856.889V513.454H854.729ZM861.428 513.454V490.054H858.908V488.254H863.552V513.454H861.428ZM880.888 500.782V488.254H883.012V513.454H880.852V510.358C879.844 512.41 877.54 513.886 874.768 513.886C870.268 513.886 866.812 510.394 866.812 505.534C866.812 500.746 870.268 497.218 874.732 497.218C877.504 497.218 879.88 498.73 880.888 500.782ZM874.948 499.09C871.42 499.09 868.972 501.934 868.972 505.534C868.972 509.17 871.42 512.014 874.948 512.014C878.476 512.014 880.924 509.17 880.924 505.534C880.924 501.934 878.476 499.09 874.948 499.09ZM907.641 513.454V510.358C906.633 512.41 904.329 513.886 901.557 513.886C897.057 513.886 893.601 510.394 893.601 505.534C893.601 500.746 897.057 497.218 901.521 497.218C904.293 497.218 906.669 498.73 907.677 500.782V497.65H909.801V513.454H907.641ZM901.737 499.09C898.209 499.09 895.761 501.934 895.761 505.534C895.761 509.17 898.209 512.014 901.737 512.014C905.265 512.014 907.713 509.17 907.713 505.534C907.713 501.934 905.265 499.09 901.737 499.09ZM925.282 497.65L929.494 511.546L933.13 497.65H935.434L930.97 513.454H928.09L923.95 499.81L919.846 513.454H916.93L912.538 497.65H914.914L918.478 511.51L922.69 497.65H925.282ZM950.919 513.454V510.358C949.911 512.41 947.607 513.886 944.835 513.886C940.335 513.886 936.879 510.394 936.879 505.534C936.879 500.746 940.335 497.218 944.799 497.218C947.571 497.218 949.947 498.73 950.955 500.782V497.65H953.079V513.454H950.919ZM945.015 499.09C941.487 499.09 939.039 501.934 939.039 505.534C939.039 509.17 941.487 512.014 945.015 512.014C948.543 512.014 950.991 509.17 950.991 505.534C950.991 501.934 948.543 499.09 945.015 499.09ZM964.779 497.506V499.522C964.527 499.486 964.239 499.45 963.699 499.45C961.611 499.45 959.415 500.89 959.415 504.85V513.454H957.327V497.65H959.343V500.638C959.991 498.982 961.359 497.434 963.627 497.434C964.167 497.434 964.491 497.47 964.779 497.506ZM979.245 508.846L981.045 509.746C979.353 512.734 976.617 513.886 973.629 513.886C968.949 513.886 965.601 510.394 965.601 505.57C965.601 500.746 969.129 497.218 973.629 497.218C977.841 497.218 981.585 500.206 981.585 506.11V506.218H967.797C968.049 509.494 970.353 511.978 973.665 511.978C975.897 511.978 977.841 511.15 979.245 508.846ZM973.629 499.09C970.461 499.09 968.193 501.43 967.833 504.526H979.317C979.029 501.466 976.797 499.09 973.629 499.09ZM986.838 501.862V513.454H984.714V497.65H986.838V499.846C988.278 498.19 990.366 497.218 992.346 497.218C995.802 497.218 998.142 499.378 998.142 502.762V513.454H996.018V503.338C996.018 500.422 994.11 499.162 992.022 499.162C990.042 499.162 988.206 500.242 986.838 501.862ZM1014.93 508.846L1016.73 509.746C1015.04 512.734 1012.3 513.886 1009.31 513.886C1004.63 513.886 1001.28 510.394 1001.28 505.57C1001.28 500.746 1004.81 497.218 1009.31 497.218C1013.52 497.218 1017.27 500.206 1017.27 506.11V506.218H1003.48C1003.73 509.494 1006.04 511.978 1009.35 511.978C1011.58 511.978 1013.52 511.15 1014.93 508.846ZM1009.31 499.09C1006.14 499.09 1003.88 501.43 1003.52 504.526H1015C1014.71 501.466 1012.48 499.09 1009.31 499.09ZM1024.61 512.086C1026.88 512.086 1028.28 510.898 1028.28 509.422C1028.28 507.982 1027.35 507.298 1025.33 506.542L1023.39 505.822C1020.76 504.814 1019.71 503.626 1019.71 501.646C1019.71 499.126 1021.87 497.218 1025.11 497.218C1026.99 497.218 1028.89 497.866 1030.19 499.018L1029.11 500.566C1028.03 499.63 1026.59 498.982 1025.08 498.982C1023.13 498.982 1021.8 499.99 1021.8 501.394C1021.8 502.366 1022.23 503.194 1024.07 503.914L1026.3 504.742C1029.22 505.894 1030.48 507.082 1030.48 509.35C1030.48 511.654 1028.46 513.886 1024.65 513.886C1022.52 513.886 1020.4 513.166 1018.99 511.942L1020.15 510.322C1021.33 511.438 1023.06 512.086 1024.61 512.086ZM1037.83 512.086C1040.1 512.086 1041.5 510.898 1041.5 509.422C1041.5 507.982 1040.56 507.298 1038.55 506.542L1036.6 505.822C1033.98 504.814 1032.93 503.626 1032.93 501.646C1032.93 499.126 1035.09 497.218 1038.33 497.218C1040.2 497.218 1042.11 497.866 1043.41 499.018L1042.33 500.566C1041.25 499.63 1039.81 498.982 1038.3 498.982C1036.35 498.982 1035.02 499.99 1035.02 501.394C1035.02 502.366 1035.45 503.194 1037.29 503.914L1039.52 504.742C1042.44 505.894 1043.7 507.082 1043.7 509.35C1043.7 511.654 1041.68 513.886 1037.86 513.886C1035.74 513.886 1033.62 513.166 1032.21 511.942L1033.36 510.322C1034.55 511.438 1036.28 512.086 1037.83 512.086ZM817.25 534.479V530.454C817.25 528.279 818.675 527.654 819.925 527.654C820.4 527.654 820.85 527.754 821.2 527.879V529.154C820.85 529.004 820.5 528.954 820.15 528.954C819.3 528.954 818.725 529.454 818.725 530.504V534.479H820.95V535.729H818.725V545.454H817.25V535.729H815.375V534.479H817.25ZM821.635 539.954C821.635 536.629 824.135 534.179 827.285 534.179C830.41 534.179 832.935 536.629 832.935 539.954C832.935 543.329 830.41 545.754 827.285 545.754C824.135 545.754 821.635 543.329 821.635 539.954ZM831.41 539.954C831.41 537.454 829.735 535.479 827.285 535.479C824.81 535.479 823.135 537.454 823.135 539.954C823.135 542.479 824.81 544.454 827.285 544.454C829.735 544.454 831.41 542.479 831.41 539.954ZM840.376 534.379V535.779C840.201 535.754 840.001 535.729 839.626 535.729C838.176 535.729 836.651 536.729 836.651 539.479V545.454H835.201V534.479H836.601V536.554C837.051 535.404 838.001 534.329 839.576 534.329C839.951 534.329 840.176 534.354 840.376 534.379ZM850.183 547.554C849.633 548.979 848.658 549.979 846.783 549.979C846.308 549.979 845.733 549.904 845.183 549.754V548.429C845.708 548.604 846.183 548.704 846.708 548.704C847.933 548.704 848.458 548.029 848.908 546.929L849.508 545.529L845.108 534.479H846.733L850.283 543.729L853.858 534.479H855.408L850.183 547.554ZM856.059 539.954C856.059 536.629 858.559 534.179 861.709 534.179C864.834 534.179 867.359 536.629 867.359 539.954C867.359 543.329 864.834 545.754 861.709 545.754C858.559 545.754 856.059 543.329 856.059 539.954ZM865.834 539.954C865.834 537.454 864.159 535.479 861.709 535.479C859.234 535.479 857.559 537.454 857.559 539.954C857.559 542.479 859.234 544.454 861.709 544.454C864.159 544.454 865.834 542.479 865.834 539.954ZM874.224 545.754C871.124 545.754 869.524 543.854 869.524 541.554V534.479H871.024V541.404C871.024 543.379 872.374 544.454 874.224 544.454C876.049 544.454 877.374 543.479 877.374 541.479V534.479H878.874V541.554C878.874 543.854 877.299 545.754 874.224 545.754ZM886.909 534.379V535.779C886.734 535.754 886.534 535.729 886.159 535.729C884.709 535.729 883.184 536.729 883.184 539.479V545.454H881.734V534.479H883.134V536.554C883.584 535.404 884.534 534.329 886.109 534.329C886.484 534.329 886.709 534.354 886.909 534.379ZM894.082 539.979C894.082 542.479 895.782 544.454 898.232 544.454C899.932 544.454 901.257 543.479 901.907 542.054L903.132 542.679C902.282 544.579 900.482 545.754 898.232 545.754C895.082 545.754 892.582 543.329 892.582 539.979C892.582 536.629 895.082 534.179 898.232 534.179C900.457 534.179 902.282 535.304 903.157 537.229L901.907 537.879C901.282 536.454 899.932 535.479 898.232 535.479C895.782 535.479 894.082 537.454 894.082 539.979ZM904.423 539.954C904.423 536.629 906.923 534.179 910.073 534.179C913.198 534.179 915.723 536.629 915.723 539.954C915.723 543.329 913.198 545.754 910.073 545.754C906.923 545.754 904.423 543.329 904.423 539.954ZM914.198 539.954C914.198 537.454 912.523 535.479 910.073 535.479C907.598 535.479 905.923 537.454 905.923 539.954C905.923 542.479 907.598 544.454 910.073 544.454C912.523 544.454 914.198 542.479 914.198 539.954ZM919.464 537.404V545.454H917.989V534.479H919.464V536.004C920.439 534.854 921.814 534.179 923.164 534.179C924.889 534.179 926.089 534.954 926.664 536.254C928.014 534.704 929.389 534.179 930.739 534.179C933.164 534.179 934.689 535.679 934.689 538.029V545.454H933.189V538.404C933.189 536.429 931.989 535.529 930.539 535.529C929.189 535.529 927.964 536.354 927.039 537.429C927.039 537.429 927.089 538.079 927.089 538.279V545.454H925.589V538.404C925.589 536.429 924.389 535.529 922.939 535.529C921.564 535.529 920.414 536.279 919.464 537.404ZM939.019 543.304V549.804H937.544V534.479H939.019V536.654C939.719 535.229 941.369 534.179 943.269 534.179C946.394 534.179 948.794 536.629 948.794 539.954C948.794 543.329 946.369 545.754 943.244 545.754C941.344 545.754 939.744 544.729 939.019 543.304ZM943.144 535.479C940.694 535.479 938.994 537.454 938.994 539.954C938.994 542.479 940.694 544.454 943.144 544.454C945.569 544.454 947.294 542.479 947.294 539.954C947.294 537.454 945.569 535.479 943.144 535.479ZM960.145 545.454V543.304C959.445 544.729 957.845 545.754 955.92 545.754C952.795 545.754 950.395 543.329 950.395 539.954C950.395 536.629 952.795 534.179 955.895 534.179C957.82 534.179 959.47 535.229 960.17 536.654V534.479H961.645V545.454H960.145ZM956.045 535.479C953.595 535.479 951.895 537.454 951.895 539.954C951.895 542.479 953.595 544.454 956.045 544.454C958.495 544.454 960.195 542.479 960.195 539.954C960.195 537.454 958.495 535.479 956.045 535.479ZM966.07 537.404V545.454H964.595V534.479H966.07V536.004C967.07 534.854 968.52 534.179 969.895 534.179C972.295 534.179 973.92 535.679 973.92 538.029V545.454H972.445V538.429C972.445 536.404 971.12 535.529 969.67 535.529C968.295 535.529 967.02 536.279 966.07 537.404ZM980.384 547.554C979.834 548.979 978.859 549.979 976.984 549.979C976.509 549.979 975.934 549.904 975.384 549.754V548.429C975.909 548.604 976.384 548.704 976.909 548.704C978.134 548.704 978.659 548.029 979.109 546.929L979.709 545.529L975.309 534.479H976.934L980.484 543.729L984.059 534.479H985.609L980.384 547.554Z" fill="#2F4922"/>
<path d="M849.719 177.767L831.729 217.299L834.552 218.584L852.543 179.053L849.719 177.767Z" fill="#BC792A"/>
<path d="M892.989 224.551H826.009V219.867C826.009 217.912 827.126 216.144 828.832 215.213L837.643 210.311C839.132 209.474 840.9 209.319 842.513 209.815L852.72 212.917C855.357 213.724 858.118 213.941 860.848 213.569L892.989 209.039V224.551Z" fill="#A96C3F"/>
<path d="M955.779 99.0918C959.16 115.689 983.545 114.666 984.227 99.6812C987.578 97.8818 990.153 96.2686 992.2 93.0732C994.372 89.6916 994.775 85.4103 994.279 81.3773C993.969 78.9884 993.379 76.5996 992.138 74.5521C989.067 69.4952 982.893 67.4787 978.023 64.0971C976.533 63.0733 975.137 61.8944 974.021 60.4363C971.88 57.6442 970.918 54.0455 968.622 51.4084C966.078 48.4922 962.17 47.0962 958.354 46.5067C954.538 45.9173 950.629 46.0414 946.782 45.576C943.648 45.2037 940.546 44.4281 937.382 44.1489C929.409 43.4664 921.187 46.2275 915.231 51.5946C911.725 54.759 908.933 58.9472 908.375 63.6007C907.816 68.2543 909.895 73.4042 914.021 75.6379C918.178 77.8716 924.662 76.1963 926.461 71.853C929.067 76.2273 931.549 73.5283 934.683 67.6958C934.683 67.6958 933.845 74.1488 938.623 77.9026C941.973 70.1467 953.793 73.5283 950.505 82.6492C946.999 92.7629 945.634 96.8581 955.779 99.0297V99.0918Z" fill="#0D2135"/>
<path d="M916.418 225.322C927.711 225.663 937.762 218.187 940.741 207.297C944.836 188.652 947.163 169.697 947.721 150.617C948.124 140.472 939.81 131.817 932.209 132.003C928.393 132.003 914.433 132.716 912.447 150.617C909.996 172.861 908.414 186.946 907.39 194.05C896.47 198.393 885.301 202.116 873.978 205.219C870.938 206.118 868.859 208.879 868.89 212.044V225.322H916.418Z" fill="#D4D698"/>
<path d="M881.796 198.927C881.361 198.741 877.204 199.175 874.536 199.485C873.45 199.609 872.861 200.788 873.388 201.75C873.605 202.153 874.009 202.433 874.443 202.495L884.743 204.325L881.796 198.927Z" fill="#61382D"/>
<path d="M870.443 190.458L863.339 199.578C862.408 200.757 862.967 202.495 864.425 202.929C865.169 203.146 866.007 202.929 866.565 202.371L875.221 193.591" fill="#61382D"/>
<path d="M909.407 187.417L894.671 191.822C891.506 192.784 888.094 192.629 884.991 191.45L874.474 187.417C872.675 186.735 870.628 186.89 868.952 187.882L851.083 198.524C849.811 199.268 849.625 201.036 850.71 202.06C851.331 202.65 852.231 202.805 853.006 202.526L871.341 195.545L880.648 202.402C883.657 204.604 887.504 205.349 891.103 204.387L898.177 202.526L916.108 203.177L909.407 187.417Z" fill="#955646"/>
<path d="M968.436 107.344L949.946 114.789C940.174 118.729 933.473 127.819 932.573 138.274L928.974 180.622L900.277 188.16C903.287 197.467 907.041 208.76 912.873 212.08C933.783 209.318 947.371 205.627 947.371 205.627L952.924 223.682C957.95 237.271 978.116 240.311 992.449 229.236C1006.81 218.16 1030.73 239.318 1035.51 206.061C1040.29 172.804 1025.43 124.965 1010.57 114.665C995.706 104.335 981.559 102.07 968.405 107.375L968.436 107.344Z" fill="#606E30"/>
</g>
<defs>
<clipPath id="clip0_5402_651">
<rect width="1130" height="612" fill="white"/>
</clipPath>
</defs>
</svg>
