<svg xmlns="http://www.w3.org/2000/svg" xmlns:xlink="http://www.w3.org/1999/xlink" width="500" zoomAndPan="magnify" viewBox="0 0 375 374.999991" height="500" preserveAspectRatio="xMidYMid meet" version="1.0"><defs><g/><clipPath id="abe0c83920"><path d="M 52.320312 171.683594 L 116.5625 171.683594 L 116.5625 200.316406 L 52.320312 200.316406 Z M 52.320312 171.683594 " clip-rule="nonzero"/></clipPath><clipPath id="ab24f5663f"><path d="M 91.410156 171.828125 C 93.871094 173.660156 95.851562 176.070312 97.101562 178.910156 L 102.140625 178.910156 C 106.050781 178.910156 109.21875 182.089844 109.21875 185.988281 C 109.21875 189.890625 106.050781 193.070312 102.140625 193.070312 L 87.980469 193.070312 C 84.078125 193.070312 80.898438 189.898438 80.898438 185.988281 C 80.898438 184.769531 81.238281 183.628906 81.789062 182.628906 C 81.5 182.550781 81.21875 182.449219 80.910156 182.449219 C 80.910156 182.449219 80.910156 182.449219 80.898438 182.449219 L 74.320312 182.449219 C 74.03125 183.589844 73.820312 184.757812 73.820312 185.988281 C 73.820312 193.808594 80.160156 200.148438 87.96875 200.148438 L 102.128906 200.148438 C 109.949219 200.148438 116.289062 193.808594 116.289062 185.988281 C 116.289062 178.167969 109.960938 171.828125 102.140625 171.828125 Z M 66.738281 171.828125 C 58.921875 171.828125 52.578125 178.167969 52.578125 185.988281 C 52.578125 193.808594 58.921875 200.148438 66.738281 200.148438 L 77.46875 200.148438 C 75.011719 198.320312 73.019531 195.898438 71.78125 193.070312 L 66.738281 193.070312 C 62.839844 193.070312 59.660156 189.890625 59.660156 185.988281 C 59.660156 182.089844 62.839844 178.910156 66.738281 178.910156 L 80.898438 178.910156 C 84.808594 178.910156 87.980469 182.078125 87.980469 185.988281 C 87.980469 187.210938 87.640625 188.339844 87.101562 189.347656 C 87.390625 189.429688 87.671875 189.527344 87.980469 189.527344 L 94.558594 189.527344 C 94.859375 188.390625 95.058594 187.21875 95.058594 185.988281 C 95.058594 178.167969 88.71875 171.828125 80.898438 171.828125 Z M 66.738281 171.828125 " clip-rule="nonzero"/></clipPath></defs><g fill="#000000" fill-opacity="1"><g transform="translate(51.288937, 165.572245)"><g><path d="M 16.5625 0.34375 C 14.71875 0.34375 13.003906 0.15625 11.421875 -0.21875 C 9.847656 -0.59375 8.429688 -1.148438 7.171875 -1.890625 C 5.921875 -2.628906 4.847656 -3.535156 3.953125 -4.609375 C 3.066406 -5.691406 2.390625 -6.929688 1.921875 -8.328125 C 1.453125 -9.734375 1.21875 -11.296875 1.21875 -13.015625 C 1.21875 -14.734375 1.453125 -16.289062 1.921875 -17.6875 C 2.390625 -19.09375 3.066406 -20.332031 3.953125 -21.40625 C 4.847656 -22.488281 5.921875 -23.394531 7.171875 -24.125 C 8.429688 -24.863281 9.847656 -25.421875 11.421875 -25.796875 C 13.003906 -26.171875 14.71875 -26.359375 16.5625 -26.359375 C 18.539062 -26.359375 20.363281 -26.144531 22.03125 -25.71875 C 23.707031 -25.289062 25.191406 -24.65625 26.484375 -23.8125 C 27.785156 -22.976562 28.863281 -21.945312 29.71875 -20.71875 C 30.582031 -19.5 31.195312 -18.085938 31.5625 -16.484375 L 24.21875 -16.484375 C 23.84375 -17.441406 23.296875 -18.222656 22.578125 -18.828125 C 21.859375 -19.429688 20.988281 -19.878906 19.96875 -20.171875 C 18.957031 -20.460938 17.820312 -20.609375 16.5625 -20.609375 C 15.300781 -20.609375 14.164062 -20.460938 13.15625 -20.171875 C 12.144531 -19.878906 11.28125 -19.425781 10.5625 -18.8125 C 9.851562 -18.195312 9.304688 -17.40625 8.921875 -16.4375 C 8.546875 -15.476562 8.359375 -14.335938 8.359375 -13.015625 C 8.359375 -11.679688 8.546875 -10.53125 8.921875 -9.5625 C 9.304688 -8.601562 9.851562 -7.816406 10.5625 -7.203125 C 11.28125 -6.585938 12.144531 -6.128906 13.15625 -5.828125 C 14.164062 -5.535156 15.300781 -5.390625 16.5625 -5.390625 C 18.019531 -5.390625 19.3125 -5.582031 20.4375 -5.96875 C 21.5625 -6.363281 22.476562 -6.96875 23.1875 -7.78125 C 23.90625 -8.601562 24.390625 -9.660156 24.640625 -10.953125 L 31.828125 -10.953125 C 31.640625 -9.503906 31.265625 -8.179688 30.703125 -6.984375 C 30.140625 -5.796875 29.40625 -4.742188 28.5 -3.828125 C 27.601562 -2.921875 26.550781 -2.15625 25.34375 -1.53125 C 24.132812 -0.914062 22.789062 -0.445312 21.3125 -0.125 C 19.84375 0.1875 18.257812 0.34375 16.5625 0.34375 Z M 16.5625 0.34375 "/></g></g></g><g fill="#000000" fill-opacity="1"><g transform="translate(84.091547, 165.572245)"><g><path d="M 16.5625 0.34375 C 14.71875 0.34375 13.003906 0.15625 11.421875 -0.21875 C 9.847656 -0.59375 8.429688 -1.148438 7.171875 -1.890625 C 5.921875 -2.628906 4.847656 -3.535156 3.953125 -4.609375 C 3.066406 -5.691406 2.390625 -6.929688 1.921875 -8.328125 C 1.453125 -9.734375 1.21875 -11.296875 1.21875 -13.015625 C 1.21875 -14.734375 1.453125 -16.289062 1.921875 -17.6875 C 2.390625 -19.09375 3.066406 -20.332031 3.953125 -21.40625 C 4.847656 -22.488281 5.921875 -23.394531 7.171875 -24.125 C 8.429688 -24.863281 9.847656 -25.421875 11.421875 -25.796875 C 13.003906 -26.171875 14.71875 -26.359375 16.5625 -26.359375 C 18.414062 -26.359375 20.132812 -26.171875 21.71875 -25.796875 C 23.300781 -25.421875 24.722656 -24.863281 25.984375 -24.125 C 27.242188 -23.394531 28.316406 -22.488281 29.203125 -21.40625 C 30.085938 -20.332031 30.765625 -19.09375 31.234375 -17.6875 C 31.710938 -16.289062 31.953125 -14.734375 31.953125 -13.015625 C 31.953125 -11.296875 31.710938 -9.734375 31.234375 -8.328125 C 30.765625 -6.929688 30.085938 -5.691406 29.203125 -4.609375 C 28.316406 -3.535156 27.242188 -2.628906 25.984375 -1.890625 C 24.722656 -1.148438 23.300781 -0.59375 21.71875 -0.21875 C 20.132812 0.15625 18.414062 0.34375 16.5625 0.34375 Z M 16.5625 -5.390625 C 17.832031 -5.390625 18.972656 -5.535156 19.984375 -5.828125 C 21.003906 -6.128906 21.875 -6.585938 22.59375 -7.203125 C 23.3125 -7.816406 23.863281 -8.601562 24.25 -9.5625 C 24.632812 -10.53125 24.828125 -11.679688 24.828125 -13.015625 C 24.828125 -14.335938 24.632812 -15.476562 24.25 -16.4375 C 23.863281 -17.40625 23.3125 -18.195312 22.59375 -18.8125 C 21.875 -19.425781 21.003906 -19.878906 19.984375 -20.171875 C 18.972656 -20.460938 17.832031 -20.609375 16.5625 -20.609375 C 15.300781 -20.609375 14.164062 -20.460938 13.15625 -20.171875 C 12.144531 -19.878906 11.28125 -19.425781 10.5625 -18.8125 C 9.851562 -18.195312 9.304688 -17.40625 8.921875 -16.4375 C 8.546875 -15.476562 8.359375 -14.335938 8.359375 -13.015625 C 8.359375 -11.679688 8.546875 -10.53125 8.921875 -9.5625 C 9.304688 -8.601562 9.851562 -7.816406 10.5625 -7.203125 C 11.28125 -6.585938 12.144531 -6.128906 13.15625 -5.828125 C 14.164062 -5.535156 15.300781 -5.390625 16.5625 -5.390625 Z M 16.5625 -5.390625 "/></g></g></g><g fill="#000000" fill-opacity="1"><g transform="translate(117.236564, 165.572245)"><g><path d="M 2.96875 0 L 2.96875 -26 L 21.125 -26 C 22.5 -26 23.707031 -25.875 24.75 -25.625 C 25.800781 -25.382812 26.703125 -25.039062 27.453125 -24.59375 C 28.203125 -24.144531 28.8125 -23.617188 29.28125 -23.015625 C 29.757812 -22.421875 30.113281 -21.769531 30.34375 -21.0625 C 30.570312 -20.351562 30.6875 -19.613281 30.6875 -18.84375 C 30.6875 -17.988281 30.59375 -17.226562 30.40625 -16.5625 C 30.21875 -15.894531 29.960938 -15.3125 29.640625 -14.8125 C 29.316406 -14.3125 28.941406 -13.882812 28.515625 -13.53125 C 28.085938 -13.1875 27.628906 -12.898438 27.140625 -12.671875 C 26.648438 -12.441406 26.148438 -12.269531 25.640625 -12.15625 C 25.128906 -12.050781 24.625 -11.984375 24.125 -11.953125 C 24.71875 -11.722656 25.222656 -11.425781 25.640625 -11.0625 C 26.054688 -10.707031 26.394531 -10.300781 26.65625 -9.84375 C 26.925781 -9.394531 27.144531 -8.90625 27.3125 -8.375 C 27.488281 -7.851562 27.628906 -7.304688 27.734375 -6.734375 C 27.835938 -6.171875 27.9375 -5.59375 28.03125 -5 C 28.132812 -4.414062 28.242188 -3.832031 28.359375 -3.25 C 28.484375 -2.664062 28.632812 -2.097656 28.8125 -1.546875 C 29 -1.003906 29.242188 -0.488281 29.546875 0 L 21.84375 0 C 21.59375 -0.4375 21.390625 -0.921875 21.234375 -1.453125 C 21.085938 -1.984375 20.960938 -2.535156 20.859375 -3.109375 C 20.765625 -3.679688 20.671875 -4.253906 20.578125 -4.828125 C 20.492188 -5.410156 20.382812 -5.972656 20.25 -6.515625 C 20.125 -7.066406 19.957031 -7.578125 19.75 -8.046875 C 19.539062 -8.515625 19.265625 -8.925781 18.921875 -9.28125 C 18.585938 -9.632812 18.164062 -9.910156 17.65625 -10.109375 C 17.144531 -10.304688 16.519531 -10.40625 15.78125 -10.40625 L 10.390625 -10.40625 L 10.390625 0 Z M 10.390625 -15.609375 L 19.875 -15.609375 C 20.789062 -15.609375 21.523438 -15.691406 22.078125 -15.859375 C 22.628906 -16.035156 23.023438 -16.304688 23.265625 -16.671875 C 23.503906 -17.046875 23.625 -17.523438 23.625 -18.109375 C 23.625 -18.703125 23.503906 -19.171875 23.265625 -19.515625 C 23.023438 -19.867188 22.628906 -20.117188 22.078125 -20.265625 C 21.523438 -20.421875 20.789062 -20.5 19.875 -20.5 L 10.390625 -20.5 Z M 10.390625 -15.609375 "/></g></g></g><g fill="#000000" fill-opacity="1"><g transform="translate(148.960592, 165.572245)"><g><path d="M 20.1875 -26 C 21.351562 -26 22.425781 -25.851562 23.40625 -25.5625 C 24.394531 -25.269531 25.269531 -24.851562 26.03125 -24.3125 C 26.800781 -23.78125 27.453125 -23.148438 27.984375 -22.421875 C 28.515625 -21.703125 28.921875 -20.910156 29.203125 -20.046875 C 29.484375 -19.179688 29.625 -18.269531 29.625 -17.3125 C 29.625 -16.332031 29.484375 -15.410156 29.203125 -14.546875 C 28.921875 -13.691406 28.515625 -12.910156 27.984375 -12.203125 C 27.453125 -11.503906 26.800781 -10.898438 26.03125 -10.390625 C 25.269531 -9.878906 24.394531 -9.484375 23.40625 -9.203125 C 22.425781 -8.929688 21.351562 -8.796875 20.1875 -8.796875 L 10.390625 -8.796875 L 10.390625 0 L 2.96875 0 L 2.96875 -26 Z M 18.90625 -14.375 C 19.78125 -14.375 20.488281 -14.492188 21.03125 -14.734375 C 21.570312 -14.984375 21.960938 -15.332031 22.203125 -15.78125 C 22.453125 -16.238281 22.578125 -16.785156 22.578125 -17.421875 C 22.578125 -18.023438 22.453125 -18.550781 22.203125 -19 C 21.960938 -19.445312 21.570312 -19.796875 21.03125 -20.046875 C 20.488281 -20.296875 19.78125 -20.421875 18.90625 -20.421875 L 10.390625 -20.421875 L 10.390625 -14.375 Z M 18.90625 -14.375 "/></g></g></g><g fill="#000000" fill-opacity="1"><g transform="translate(179.400592, 165.572245)"><g><path d="M 16.5625 0.34375 C 14.71875 0.34375 13.003906 0.15625 11.421875 -0.21875 C 9.847656 -0.59375 8.429688 -1.148438 7.171875 -1.890625 C 5.921875 -2.628906 4.847656 -3.535156 3.953125 -4.609375 C 3.066406 -5.691406 2.390625 -6.929688 1.921875 -8.328125 C 1.453125 -9.734375 1.21875 -11.296875 1.21875 -13.015625 C 1.21875 -14.734375 1.453125 -16.289062 1.921875 -17.6875 C 2.390625 -19.09375 3.066406 -20.332031 3.953125 -21.40625 C 4.847656 -22.488281 5.921875 -23.394531 7.171875 -24.125 C 8.429688 -24.863281 9.847656 -25.421875 11.421875 -25.796875 C 13.003906 -26.171875 14.71875 -26.359375 16.5625 -26.359375 C 18.414062 -26.359375 20.132812 -26.171875 21.71875 -25.796875 C 23.300781 -25.421875 24.722656 -24.863281 25.984375 -24.125 C 27.242188 -23.394531 28.316406 -22.488281 29.203125 -21.40625 C 30.085938 -20.332031 30.765625 -19.09375 31.234375 -17.6875 C 31.710938 -16.289062 31.953125 -14.734375 31.953125 -13.015625 C 31.953125 -11.296875 31.710938 -9.734375 31.234375 -8.328125 C 30.765625 -6.929688 30.085938 -5.691406 29.203125 -4.609375 C 28.316406 -3.535156 27.242188 -2.628906 25.984375 -1.890625 C 24.722656 -1.148438 23.300781 -0.59375 21.71875 -0.21875 C 20.132812 0.15625 18.414062 0.34375 16.5625 0.34375 Z M 16.5625 -5.390625 C 17.832031 -5.390625 18.972656 -5.535156 19.984375 -5.828125 C 21.003906 -6.128906 21.875 -6.585938 22.59375 -7.203125 C 23.3125 -7.816406 23.863281 -8.601562 24.25 -9.5625 C 24.632812 -10.53125 24.828125 -11.679688 24.828125 -13.015625 C 24.828125 -14.335938 24.632812 -15.476562 24.25 -16.4375 C 23.863281 -17.40625 23.3125 -18.195312 22.59375 -18.8125 C 21.875 -19.425781 21.003906 -19.878906 19.984375 -20.171875 C 18.972656 -20.460938 17.832031 -20.609375 16.5625 -20.609375 C 15.300781 -20.609375 14.164062 -20.460938 13.15625 -20.171875 C 12.144531 -19.878906 11.28125 -19.425781 10.5625 -18.8125 C 9.851562 -18.195312 9.304688 -17.40625 8.921875 -16.4375 C 8.546875 -15.476562 8.359375 -14.335938 8.359375 -13.015625 C 8.359375 -11.679688 8.546875 -10.53125 8.921875 -9.5625 C 9.304688 -8.601562 9.851562 -7.816406 10.5625 -7.203125 C 11.28125 -6.585938 12.144531 -6.128906 13.15625 -5.828125 C 14.164062 -5.535156 15.300781 -5.390625 16.5625 -5.390625 Z M 16.5625 -5.390625 "/></g></g></g><g fill="#000000" fill-opacity="1"><g transform="translate(212.545609, 165.572245)"><g><path d="M 2.96875 0 L 2.96875 -26 L 21.125 -26 C 22.5 -26 23.707031 -25.875 24.75 -25.625 C 25.800781 -25.382812 26.703125 -25.039062 27.453125 -24.59375 C 28.203125 -24.144531 28.8125 -23.617188 29.28125 -23.015625 C 29.757812 -22.421875 30.113281 -21.769531 30.34375 -21.0625 C 30.570312 -20.351562 30.6875 -19.613281 30.6875 -18.84375 C 30.6875 -17.988281 30.59375 -17.226562 30.40625 -16.5625 C 30.21875 -15.894531 29.960938 -15.3125 29.640625 -14.8125 C 29.316406 -14.3125 28.941406 -13.882812 28.515625 -13.53125 C 28.085938 -13.1875 27.628906 -12.898438 27.140625 -12.671875 C 26.648438 -12.441406 26.148438 -12.269531 25.640625 -12.15625 C 25.128906 -12.050781 24.625 -11.984375 24.125 -11.953125 C 24.71875 -11.722656 25.222656 -11.425781 25.640625 -11.0625 C 26.054688 -10.707031 26.394531 -10.300781 26.65625 -9.84375 C 26.925781 -9.394531 27.144531 -8.90625 27.3125 -8.375 C 27.488281 -7.851562 27.628906 -7.304688 27.734375 -6.734375 C 27.835938 -6.171875 27.9375 -5.59375 28.03125 -5 C 28.132812 -4.414062 28.242188 -3.832031 28.359375 -3.25 C 28.484375 -2.664062 28.632812 -2.097656 28.8125 -1.546875 C 29 -1.003906 29.242188 -0.488281 29.546875 0 L 21.84375 0 C 21.59375 -0.4375 21.390625 -0.921875 21.234375 -1.453125 C 21.085938 -1.984375 20.960938 -2.535156 20.859375 -3.109375 C 20.765625 -3.679688 20.671875 -4.253906 20.578125 -4.828125 C 20.492188 -5.410156 20.382812 -5.972656 20.25 -6.515625 C 20.125 -7.066406 19.957031 -7.578125 19.75 -8.046875 C 19.539062 -8.515625 19.265625 -8.925781 18.921875 -9.28125 C 18.585938 -9.632812 18.164062 -9.910156 17.65625 -10.109375 C 17.144531 -10.304688 16.519531 -10.40625 15.78125 -10.40625 L 10.390625 -10.40625 L 10.390625 0 Z M 10.390625 -15.609375 L 19.875 -15.609375 C 20.789062 -15.609375 21.523438 -15.691406 22.078125 -15.859375 C 22.628906 -16.035156 23.023438 -16.304688 23.265625 -16.671875 C 23.503906 -17.046875 23.625 -17.523438 23.625 -18.109375 C 23.625 -18.703125 23.503906 -19.171875 23.265625 -19.515625 C 23.023438 -19.867188 22.628906 -20.117188 22.078125 -20.265625 C 21.523438 -20.421875 20.789062 -20.5 19.875 -20.5 L 10.390625 -20.5 Z M 10.390625 -15.609375 "/></g></g></g><g fill="#000000" fill-opacity="1"><g transform="translate(244.269637, 165.572245)"><g><path d="M 23.546875 0 L 21.734375 -4.8125 L 9.984375 -4.8125 L 8.1875 0 L 0.546875 0 L 11.09375 -26 L 20.671875 -26 L 31.140625 0 Z M 12.078125 -10.359375 L 19.640625 -10.359375 L 16.046875 -19.921875 L 15.6875 -19.921875 Z M 12.078125 -10.359375 "/></g></g></g><g fill="#000000" fill-opacity="1"><g transform="translate(275.959424, 165.572245)"><g><path d="M 25.203125 -26 L 25.203125 -20.140625 L 16.578125 -20.140625 L 16.578125 0 L 9.234375 0 L 9.234375 -20.140625 L 0.59375 -20.140625 L 0.59375 -26 Z M 25.203125 -26 "/></g></g></g><g fill="#000000" fill-opacity="1"><g transform="translate(301.759807, 165.572245)"><g><path d="M 10.390625 -5.90625 L 26.171875 -5.90625 L 26.171875 0 L 2.96875 0 L 2.96875 -26 L 25.328125 -26 L 25.328125 -20.140625 L 10.390625 -20.140625 L 10.390625 -15.921875 L 19.28125 -15.921875 L 19.28125 -10.78125 L 10.390625 -10.78125 Z M 10.390625 -5.90625 "/></g></g></g><g fill="#000000" fill-opacity="1"><g transform="translate(118.913243, 196.466238)"><g><path d="M 14.171875 0.296875 C 12.585938 0.296875 11.117188 0.132812 9.765625 -0.1875 C 8.421875 -0.507812 7.210938 -0.984375 6.140625 -1.609375 C 5.066406 -2.242188 4.148438 -3.019531 3.390625 -3.9375 C 2.628906 -4.863281 2.046875 -5.925781 1.640625 -7.125 C 1.242188 -8.332031 1.046875 -9.671875 1.046875 -11.140625 C 1.046875 -12.609375 1.242188 -13.941406 1.640625 -15.140625 C 2.046875 -16.335938 2.628906 -17.394531 3.390625 -18.3125 C 4.148438 -19.238281 5.066406 -20.015625 6.140625 -20.640625 C 7.210938 -21.273438 8.421875 -21.753906 9.765625 -22.078125 C 11.117188 -22.398438 12.585938 -22.5625 14.171875 -22.5625 C 15.867188 -22.5625 17.429688 -22.375 18.859375 -22 C 20.285156 -21.632812 21.550781 -21.09375 22.65625 -20.375 C 23.769531 -19.664062 24.695312 -18.785156 25.4375 -17.734375 C 26.175781 -16.679688 26.703125 -15.472656 27.015625 -14.109375 L 20.734375 -14.109375 C 20.410156 -14.921875 19.941406 -15.585938 19.328125 -16.109375 C 18.710938 -16.628906 17.96875 -17.015625 17.09375 -17.265625 C 16.226562 -17.515625 15.253906 -17.640625 14.171875 -17.640625 C 13.085938 -17.640625 12.113281 -17.507812 11.25 -17.25 C 10.394531 -17 9.660156 -16.613281 9.046875 -16.09375 C 8.429688 -15.570312 7.960938 -14.898438 7.640625 -14.078125 C 7.316406 -13.253906 7.15625 -12.273438 7.15625 -11.140625 C 7.15625 -9.992188 7.316406 -9.007812 7.640625 -8.1875 C 7.960938 -7.363281 8.429688 -6.6875 9.046875 -6.15625 C 9.660156 -5.632812 10.394531 -5.242188 11.25 -4.984375 C 12.113281 -4.734375 13.085938 -4.609375 14.171875 -4.609375 C 15.421875 -4.609375 16.523438 -4.773438 17.484375 -5.109375 C 18.441406 -5.453125 19.226562 -5.972656 19.84375 -6.671875 C 20.457031 -7.367188 20.867188 -8.269531 21.078125 -9.375 L 27.234375 -9.375 C 27.078125 -8.125 26.753906 -6.988281 26.265625 -5.96875 C 25.785156 -4.957031 25.160156 -4.0625 24.390625 -3.28125 C 23.617188 -2.5 22.71875 -1.84375 21.6875 -1.3125 C 20.65625 -0.78125 19.503906 -0.378906 18.234375 -0.109375 C 16.972656 0.160156 15.617188 0.296875 14.171875 0.296875 Z M 14.171875 0.296875 "/></g></g><g transform="translate(146.979648, 196.466238)"><g><path d="M 14.171875 0.296875 C 12.585938 0.296875 11.117188 0.132812 9.765625 -0.1875 C 8.421875 -0.507812 7.210938 -0.984375 6.140625 -1.609375 C 5.066406 -2.242188 4.148438 -3.019531 3.390625 -3.9375 C 2.628906 -4.863281 2.046875 -5.925781 1.640625 -7.125 C 1.242188 -8.332031 1.046875 -9.671875 1.046875 -11.140625 C 1.046875 -12.609375 1.242188 -13.941406 1.640625 -15.140625 C 2.046875 -16.335938 2.628906 -17.394531 3.390625 -18.3125 C 4.148438 -19.238281 5.066406 -20.015625 6.140625 -20.640625 C 7.210938 -21.273438 8.421875 -21.753906 9.765625 -22.078125 C 11.117188 -22.398438 12.585938 -22.5625 14.171875 -22.5625 C 15.753906 -22.5625 17.222656 -22.398438 18.578125 -22.078125 C 19.929688 -21.753906 21.144531 -21.273438 22.21875 -20.640625 C 23.300781 -20.015625 24.222656 -19.238281 24.984375 -18.3125 C 25.742188 -17.394531 26.320312 -16.335938 26.71875 -15.140625 C 27.125 -13.941406 27.328125 -12.609375 27.328125 -11.140625 C 27.328125 -9.671875 27.125 -8.332031 26.71875 -7.125 C 26.320312 -5.925781 25.742188 -4.863281 24.984375 -3.9375 C 24.222656 -3.019531 23.300781 -2.242188 22.21875 -1.609375 C 21.144531 -0.984375 19.929688 -0.507812 18.578125 -0.1875 C 17.222656 0.132812 15.753906 0.296875 14.171875 0.296875 Z M 14.171875 -4.609375 C 15.253906 -4.609375 16.226562 -4.734375 17.09375 -4.984375 C 17.96875 -5.242188 18.710938 -5.632812 19.328125 -6.15625 C 19.953125 -6.6875 20.425781 -7.363281 20.75 -8.1875 C 21.070312 -9.007812 21.234375 -9.992188 21.234375 -11.140625 C 21.234375 -12.273438 21.070312 -13.253906 20.75 -14.078125 C 20.425781 -14.898438 19.953125 -15.570312 19.328125 -16.09375 C 18.710938 -16.613281 17.96875 -17 17.09375 -17.25 C 16.226562 -17.507812 15.253906 -17.640625 14.171875 -17.640625 C 13.085938 -17.640625 12.113281 -17.507812 11.25 -17.25 C 10.394531 -17 9.660156 -16.613281 9.046875 -16.09375 C 8.429688 -15.570312 7.960938 -14.898438 7.640625 -14.078125 C 7.316406 -13.253906 7.15625 -12.273438 7.15625 -11.140625 C 7.15625 -9.992188 7.316406 -9.007812 7.640625 -8.1875 C 7.960938 -7.363281 8.429688 -6.6875 9.046875 -6.15625 C 9.660156 -5.632812 10.394531 -5.242188 11.25 -4.984375 C 12.113281 -4.734375 13.085938 -4.609375 14.171875 -4.609375 Z M 14.171875 -4.609375 "/></g></g><g transform="translate(175.339021, 196.466238)"><g><path d="M 19.375 -22.25 L 25.671875 -22.25 L 25.671875 0 L 17.21875 0 L 8.8125 -14.78125 L 8.8125 0 L 2.53125 0 L 2.53125 -22.25 L 11.03125 -22.25 L 19.375 -7.59375 Z M 19.375 -22.25 "/></g></g><g transform="translate(203.537261, 196.466238)"><g><path d="M 19.375 -22.25 L 25.671875 -22.25 L 25.671875 0 L 17.21875 0 L 8.8125 -14.78125 L 8.8125 0 L 2.53125 0 L 2.53125 -22.25 L 11.03125 -22.25 L 19.375 -7.59375 Z M 19.375 -22.25 "/></g></g><g transform="translate(231.735502, 196.466238)"><g><path d="M 8.890625 -5.046875 L 22.390625 -5.046875 L 22.390625 0 L 2.53125 0 L 2.53125 -22.25 L 21.671875 -22.25 L 21.671875 -17.234375 L 8.890625 -17.234375 L 8.890625 -13.625 L 16.5 -13.625 L 16.5 -9.234375 L 8.890625 -9.234375 Z M 8.890625 -5.046875 "/></g></g><g transform="translate(255.260891, 196.466238)"><g><path d="M 14.171875 0.296875 C 12.585938 0.296875 11.117188 0.132812 9.765625 -0.1875 C 8.421875 -0.507812 7.210938 -0.984375 6.140625 -1.609375 C 5.066406 -2.242188 4.148438 -3.019531 3.390625 -3.9375 C 2.628906 -4.863281 2.046875 -5.925781 1.640625 -7.125 C 1.242188 -8.332031 1.046875 -9.671875 1.046875 -11.140625 C 1.046875 -12.609375 1.242188 -13.941406 1.640625 -15.140625 C 2.046875 -16.335938 2.628906 -17.394531 3.390625 -18.3125 C 4.148438 -19.238281 5.066406 -20.015625 6.140625 -20.640625 C 7.210938 -21.273438 8.421875 -21.753906 9.765625 -22.078125 C 11.117188 -22.398438 12.585938 -22.5625 14.171875 -22.5625 C 15.867188 -22.5625 17.429688 -22.375 18.859375 -22 C 20.285156 -21.632812 21.550781 -21.09375 22.65625 -20.375 C 23.769531 -19.664062 24.695312 -18.785156 25.4375 -17.734375 C 26.175781 -16.679688 26.703125 -15.472656 27.015625 -14.109375 L 20.734375 -14.109375 C 20.410156 -14.921875 19.941406 -15.585938 19.328125 -16.109375 C 18.710938 -16.628906 17.96875 -17.015625 17.09375 -17.265625 C 16.226562 -17.515625 15.253906 -17.640625 14.171875 -17.640625 C 13.085938 -17.640625 12.113281 -17.507812 11.25 -17.25 C 10.394531 -17 9.660156 -16.613281 9.046875 -16.09375 C 8.429688 -15.570312 7.960938 -14.898438 7.640625 -14.078125 C 7.316406 -13.253906 7.15625 -12.273438 7.15625 -11.140625 C 7.15625 -9.992188 7.316406 -9.007812 7.640625 -8.1875 C 7.960938 -7.363281 8.429688 -6.6875 9.046875 -6.15625 C 9.660156 -5.632812 10.394531 -5.242188 11.25 -4.984375 C 12.113281 -4.734375 13.085938 -4.609375 14.171875 -4.609375 C 15.421875 -4.609375 16.523438 -4.773438 17.484375 -5.109375 C 18.441406 -5.453125 19.226562 -5.972656 19.84375 -6.671875 C 20.457031 -7.367188 20.867188 -8.269531 21.078125 -9.375 L 27.234375 -9.375 C 27.078125 -8.125 26.753906 -6.988281 26.265625 -5.96875 C 25.785156 -4.957031 25.160156 -4.0625 24.390625 -3.28125 C 23.617188 -2.5 22.71875 -1.84375 21.6875 -1.3125 C 20.65625 -0.78125 19.503906 -0.378906 18.234375 -0.109375 C 16.972656 0.160156 15.617188 0.296875 14.171875 0.296875 Z M 14.171875 0.296875 "/></g></g><g transform="translate(283.327295, 196.466238)"><g><path d="M 21.5625 -22.25 L 21.5625 -17.234375 L 14.1875 -17.234375 L 14.1875 0 L 7.890625 0 L 7.890625 -17.234375 L 0.515625 -17.234375 L 0.515625 -22.25 Z M 21.5625 -22.25 "/></g></g><g transform="translate(305.402489, 196.466238)"><g><path d="M 13.140625 0.296875 C 12.085938 0.296875 11.078125 0.25 10.109375 0.15625 C 9.148438 0.0703125 8.242188 -0.0703125 7.390625 -0.28125 C 6.546875 -0.5 5.769531 -0.796875 5.0625 -1.171875 C 4.363281 -1.554688 3.738281 -2.035156 3.1875 -2.609375 C 2.644531 -3.179688 2.191406 -3.867188 1.828125 -4.671875 C 1.460938 -5.484375 1.203125 -6.425781 1.046875 -7.5 L 7.6875 -7.5 C 7.769531 -7.019531 7.914062 -6.601562 8.125 -6.25 C 8.332031 -5.894531 8.582031 -5.59375 8.875 -5.34375 C 9.175781 -5.101562 9.507812 -4.898438 9.875 -4.734375 C 10.238281 -4.578125 10.613281 -4.453125 11 -4.359375 C 11.382812 -4.273438 11.769531 -4.210938 12.15625 -4.171875 C 12.550781 -4.140625 12.921875 -4.125 13.265625 -4.125 C 13.953125 -4.125 14.578125 -4.175781 15.140625 -4.28125 C 15.710938 -4.394531 16.207031 -4.5625 16.625 -4.78125 C 17.050781 -5 17.378906 -5.273438 17.609375 -5.609375 C 17.835938 -5.953125 17.953125 -6.363281 17.953125 -6.84375 C 17.953125 -7.300781 17.832031 -7.664062 17.59375 -7.9375 C 17.363281 -8.21875 17.019531 -8.425781 16.5625 -8.5625 C 16.101562 -8.695312 15.539062 -8.796875 14.875 -8.859375 C 14.21875 -8.921875 13.460938 -8.972656 12.609375 -9.015625 C 12.117188 -9.035156 11.585938 -9.0625 11.015625 -9.09375 C 10.441406 -9.132812 9.847656 -9.191406 9.234375 -9.265625 C 8.617188 -9.335938 8 -9.441406 7.375 -9.578125 C 6.757812 -9.722656 6.160156 -9.90625 5.578125 -10.125 C 5.003906 -10.34375 4.46875 -10.613281 3.96875 -10.9375 C 3.476562 -11.269531 3.046875 -11.664062 2.671875 -12.125 C 2.296875 -12.582031 2.003906 -13.113281 1.796875 -13.71875 C 1.585938 -14.332031 1.484375 -15.03125 1.484375 -15.8125 C 1.484375 -16.800781 1.65625 -17.664062 2 -18.40625 C 2.34375 -19.15625 2.832031 -19.789062 3.46875 -20.3125 C 4.113281 -20.84375 4.882812 -21.269531 5.78125 -21.59375 C 6.675781 -21.925781 7.671875 -22.164062 8.765625 -22.3125 C 9.859375 -22.46875 11.035156 -22.546875 12.296875 -22.546875 C 15.929688 -22.546875 18.710938 -21.957031 20.640625 -20.78125 C 22.566406 -19.613281 23.664062 -17.894531 23.9375 -15.625 L 17.578125 -15.625 C 17.453125 -16.0625 17.265625 -16.429688 17.015625 -16.734375 C 16.773438 -17.046875 16.484375 -17.300781 16.140625 -17.5 C 15.804688 -17.707031 15.429688 -17.863281 15.015625 -17.96875 C 14.609375 -18.082031 14.175781 -18.160156 13.71875 -18.203125 C 13.257812 -18.253906 12.789062 -18.28125 12.3125 -18.28125 C 11.71875 -18.28125 11.148438 -18.242188 10.609375 -18.171875 C 10.066406 -18.109375 9.585938 -17.992188 9.171875 -17.828125 C 8.765625 -17.671875 8.441406 -17.457031 8.203125 -17.1875 C 7.960938 -16.925781 7.84375 -16.59375 7.84375 -16.1875 C 7.84375 -15.8125 7.945312 -15.503906 8.15625 -15.265625 C 8.363281 -15.035156 8.664062 -14.847656 9.0625 -14.703125 C 9.457031 -14.566406 9.929688 -14.457031 10.484375 -14.375 C 11.046875 -14.300781 11.664062 -14.238281 12.34375 -14.1875 C 13.03125 -14.132812 13.773438 -14.078125 14.578125 -14.015625 C 15.242188 -13.960938 15.914062 -13.898438 16.59375 -13.828125 C 17.269531 -13.753906 17.929688 -13.648438 18.578125 -13.515625 C 19.234375 -13.378906 19.851562 -13.203125 20.4375 -12.984375 C 21.03125 -12.765625 21.578125 -12.484375 22.078125 -12.140625 C 22.578125 -11.804688 23.003906 -11.398438 23.359375 -10.921875 C 23.722656 -10.441406 24.003906 -9.867188 24.203125 -9.203125 C 24.410156 -8.546875 24.515625 -7.785156 24.515625 -6.921875 C 24.515625 -5.773438 24.335938 -4.789062 23.984375 -3.96875 C 23.628906 -3.144531 23.117188 -2.457031 22.453125 -1.90625 C 21.796875 -1.363281 21 -0.929688 20.0625 -0.609375 C 19.125 -0.285156 18.070312 -0.0546875 16.90625 0.078125 C 15.75 0.222656 14.492188 0.296875 13.140625 0.296875 Z M 13.140625 0.296875 "/></g></g></g><g clip-path="url(#abe0c83920)"><g clip-path="url(#ab24f5663f)"><path fill="#406fe8" d="M 39.75 141.308594 L 129.132812 141.308594 L 129.132812 230.691406 L 39.75 230.691406 Z M 39.75 141.308594 " fill-opacity="1" fill-rule="nonzero"/></g></g></svg>