<svg width="312" height="80" viewBox="0 0 312 80" fill="none" xmlns="http://www.w3.org/2000/svg">
<rect x="36" width="240" height="80" rx="40" fill="white"/>
<rect x="188" width="80" height="80" rx="40" fill="white"/>
<rect x="112" width="80" height="80" rx="40" fill="white"/>
<path d="M149.84 47.7609L152.745 44.8647L151.284 43.4034L148.379 46.3084L149.84 47.7609Z" fill="#56687A"/>
<path d="M148.055 45.6789C147.346 45.0839 146.296 45.1364 145.657 45.8101L135.56 55.9164C134.869 56.5376 134.807 57.5964 135.42 58.2876C135.42 58.2876 135.429 58.2964 135.437 58.3051L137.695 60.5801C138.395 61.1926 139.462 61.1314 140.084 60.4314L150.181 50.3251C150.881 49.7039 150.942 48.6364 150.321 47.9451C150.321 47.9451 150.321 47.9364 150.312 47.9276L148.055 45.6789V45.6789Z" fill="#F8C77E"/>
<path d="M162.125 48.75C170.34 48.75 177 42.0902 177 33.875C177 25.6598 170.34 19 162.125 19C153.91 19 147.25 25.6598 147.25 33.875C147.25 42.0902 153.91 48.75 162.125 48.75Z" fill="#56687A"/>
<path d="M162.125 47C169.374 47 175.25 41.1237 175.25 33.875C175.25 26.6263 169.374 20.75 162.125 20.75C154.876 20.75 149 26.6263 149 33.875C149 41.1237 154.876 47 162.125 47Z" fill="white"/>
<path d="M162.125 44.375C167.924 44.375 172.625 39.674 172.625 33.875C172.625 28.076 167.924 23.375 162.125 23.375C156.326 23.375 151.625 28.076 151.625 33.875C151.625 39.674 156.326 44.375 162.125 44.375Z" fill="#DDE7F1"/>
<rect x="197" y="13" width="54" height="54" rx="27" fill="white"/>
<mask id="mask0_2626_2780" style="mask-type:alpha" maskUnits="userSpaceOnUse" x="215" y="15" width="20" height="20">
<circle cx="224.749" cy="25.2238" r="9.52323" fill="#C4C4C4"/>
</mask>
<g mask="url(#mask0_2626_2780)">
<circle cx="224.749" cy="25.2238" r="9.52323" fill="#EAE2F3"/>
<path d="M227.638 21.9425C227.639 22.7247 227.411 23.4902 226.983 24.1439L226.927 24.2284C226.77 24.4601 226.587 24.6733 226.383 24.8643C225.813 25.4064 225.097 25.769 224.324 25.9074C223.551 26.0458 222.754 25.9537 222.032 25.6427C221.311 25.3316 220.696 24.8153 220.264 24.1575C219.833 23.4998 219.603 22.7296 219.604 21.9425C219.604 21.8887 219.604 21.8349 219.604 21.7811C219.618 21.6844 219.626 21.5868 219.627 21.4891C219.772 20.4913 220.285 19.5841 221.065 18.9463C221.844 18.3084 222.833 17.9862 223.838 18.0431C224.843 18.1 225.79 18.5318 226.492 19.2536C227.195 19.9753 227.603 20.9346 227.635 21.9425H227.638Z" fill="#DE9885"/>
<path d="M226.519 24.8393C225.434 26.4529 225.315 27.7207 227.376 29.3151L226.657 29.3478L222.373 29.4938L219.979 28.831C221.928 28.831 221.913 26.645 220.998 26.2992C219.685 25.8362 219.605 25.7882 219.635 24.4896C219.685 23.7597 219.112 23.8538 219.112 23.4292C219.112 23.0451 219.511 22.6167 219.609 21.7811C219.622 21.6843 219.63 21.5868 219.632 21.4891L222.662 22.584L224.376 23.2026L224.485 23.241L226.977 24.1439L226.922 24.2284C226.784 24.4474 226.648 24.6491 226.519 24.8393Z" fill="#DE9885"/>
<path d="M220.377 22.0516H223.48" stroke="#F1ECE6" stroke-width="0.250916" stroke-miterlimit="10"/>
<path d="M220.428 21.2157L220.329 22.8864" stroke="#F1ECE6" stroke-width="0.250916" stroke-miterlimit="10"/>
<path d="M227.638 21.9417C227.639 22.724 227.411 23.4894 226.982 24.1431L226.927 24.2277C226.783 24.4466 226.647 24.6484 226.518 24.8385C226.472 24.8385 226.426 24.8577 226.382 24.8635C225.284 25.0556 224.402 24.4294 224.484 23.2403C224.493 23.1306 224.508 23.0215 224.53 22.9137C224.54 22.858 224.553 22.8042 224.569 22.7466V22.7235L222.771 22.1473L224.318 18.4974C223.089 19.5866 222.556 18.0614 222.556 18.0614C223.152 17.9 223.777 17.878 224.382 17.9972C224.988 18.1164 225.558 18.3736 226.049 18.7488C226.539 19.1241 226.937 19.6074 227.212 20.1613C227.486 20.7153 227.63 21.3251 227.632 21.9436L227.638 21.9417Z" fill="#61382E"/>
<path d="M223.62 23.5732C224.151 23.5732 224.58 23.1424 224.58 22.6111C224.58 22.0797 224.151 21.649 223.62 21.649C223.09 21.649 222.66 22.0797 222.66 22.6111C222.66 23.1424 223.09 23.5732 223.62 23.5732Z" fill="#DE9885"/>
<path d="M231.305 49.5549C231.305 49.5549 229.005 46.6734 224.021 46.6734H214.963C214.963 46.6734 214.723 43.936 217.359 39.2777L213.525 38.0291L216.276 30.7928C216.528 30.1311 216.974 29.5616 217.556 29.1599C218.138 28.7582 218.828 28.5432 219.535 28.5433H220.764L221.58 27.1487L222.092 28.5356L222.391 29.3424L222.79 28.6413L222.851 28.5356L223.618 27.191L226.796 26.8548L227.371 28.5433H227.573C228.705 28.5429 229.796 28.9666 230.632 29.7312C231.468 30.4957 231.988 31.5458 232.091 32.6753L232.26 34.5233C232.26 34.5233 233.126 44.6564 231.305 49.5549Z" fill="#606E30"/>
<path d="M222.852 28.5403H222.093L222.091 28.5326L222.852 28.5403Z" fill="#DE9885"/>
<path d="M221.713 30.0882C221.833 30.0882 221.93 29.9911 221.93 29.8712C221.93 29.7513 221.833 29.6541 221.713 29.6541C221.593 29.6541 221.496 29.7513 221.496 29.8712C221.496 29.9911 221.593 30.0882 221.713 30.0882Z" fill="#F1ECE6"/>
<path d="M221.713 31.055C221.833 31.055 221.93 30.9579 221.93 30.838C221.93 30.7181 221.833 30.6209 221.713 30.6209C221.593 30.6209 221.496 30.7181 221.496 30.838C221.496 30.9579 221.593 31.055 221.713 31.055Z" fill="#F1ECE6"/>
<path d="M221.713 32.0235C221.833 32.0235 221.93 31.9264 221.93 31.8065C221.93 31.6866 221.833 31.5894 221.713 31.5894C221.593 31.5894 221.496 31.6866 221.496 31.8065C221.496 31.9264 221.593 32.0235 221.713 32.0235Z" fill="#F1ECE6"/>
</g>
<mask id="mask1_2626_2780" style="mask-type:alpha" maskUnits="userSpaceOnUse" x="230" y="30" width="19" height="20">
<circle cx="239.525" cy="39.9994" r="9.45" fill="#C4C4C4"/>
</mask>
<g mask="url(#mask1_2626_2780)">
<circle cx="239.525" cy="39.9994" r="9.45" fill="#B0B0B0"/>
<path d="M241.797 37.8784V37.8977C241.764 38.0016 241.727 38.1054 241.683 38.2075C241.681 38.2167 241.677 38.2256 241.673 38.2339V38.2339C241.673 38.2339 241.673 38.2497 241.673 38.2585L241.662 38.2814C241.415 38.8321 241.038 39.3138 240.562 39.6844C240.087 40.055 239.528 40.3033 238.935 40.4076C238.71 40.4477 238.483 40.4653 238.255 40.4604C237.397 40.4472 236.571 40.1349 235.918 39.5772C235.266 39.0196 234.827 38.2514 234.679 37.4049C234.668 37.3468 234.661 37.2887 234.654 37.2289C234.654 37.1585 234.644 37.0863 234.633 37.0107C234.632 37.0042 234.632 36.9977 234.633 36.9913C234.61 36.615 234.646 36.2373 234.739 35.8719C234.833 35.4986 234.986 35.1423 235.19 34.8159C235.585 34.1836 236.162 33.6864 236.846 33.3899C237.529 33.0935 238.286 33.0117 239.016 33.1556C239.747 33.2994 240.416 33.6619 240.937 34.1953C241.457 34.7288 241.804 35.4079 241.931 36.143C241.942 36.2046 241.95 36.2662 241.957 36.319C241.964 36.3718 241.97 36.4246 241.975 36.4774C242.014 36.9487 241.959 37.4232 241.813 37.8731L241.797 37.8784Z" fill="#955646"/>
<path d="M234.611 39.0938L234.971 39.217C234.999 39.3789 235.203 40.1111 235.24 40.2466C235.401 40.838 235.802 41.058 236.645 41.1267C238.099 41.2587 237.065 43.8759 237.065 43.8759L242.19 42.9835L242.401 43.0029C240.521 41.3678 241.575 38.3757 241.798 37.8741C241.798 37.8582 241.658 38.2578 241.663 38.2419L239.427 37.8477L234.611 36.9993V37.0187C234.622 37.0944 234.629 37.1665 234.632 37.2369C234.643 37.6769 234.555 38.1138 234.374 38.5147C234.348 38.5679 234.334 38.6259 234.332 38.6849C234.331 38.7439 234.341 38.8026 234.364 38.8572C234.386 38.9119 234.42 38.9612 234.462 39.0019C234.505 39.0427 234.556 39.074 234.611 39.0938V39.0938Z" fill="#955646"/>
<path d="M237.059 43.8814C236.005 46.8524 233.019 51.0167 233.019 61.2848H245.088C245.088 51.5447 245.439 46.2064 242.395 43.0084L237.059 43.8814Z" fill="#F1BA39"/>
<path d="M243.772 46.9726C241.313 46.9726 239.757 45.8373 238.908 43.5633C238.558 42.5643 238.334 41.5255 238.239 40.4709C238.166 39.8221 238.122 39.1239 238.106 38.3765C238.106 38.1283 238.095 37.8731 238.095 37.6126C238.095 37.2195 238.1 36.8147 238.111 36.3982C238.041 36.3982 236.297 36.1729 235.174 34.8264C235.569 34.1942 236.147 33.6969 236.83 33.4005C237.513 33.104 238.27 33.0223 239 33.1661C239.731 33.3099 240.401 33.6725 240.921 34.2059C241.441 34.7393 241.788 35.4184 241.915 36.1535C241.926 36.2151 241.935 36.2767 241.942 36.3295C241.942 36.3594 241.942 36.3894 241.942 36.4175C241.942 36.4457 241.942 36.465 241.952 36.4879C242.058 37.3803 243.12 38.9291 245.672 40.4357C248.602 41.9811 248.105 46.9726 243.772 46.9726Z" fill="black"/>
<path d="M239.065 46.6479L237.321 53.5386L232.268 49.5908L229.516 52.7201L235.809 57.7909C236.259 58.1534 236.789 58.402 237.355 58.5156C237.921 58.6292 238.506 58.6045 239.06 58.4436C239.615 58.2826 240.123 57.9902 240.54 57.5911C240.958 57.1919 241.274 56.6978 241.461 56.1505L243.86 49.1419" fill="#F0BA3E"/>
<path d="M232.266 49.5904L230.627 48.3003L229.192 50.1026L230.56 51.5282L232.266 49.5904Z" fill="#DE9885"/>
<path d="M230.628 48.3005L230.184 47.9168C229.937 47.6401 229.739 47.3243 229.596 46.9822C229.513 46.7921 229.434 46.5774 229.244 46.4859C229.078 46.4329 228.902 46.4126 228.728 46.426C228.552 46.4148 228.384 46.3537 228.241 46.25L226.986 45.1852C226.943 45.1493 226.889 45.1303 226.834 45.1319C226.778 45.1336 226.725 45.1557 226.685 45.194C226.664 45.2148 226.648 45.2394 226.637 45.2666C226.625 45.2938 226.62 45.323 226.62 45.3524C226.62 45.3818 226.625 45.411 226.637 45.4382C226.648 45.4654 226.664 45.49 226.685 45.5108L228.068 46.9752C228.069 47.0021 228.062 47.0288 228.048 47.0519C228.035 47.0751 228.014 47.0937 227.99 47.1054C227.937 47.1337 227.891 47.1727 227.853 47.2198C227.816 47.2814 227.825 47.3624 227.785 47.4205C227.744 47.4785 227.639 47.5049 227.579 47.5648C227.52 47.6246 227.507 47.7637 227.449 47.8517C227.401 47.908 227.347 47.9593 227.288 48.0048C227.233 48.0616 227.196 48.1333 227.182 48.2109C227.168 48.2885 227.176 48.3686 227.207 48.4413C227.269 48.5538 227.35 48.655 227.446 48.7405C227.973 49.2791 228.698 49.5484 229.202 50.1081" fill="#DE9885"/>
</g>
<mask id="mask2_2626_2780" style="mask-type:alpha" maskUnits="userSpaceOnUse" x="199" y="30" width="20" height="20">
<circle cx="208.548" cy="40.0727" r="9.52323" fill="#C4C4C4"/>
</mask>
<g mask="url(#mask2_2626_2780)">
<circle cx="208.548" cy="40.0727" r="9.52323" fill="#FCE2BA"/>
<path d="M206.161 40.04C206.448 40.2509 206.762 40.423 207.095 40.5518C207.577 40.7406 208.091 40.8368 208.609 40.8354C209.191 40.8341 209.767 40.7098 210.298 40.4705C210.829 40.2313 211.304 39.8825 211.691 39.4469L211.709 39.4271C212.123 38.9572 212.426 38.3994 212.595 37.7956C212.763 37.1918 212.794 36.5575 212.683 35.9403C212.572 35.3232 212.323 34.7392 211.956 34.232C211.588 33.7248 211.11 33.3077 210.558 33.0118C210.006 32.7159 209.395 32.549 208.77 32.5235C208.145 32.498 207.522 32.6147 206.948 32.8647C206.374 33.1147 205.864 33.4917 205.456 33.9672C205.049 34.4428 204.753 35.0047 204.593 35.6108C204.563 35.7179 204.54 35.825 204.52 35.9361C204.52 35.9797 204.504 36.0253 204.498 36.071C204.387 36.8216 204.483 37.5886 204.776 38.2883C205.069 38.9881 205.548 39.5939 206.161 40.04Z" fill="#955646"/>
<path d="M205.337 43.9276C205.337 43.9276 206.549 41.4145 205.262 40.7361C203.975 40.0577 203.914 40.0042 204.14 38.6812C204.3 37.9433 203.7 37.9532 203.764 37.5208C203.827 37.0884 204.403 36.666 204.585 35.6147L211.699 39.433C209.953 41.4165 209.791 42.0651 210.569 43.5865L205.337 43.9276Z" fill="#955646"/>
<path d="M204.691 34.5001C204.88 34.0722 205.14 33.6798 205.461 33.3397C205.837 32.9807 206.872 32.7744 206.872 32.7744C207.072 32.7541 207.27 32.723 207.466 32.6812C208.296 32.4457 209.178 32.4747 209.99 32.7639C210.803 33.0532 211.506 33.5885 212.001 34.2957C212.234 34.6247 212.499 34.9291 212.793 35.2042C213.104 35.4815 213.357 35.8188 213.535 36.196C213.634 36.4201 213.693 36.6581 213.802 36.8763C213.912 37.0542 214.012 37.2376 214.103 37.4258C214.149 37.5197 214.17 37.6241 214.163 37.7286C214.156 37.8331 214.122 37.9339 214.064 38.0208C214.017 38.0755 213.956 38.1151 213.887 38.1346C213.818 38.154 213.745 38.1524 213.677 38.1299C213.913 38.3461 214.119 38.6198 214.032 38.9134C214.008 38.9947 213.963 39.0701 213.933 39.1494C213.85 39.3795 213.883 39.681 213.68 39.8139C213.612 39.8509 213.535 39.8674 213.459 39.8614C213.382 39.8554 213.309 39.8272 213.248 39.7802C213.171 39.7256 213.104 39.6586 213.05 39.5819C213.203 39.8246 213.309 40.0936 213.363 40.3753C213.42 40.6649 213.363 41.0497 213.074 41.1211C212.984 41.1297 212.893 41.1193 212.807 41.0906C212.721 41.0619 212.642 41.0155 212.575 40.9545C212.253 40.7238 211.959 40.4577 211.696 40.161C211.955 40.5082 212.223 40.8672 212.26 41.3273C212.279 41.5279 212.23 41.729 212.122 41.8986C212.077 41.9748 212.012 42.0372 211.934 42.0791C211.824 42.117 211.706 42.12 211.595 42.0877C211.484 42.0553 211.386 41.9893 211.314 41.8986C211.156 41.73 211.055 41.5158 210.9 41.3432C210.9 41.5138 210.946 41.6904 210.944 41.859C210.988 41.9466 211 42.0474 210.976 42.1428C210.953 42.2383 210.896 42.322 210.815 42.3786C210.652 42.4893 210.463 42.5575 210.267 42.577C210.24 42.5822 210.213 42.5855 210.186 42.5869C210.162 42.5899 210.138 42.5899 210.115 42.5869C209.974 42.5611 209.895 42.4123 209.841 42.2794C209.725 41.9938 209.62 41.7042 209.527 41.4107C209.499 41.3234 209.473 41.2341 209.45 41.1469C209.391 41.2111 209.314 41.2568 209.23 41.2787C209.146 41.3005 209.057 41.2975 208.974 41.2699C208.888 41.2301 208.813 41.1694 208.757 41.0933C208.699 41.0211 208.651 40.9418 208.614 40.8573C208.329 40.2325 208.565 39.3894 208.218 38.7666C208.349 39.0614 208.378 39.3918 208.299 39.7048C208.288 39.7864 208.255 39.8635 208.204 39.928C208.153 39.9925 208.085 40.0422 208.009 40.0718C207.937 40.0814 207.864 40.0697 207.799 40.0384C207.734 40.007 207.68 39.9572 207.642 39.8952C207.571 39.7692 207.526 39.6303 207.51 39.4867C207.448 39.1455 207.399 38.7964 207.33 38.4532C207.253 38.6193 207.196 38.7937 207.159 38.9729C207.16 39.1567 207.181 39.3398 207.225 39.5184C207.251 39.875 207.208 40.2333 207.098 40.5736C207.097 40.5829 207.097 40.5921 207.098 40.6014C207.084 40.6801 207.052 40.7543 207.003 40.8176C206.952 40.8643 206.887 40.8932 206.818 40.9C206.749 40.9068 206.68 40.8911 206.621 40.8553C206.503 40.781 206.41 40.6733 206.354 40.5458C206.276 40.3914 206.215 40.2292 206.172 40.0619C206.136 39.9349 206.108 39.806 206.085 39.6771C205.974 39.0939 205.914 38.5028 205.857 37.9117C205.821 37.5666 205.788 37.2215 205.754 36.8783C205.732 36.6601 205.71 36.4399 205.691 36.2217C205.671 36.0036 205.653 35.8389 205.635 35.6465C205.604 35.3232 205.574 34.9979 205.546 34.6746C205.516 34.7371 205.483 34.798 205.447 34.8571C205.367 35.0085 205.243 35.1317 205.091 35.2102C205.014 35.248 204.927 35.2587 204.844 35.2407C204.761 35.2227 204.686 35.177 204.632 35.111C204.505 34.9166 204.596 34.6845 204.691 34.5001ZM213.674 38.1299C213.628 38.0863 213.582 38.0486 213.537 38.0109C213.565 38.0671 213.614 38.1099 213.674 38.1299V38.1299Z" fill="#0D2135"/>
<path d="M205.396 43.8148C204.133 46.1752 202.97 47.5597 203.563 50.1621C204.157 52.7644 201.98 51.9651 201.98 63.5191H204.973C209.751 63.5191 211.986 67.1371 213.609 67.7083C217.326 52.8716 211.39 45.5682 210.357 43.1126L205.396 43.8148Z" fill="#EC9178"/>
</g>
<mask id="mask3_2626_2780" style="mask-type:alpha" maskUnits="userSpaceOnUse" x="215" y="45" width="20" height="20">
<circle cx="224.748" cy="54.9228" r="9.52323" fill="#C4C4C4"/>
</mask>
<g mask="url(#mask3_2626_2780)">
<circle cx="224.748" cy="54.9228" r="9.52323" fill="#BFD3D6"/>
<path d="M229.676 52.8445C229.606 53.5789 229.322 54.2766 228.86 54.8511C228.636 55.1294 228.373 55.3736 228.078 55.5761C227.485 55.9939 226.785 56.2323 226.061 56.263C225.336 56.2937 224.618 56.1154 223.992 55.7493C223.366 55.3833 222.857 54.8448 222.528 54.1978C222.198 53.5508 222.06 52.8226 222.131 52.0995L222.147 51.9599C222.16 51.8639 222.176 51.7696 222.198 51.6753C222.3 51.1845 222.501 50.7196 222.787 50.3085C223.281 49.593 224.005 49.0692 224.838 48.8247C225.671 48.5802 226.563 48.6299 227.364 48.9654C227.375 48.9681 227.385 48.9723 227.395 48.9781C228.136 49.2952 228.757 49.8413 229.168 50.5367C229.578 51.2321 229.756 52.0406 229.676 52.8445V52.8445Z" fill="#EFB7A8"/>
<path d="M223.248 59.2298C223.248 59.2298 224.245 56.8734 223.04 56.3205C222.789 56.2027 222.586 56.1084 222.427 56.0196H222.414C221.828 55.6933 221.81 55.4558 221.926 54.5024C221.926 54.4824 221.926 54.4643 221.926 54.4462C221.947 54.3177 221.931 54.1859 221.882 54.0655C221.842 53.9808 221.786 53.9045 221.718 53.8408C221.611 53.7302 221.506 53.6396 221.524 53.4583C221.56 53.0958 221.969 52.7332 222.139 51.9683C222.162 51.8745 222.178 51.7795 222.19 51.6837L224.44 52.7549L224.901 52.9743L224.936 52.9906L226.49 53.7302L226.602 53.7828L228.852 54.854C228.661 55.1029 228.515 55.3832 228.42 55.6824C228.058 56.857 228.635 58.0733 229.259 59.2208L223.248 59.2298Z" fill="#EFB7A8"/>
<path d="M229.675 52.8456C229.605 53.58 229.322 54.2777 228.86 54.8521C228.668 55.101 228.522 55.3814 228.427 55.6806L228.078 55.5827L227.519 55.434C226.678 55.2128 226.475 54.5477 226.615 53.7809C226.639 53.6387 226.673 53.4982 226.716 53.3603C226.716 53.3603 226.716 53.3603 226.716 53.3603L225.028 52.7186L224.996 52.7912L224.912 52.9725L224.853 53.1029L224.379 52.909L224.451 52.7531L225.403 50.6758C224.515 50.8059 223.609 50.6801 222.791 50.3132C222.664 50.257 222.594 50.2172 222.594 50.2172C222.302 50.1005 222.047 49.9085 221.854 49.6607C221.74 49.5184 221.661 49.3514 221.622 49.1731C221.604 49.0841 221.603 48.9925 221.621 48.9034C221.639 48.8143 221.674 48.7297 221.725 48.6547C221.8 48.566 221.895 48.4962 222.002 48.4508C222.109 48.4055 222.225 48.3859 222.34 48.3937C222.572 48.412 222.799 48.467 223.013 48.5568C222.921 48.5112 222.85 48.4324 222.814 48.3362C222.777 48.24 222.779 48.1335 222.818 48.0384C222.861 47.9452 222.927 47.8644 223.01 47.8036C223.093 47.7427 223.19 47.7038 223.292 47.6904C223.496 47.6644 223.703 47.6842 223.898 47.7483C224.171 47.8264 224.435 47.9353 224.685 48.0728C224.635 48.0388 224.595 47.9938 224.566 47.9414C224.537 47.8889 224.52 47.8305 224.518 47.7706C224.515 47.7107 224.526 47.651 224.551 47.5962C224.575 47.5414 224.611 47.4929 224.657 47.4547C224.738 47.4092 224.827 47.3815 224.919 47.3734C225.011 47.3653 225.104 47.377 225.191 47.4076C225.949 47.5889 226.445 48.3338 227.06 48.7797C227.048 48.7352 227.048 48.6883 227.06 48.6438C227.09 48.571 227.146 48.5121 227.217 48.4786C227.289 48.4451 227.37 48.4393 227.445 48.4625C227.592 48.5178 227.719 48.618 227.807 48.7489C227.977 48.9649 228.114 49.205 228.214 49.4613C228.204 49.4343 228.201 49.4057 228.203 49.3773C228.205 49.3488 228.213 49.321 228.226 49.2957C228.239 49.2703 228.257 49.2478 228.279 49.2295C228.3 49.2113 228.326 49.1977 228.353 49.1894C228.406 49.1783 228.46 49.1817 228.511 49.1993C228.562 49.2168 228.608 49.2479 228.642 49.2891C228.834 49.4849 228.863 49.784 228.981 50.0305C228.959 49.9544 229.053 49.9 229.131 49.9145C229.168 49.9259 229.203 49.9452 229.232 49.9711C229.262 49.9971 229.285 50.0291 229.301 50.065C229.372 50.2101 229.42 50.3654 229.444 50.5254C229.523 50.9387 229.601 51.4136 229.641 51.8323C229.699 52.1669 229.71 52.5078 229.675 52.8456V52.8456Z" fill="#E7592F"/>
<path d="M225.843 54.0098C226.343 54.0098 226.749 53.6032 226.749 53.1016C226.749 52.6001 226.343 52.1935 225.843 52.1935C225.342 52.1935 224.937 52.6001 224.937 53.1016C224.937 53.6032 225.342 54.0098 225.843 54.0098Z" fill="#EFB7A8"/>
<path opacity="0.4" d="M224.795 55.4564L224.594 56.0382L224.579 56.0836C224.543 56.1896 224.484 56.2866 224.408 56.3683C224.331 56.45 224.238 56.5144 224.134 56.5574C224.031 56.6004 223.92 56.621 223.808 56.6177C223.696 56.6145 223.586 56.5874 223.485 56.5385L222.427 56.0237H222.414C221.828 55.6974 221.81 55.46 221.926 54.5065C221.926 54.4866 221.926 54.4684 221.926 54.4503C221.947 54.3218 221.932 54.1901 221.882 54.0696L222.508 54.1839L223.129 54.2981C223.292 54.3273 223.461 54.3011 223.607 54.2236C223.754 54.1462 223.871 54.0218 223.939 53.8703L224.368 52.915L224.842 53.109L224.437 54.2799C224.234 54.8799 224.795 55.4564 224.795 55.4564Z" fill="#E7592F"/>
<path d="M227.032 58.0834L223.416 58.206C222.578 58.2341 221.772 58.5339 221.118 59.0602L215.412 63.6628L210.981 62.4528L209.555 65.7658L212.598 67.2115C213.363 67.575 214.195 67.7736 215.041 67.7946C215.887 67.8156 216.727 67.6585 217.509 67.3334C218.562 66.8969 219.547 66.5243 219.501 66.6836C218.542 70.0534 217.291 73.9698 218.222 76.9889L232.594 76.5014C233.475 73.1162 232.772 71.0543 232.772 71.0543C233.857 69.7026 233.717 68.2401 233.635 67.1619C233.553 66.0837 233.079 61.4313 233.079 61.4313C232.596 57.8656 229.885 57.9866 228.8 58.0234L227.032 58.0834Z" fill="#918675"/>
</g>
<rect x="44" width="80" height="80" rx="40" fill="white"/>
<path d="M107 19.875H72V56.625C71.9212 58.5238 70.3988 60.0462 68.5 60.125H103.5C105.434 60.125 107 58.5588 107 56.625V19.875Z" fill="#FDE2BC"/>
<path d="M101.75 33H77.25C76.7687 33 76.375 32.6063 76.375 32.125C76.375 31.6437 76.7687 31.25 77.25 31.25H101.75C102.231 31.25 102.625 31.6437 102.625 32.125C102.625 32.6063 102.231 33 101.75 33Z" fill="#38434F"/>
<path d="M101.75 38.25H77.25C76.7687 38.25 76.375 37.8563 76.375 37.375C76.375 36.8937 76.7687 36.5 77.25 36.5H101.75C102.231 36.5 102.625 36.8937 102.625 37.375C102.625 37.8563 102.231 38.25 101.75 38.25Z" fill="#38434F"/>
<path d="M101.75 43.5H77.25C76.7687 43.5 76.375 43.1063 76.375 42.625C76.375 42.1437 76.7687 41.75 77.25 41.75H101.75C102.231 41.75 102.625 42.1437 102.625 42.625C102.625 43.1063 102.231 43.5 101.75 43.5Z" fill="#38434F"/>
<path d="M101.75 48.75H77.25C76.7687 48.75 76.375 48.3563 76.375 47.875C76.375 47.3937 76.7687 47 77.25 47H101.75C102.231 47 102.625 47.3937 102.625 47.875C102.625 48.3563 102.231 48.75 101.75 48.75Z" fill="#38434F"/>
<path d="M72 47H67.625C66.1725 47 65 48.1725 65 49.625V56.625C64.965 58.515 66.47 60.0812 68.36 60.125H68.5613C70.4338 60.125 71.965 58.62 72 56.7475V47Z" fill="#56687A"/>
</svg>
