<svg width="312" height="80" viewBox="0 0 312 80" fill="none" xmlns="http://www.w3.org/2000/svg">
<rect x="116" width="80" height="80" rx="40" fill="white"/>
<path d="M176 18.875H141V55.625C140.921 57.5238 139.399 59.0462 137.5 59.125H172.5C174.434 59.125 176 57.5588 176 55.625V18.875Z" fill="#FDE2BC"/>
<path d="M170.75 32H146.25C145.769 32 145.375 31.6063 145.375 31.125C145.375 30.6437 145.769 30.25 146.25 30.25H170.75C171.231 30.25 171.625 30.6437 171.625 31.125C171.625 31.6063 171.231 32 170.75 32Z" fill="#38434F"/>
<path d="M170.75 37.25H146.25C145.769 37.25 145.375 36.8563 145.375 36.375C145.375 35.8937 145.769 35.5 146.25 35.5H170.75C171.231 35.5 171.625 35.8937 171.625 36.375C171.625 36.8563 171.231 37.25 170.75 37.25Z" fill="#38434F"/>
<path d="M170.75 42.5H146.25C145.769 42.5 145.375 42.1063 145.375 41.625C145.375 41.1437 145.769 40.75 146.25 40.75H170.75C171.231 40.75 171.625 41.1437 171.625 41.625C171.625 42.1063 171.231 42.5 170.75 42.5Z" fill="#38434F"/>
<path d="M170.75 47.75H146.25C145.769 47.75 145.375 47.3563 145.375 46.875C145.375 46.3937 145.769 46 146.25 46H170.75C171.231 46 171.625 46.3937 171.625 46.875C171.625 47.3563 171.231 47.75 170.75 47.75Z" fill="#38434F"/>
<path d="M141 46H136.625C135.173 46 134 47.1725 134 48.625V55.625C133.965 57.515 135.47 59.0812 137.36 59.125H137.561C139.434 59.125 140.965 57.62 141 55.7475V46Z" fill="#56687A"/>
</svg>
