<svg width="313" height="80" viewBox="0 0 313 80" fill="none" xmlns="http://www.w3.org/2000/svg">
<rect x="74" width="165" height="80" rx="40" fill="white"/>
<rect x="159" width="80" height="80" rx="40" fill="white"/>
<path d="M184.84 47.7609L187.745 44.8647L186.284 43.4034L183.379 46.3084L184.84 47.7609Z" fill="#56687A"/>
<path d="M183.055 45.6789C182.346 45.0839 181.296 45.1364 180.658 45.8101L170.56 55.9164C169.869 56.5376 169.808 57.5964 170.42 58.2876C170.42 58.2876 170.429 58.2964 170.438 58.3051L172.695 60.5801C173.395 61.1926 174.463 61.1314 175.084 60.4314L185.181 50.3251C185.881 49.7039 185.943 48.6364 185.321 47.9451C185.321 47.9451 185.321 47.9364 185.312 47.9276L183.055 45.6789V45.6789Z" fill="#F8C77E"/>
<path d="M197.125 48.75C205.34 48.75 212 42.0902 212 33.875C212 25.6598 205.34 19 197.125 19C188.91 19 182.25 25.6598 182.25 33.875C182.25 42.0902 188.91 48.75 197.125 48.75Z" fill="#56687A"/>
<path d="M197.125 47C204.374 47 210.25 41.1237 210.25 33.875C210.25 26.6263 204.374 20.75 197.125 20.75C189.876 20.75 184 26.6263 184 33.875C184 41.1237 189.876 47 197.125 47Z" fill="white"/>
<path d="M197.125 44.375C202.924 44.375 207.625 39.674 207.625 33.875C207.625 28.076 202.924 23.375 197.125 23.375C191.326 23.375 186.625 28.076 186.625 33.875C186.625 39.674 191.326 44.375 197.125 44.375Z" fill="#DDE7F1"/>
<rect x="87" width="80" height="80" rx="40" fill="white"/>
<path d="M147 18.875H112V55.625C111.921 57.5238 110.399 59.0462 108.5 59.125H143.5C145.434 59.125 147 57.5588 147 55.625V18.875Z" fill="#FDE2BC"/>
<path d="M141.75 32H117.25C116.769 32 116.375 31.6063 116.375 31.125C116.375 30.6437 116.769 30.25 117.25 30.25H141.75C142.231 30.25 142.625 30.6437 142.625 31.125C142.625 31.6063 142.231 32 141.75 32Z" fill="#38434F"/>
<path d="M141.75 37.25H117.25C116.769 37.25 116.375 36.8563 116.375 36.375C116.375 35.8937 116.769 35.5 117.25 35.5H141.75C142.231 35.5 142.625 35.8937 142.625 36.375C142.625 36.8563 142.231 37.25 141.75 37.25Z" fill="#38434F"/>
<path d="M141.75 42.5H117.25C116.769 42.5 116.375 42.1063 116.375 41.625C116.375 41.1437 116.769 40.75 117.25 40.75H141.75C142.231 40.75 142.625 41.1437 142.625 41.625C142.625 42.1063 142.231 42.5 141.75 42.5Z" fill="#38434F"/>
<path d="M141.75 47.75H117.25C116.769 47.75 116.375 47.3563 116.375 46.875C116.375 46.3937 116.769 46 117.25 46H141.75C142.231 46 142.625 46.3937 142.625 46.875C142.625 47.3563 142.231 47.75 141.75 47.75Z" fill="#38434F"/>
<path d="M112 46H107.625C106.172 46 105 47.1725 105 48.625V55.625C104.965 57.515 106.47 59.0812 108.36 59.125H108.561C110.434 59.125 111.965 57.62 112 55.7475V46Z" fill="#56687A"/>
</svg>
